<?xml version="1.0" standalone="no"?>
<!DOCTYPE svg PUBLIC "-//W3C//DTD SVG 20010904//EN"
 "http://www.w3.org/TR/2001/REC-SVG-20010904/DTD/svg10.dtd">
<svg version="1.0" xmlns="http://www.w3.org/2000/svg"
 width="500.000000pt" height="200.000000pt" viewBox="0 0 500.000000 200.000000"
 preserveAspectRatio="xMidYMid meet">

<g transform="translate(0.000000,200.000000) scale(0.100000,-0.100000)"
fill="#000000" stroke="none">
<path d="M1210 1750 l0 -50 -170 0 -170 0 2 -187 2 -188 6 175 5 175 353 3
352 2 0 -425 0 -425 -355 0 -355 0 -3 163 -3 162 -2 -172 -2 -173 56 0 c47 0
55 -3 52 -17 -2 -11 -14 -19 -31 -21 -21 -3 -27 -9 -27 -28 0 -19 5 -24 26
-24 22 0 25 -3 21 -22 -4 -13 -11 -54 -16 -93 -6 -38 -20 -131 -32 -206 -24
-155 -23 -184 6 -184 22 0 19 -11 49 205 9 63 24 157 32 208 l16 92 94 0 c94
0 94 0 94 -25 0 -20 5 -25 25 -25 20 0 25 5 25 25 0 25 0 25 94 25 107 0 101
4 111 -92 4 -35 15 -115 25 -178 10 -63 22 -143 25 -177 6 -53 10 -63 26 -63
30 0 32 20 14 137 -9 59 -22 157 -31 217 -8 59 -17 119 -20 132 -5 21 -3 24
20 24 21 0 26 5 26 24 0 19 -6 25 -27 28 -17 2 -29 10 -31 21 -3 15 5 17 57
17 l61 0 0 445 0 445 -175 0 -175 0 0 50 c0 47 -2 50 -25 50 -23 0 -25 -3 -25
-50z m0 -960 c0 -19 -7 -20 -90 -20 -83 0 -90 1 -90 20 0 19 7 20 90 20 83 0
90 -1 90 -20z m230 0 c0 -19 -7 -20 -90 -20 -83 0 -90 1 -90 20 0 19 7 20 90
20 83 0 90 -1 90 -20z"/>
<path d="M568 1770 c-103 -55 -102 -200 2 -252 66 -34 133 -18 184 42 53 64
25 173 -54 212 -45 23 -86 22 -132 -2z"/>
<path d="M2213 1675 c-65 -18 -142 -56 -166 -83 -25 -27 -32 -82 -14 -106 13
-18 15 -16 25 27 15 58 57 100 127 126 82 31 90 28 52 -22 -29 -38 -45 -70
-105 -208 -18 -44 -21 -45 -56 -41 -20 2 -44 1 -53 -3 -14 -6 -7 -11 27 -20
53 -14 55 -26 13 -111 -35 -72 -73 -104 -122 -104 -100 0 -113 152 -16 176 36
9 30 24 -9 24 -96 0 -120 -172 -31 -220 41 -22 99 -17 137 13 34 25 52 54 87
140 11 26 27 47 35 47 21 0 86 -64 86 -84 0 -30 30 -77 56 -86 32 -12 74 8 93
44 l14 26 32 -38 c28 -32 38 -37 73 -36 43 1 78 23 110 68 l21 29 15 -37 c11
-26 26 -41 52 -52 34 -14 41 -14 81 1 50 19 102 80 129 151 9 25 22 43 28 41
11 -4 12 -18 0 -104 -6 -47 -4 -54 20 -78 34 -34 58 -27 114 32 23 25 42 38
42 30 0 -21 39 -67 66 -77 38 -15 80 -1 120 39 25 24 38 32 41 23 10 -26 48
-61 74 -67 21 -5 34 0 59 22 l32 29 28 -28 c35 -35 50 -35 89 -2 48 40 124
205 94 204 -5 -1 -27 -40 -50 -89 -40 -83 -62 -109 -84 -95 -13 8 -11 101 5
167 7 32 10 60 5 63 -5 3 -22 -1 -39 -9 -26 -14 -30 -13 -46 4 -35 39 -106 15
-140 -48 -12 -21 -27 -55 -34 -76 -16 -52 -72 -109 -102 -105 -33 4 -49 44
-45 106 6 89 65 140 94 82 11 -21 13 -22 19 -7 4 10 2 29 -4 43 -10 20 -19 24
-51 24 -56 0 -104 -45 -146 -135 -18 -38 -42 -80 -55 -93 -44 -46 -65 0 -30
68 30 60 24 81 -30 100 -36 13 -46 21 -54 48 -7 25 -14 32 -30 30 -27 -4 -33
-43 -10 -69 17 -18 16 -22 -7 -70 -28 -60 -91 -129 -118 -129 -24 0 -51 26
-51 48 0 9 -3 27 -6 38 -5 18 0 22 30 28 49 9 89 45 89 81 0 35 -26 55 -71 55
-45 0 -105 -59 -121 -116 -25 -92 -102 -158 -139 -120 -26 26 -23 136 4 173
26 35 54 36 71 3 11 -21 13 -22 19 -7 4 10 2 29 -4 43 -10 20 -19 24 -52 24
-60 0 -109 -48 -138 -137 -22 -70 -54 -117 -75 -110 -42 14 -20 321 34 461 10
28 19 52 19 54 0 8 -113 -2 -157 -13z m107 -19 c0 -2 -11 -29 -25 -60 -30 -67
-65 -198 -65 -241 0 -44 -7 -47 -52 -24 -30 15 -38 24 -33 37 4 9 15 40 25 67
27 79 69 157 103 193 27 28 47 40 47 28z m468 -294 c3 -17 -4 -25 -30 -36 -38
-16 -50 -13 -41 12 18 51 65 67 71 24z m712 -2 c23 -42 -28 -190 -65 -190 -39
0 -42 82 -5 168 21 47 51 57 70 22z"/>
<path d="M4117 1582 c-22 -24 -54 -98 -62 -144 -7 -38 -18 -48 -30 -28 -9 14
-52 12 -83 -4 -15 -8 -37 -31 -49 -53 -54 -97 -32 -198 48 -218 21 -5 34 0 62
25 35 30 36 30 47 11 28 -54 82 -46 128 18 l29 40 14 -32 c19 -42 69 -71 110
-62 46 10 108 72 141 140 15 33 28 66 28 73 0 28 -18 8 -45 -49 -31 -65 -93
-129 -124 -129 -26 0 -42 23 -48 68 -5 38 -4 40 30 46 50 9 87 41 87 76 0 37
-24 60 -61 60 -62 0 -105 -39 -134 -121 -19 -52 -52 -99 -71 -99 -8 0 -20 11
-26 25 -19 43 14 222 67 358 10 24 -36 23 -58 -1z m248 -202 c12 -20 -6 -48
-37 -59 -37 -13 -42 -10 -33 18 13 41 55 66 70 41z m-334 -24 c8 -17 7 -39 -5
-87 -24 -92 -68 -131 -82 -73 -10 38 2 132 21 160 20 31 52 31 66 0z"/>
<path d="M1067 1468 c-26 -35 -47 -71 -47 -80 0 -21 -7 -22 -40 -3 -30 17 -40
18 -40 5 0 -14 56 -41 73 -34 8 3 24 28 37 57 12 29 31 61 40 72 20 23 33 45
27 45 -2 0 -25 -28 -50 -62z"/>
<path d="M1205 1475 c-49 -25 -117 -83 -105 -90 6 -3 38 12 73 34 100 66 112
54 44 -43 -49 -69 -60 -115 -21 -88 18 12 84 113 90 138 15 57 -21 79 -81 49z"/>
<path d="M393 1439 c-55 -27 -167 -146 -183 -194 -11 -33 -10 -40 8 -64 18
-24 25 -26 96 -26 l76 1 0 -76 c0 -41 -7 -140 -15 -220 -38 -362 -55 -538 -55
-567 0 -52 61 -87 115 -67 28 11 43 56 49 149 4 50 16 173 26 275 11 102 21
201 22 220 3 31 6 35 35 38 27 3 33 -1 37 -20 4 -23 41 -399 52 -541 8 -97 28
-127 83 -127 46 0 81 33 81 76 0 16 -9 112 -20 214 -61 578 -72 725 -54 743 4
4 28 -8 53 -26 61 -44 94 -57 142 -57 72 0 137 42 175 113 17 32 6 62 -28 72
-17 6 -29 -2 -62 -37 -54 -59 -75 -65 -130 -38 -41 19 -69 46 -153 143 l-31
37 -139 0 c-120 0 -144 -3 -180 -21z m-3 -153 c0 -17 -7 -26 -26 -30 -36 -9
-38 -4 -12 27 29 33 38 33 38 3z"/>
<path d="M1148 1258 c-9 -7 -33 -33 -52 -56 -29 -36 -36 -52 -36 -88 0 -33 5
-46 19 -54 47 -24 141 -5 263 56 32 15 60 25 63 22 3 -3 -4 -26 -15 -52 -23
-56 -25 -70 -7 -84 16 -14 66 9 98 45 l24 26 -49 -26 c-27 -15 -50 -27 -52
-27 -10 0 -1 28 16 50 28 36 27 96 -1 103 -23 6 -39 1 -172 -52 -84 -33 -134
-39 -143 -17 -6 15 14 61 47 113 24 38 22 60 -3 41z"/>
<path d="M1211 1256 c-9 -11 -5 -16 20 -25 34 -12 45 -9 34 8 -13 22 -42 31
-54 17z"/>
<path d="M4372 788 c-17 -17 -15 -55 4 -62 27 -10 69 16 69 44 0 20 -5 26 -30
28 -17 2 -36 -3 -43 -10z"/>
<path d="M3982 675 c-12 -9 -34 -37 -49 -62 -30 -51 -40 -45 -24 14 12 43 5
55 -27 46 -67 -17 -84 -230 -21 -264 26 -14 39 -4 39 31 0 62 74 209 95 188 4
-3 1 -40 -6 -81 -13 -80 -4 -129 28 -141 23 -9 30 0 37 51 10 80 72 191 93
169 4 -3 1 -29 -5 -57 -18 -76 -15 -126 8 -149 11 -11 26 -20 34 -20 20 0 72
46 93 81 l17 29 16 -43 c31 -83 104 -84 161 -1 32 47 69 127 69 150 0 32 -18
10 -49 -60 -86 -195 -150 -127 -99 104 2 11 -4 14 -22 12 -35 -4 -45 -17 -75
-96 -28 -77 -68 -136 -91 -136 -19 0 -18 29 2 116 18 75 14 121 -11 131 -26 9
-74 -18 -97 -56 l-23 -36 -5 35 c-4 20 -10 41 -14 48 -10 17 -47 15 -74 -3z"/>
<path d="M2455 620 c-206 -11 -647 -47 -694 -58 -19 -4 -36 -12 -38 -18 -3 -8
24 -10 83 -6 57 3 84 1 80 -6 -12 -20 596 14 714 40 66 15 608 18 835 4 83 -5
147 -6 144 -2 -11 11 -504 44 -739 49 -118 3 -291 1 -385 -3z m60 -31 c-30 -9
-98 -13 -325 -22 -150 -6 -108 0 135 17 220 16 228 17 190 5z"/>
<path d="M3608 573 c7 -3 16 -2 19 1 4 3 -2 6 -13 5 -11 0 -14 -3 -6 -6z"/>
</g>
</svg>
