<?xml version="1.0" standalone="no"?>
<!DOCTYPE svg PUBLIC "-//W3C//DTD SVG 20010904//EN"
 "http://www.w3.org/TR/2001/REC-SVG-20010904/DTD/svg10.dtd">
<svg version="1.0" xmlns="http://www.w3.org/2000/svg"
 width="225.000000pt" height="250.000000pt" viewBox="0 0 225.000000 250.000000"
 preserveAspectRatio="xMidYMid meet">

<g transform="translate(0.000000,250.000000) scale(0.100000,-0.100000)"
fill="#000000" stroke="none">
<path d="M1486 2234 c-3 -9 -6 -38 -6 -65 l0 -49 -210 0 -210 0 2 -177 2 -178
5 157 c3 86 10 160 14 164 5 5 204 10 443 12 l434 4 0 -531 0 -531 -445 0
-444 0 -4 123 -3 122 -2 -137 -2 -138 65 0 c76 0 89 -20 29 -45 -28 -11 -35
-19 -32 -37 2 -17 11 -24 32 -26 27 -3 28 -6 22 -40 -36 -213 -76 -505 -74
-542 3 -38 7 -46 25 -48 19 -3 23 3 28 40 4 24 25 165 48 313 l42 270 115 0
c114 0 114 0 120 -25 4 -17 14 -26 31 -28 19 -2 27 3 36 28 l11 30 97 0 c53 0
105 -4 115 -10 11 -6 21 -25 24 -47 3 -21 22 -155 42 -298 37 -272 48 -306 81
-272 16 15 14 35 -25 314 -23 164 -42 301 -42 305 0 4 12 8 28 10 44 5 42 42
-5 64 -21 11 -38 24 -38 29 0 6 33 11 73 13 l72 3 0 554 0 555 -214 0 -214 0
-7 65 c-7 59 -9 65 -30 65 -13 0 -26 -7 -29 -16z m-9 -1239 c9 -26 -5 -30
-107 -30 -102 0 -116 4 -107 30 9 22 205 22 214 0z m290 0 c9 -25 -4 -30 -88
-34 -98 -4 -129 3 -129 29 0 19 7 20 105 20 86 0 107 -3 112 -15z"/>
<path d="M730 2231 c-93 -29 -143 -90 -143 -176 0 -205 300 -242 353 -44 12
45 2 95 -29 146 -32 52 -127 91 -181 74z"/>
<path d="M1314 1848 c-26 -35 -54 -80 -62 -100 l-15 -37 -38 19 c-46 24 -49
24 -49 6 0 -15 68 -46 86 -39 7 2 29 37 50 76 20 40 48 87 62 105 13 17 22 32
18 32 -3 0 -27 -28 -52 -62z"/>
<path d="M1469 1840 c-20 -10 -58 -40 -85 -65 -60 -56 -39 -53 72 11 98 55
105 44 39 -59 -46 -72 -63 -113 -51 -124 17 -18 124 136 133 192 10 64 -36 83
-108 45z"/>
<path d="M462 1798 c-57 -30 -198 -177 -224 -234 -19 -44 -19 -46 -1 -77 23
-38 44 -45 147 -46 l79 -1 -7 -127 c-3 -70 -24 -304 -46 -521 -22 -216 -40
-407 -40 -423 0 -48 47 -89 103 -89 79 0 87 23 117 340 37 400 48 492 56 500
5 5 21 12 36 15 23 6 29 3 37 -16 6 -13 22 -148 36 -299 40 -434 44 -469 60
-499 17 -34 33 -41 86 -41 29 0 47 7 64 25 34 33 33 60 -14 525 -49 479 -64
665 -56 707 7 38 12 37 99 -19 99 -64 170 -72 256 -28 57 29 120 105 120 146
0 30 -27 64 -52 64 -5 0 -38 -27 -73 -60 -41 -38 -73 -60 -88 -60 -54 0 -127
51 -210 146 l-82 94 -180 0 c-166 0 -183 -2 -223 -22z m-2 -187 c0 -25 -24
-43 -50 -39 l-22 3 22 28 c25 31 50 36 50 8z"/>
<path d="M1374 1538 c-23 -24 -48 -54 -58 -68 -20 -31 -22 -123 -2 -139 42
-35 141 -19 301 49 51 22 98 40 104 40 5 0 -1 -32 -15 -72 -26 -77 -22 -98 21
-98 21 0 96 47 110 69 10 17 -3 13 -56 -16 -27 -14 -52 -24 -55 -21 -3 4 6 28
20 54 28 52 32 84 16 115 -15 28 -37 24 -172 -26 -248 -93 -277 -84 -198 61
58 106 53 124 -16 52z"/>
<path d="M1485 1570 c-10 -16 3 -28 36 -35 40 -9 46 -2 20 24 -23 23 -46 27
-56 11z"/>
</g>
</svg>
