<svg xmlns="http://www.w3.org/2000/svg" xmlns:xlink="http://www.w3.org/1999/xlink" width="500" zoomAndPan="magnify" viewBox="0 0 375 374.999991" height="500" preserveAspectRatio="xMidYMid meet" version="1.0"><defs><clipPath id="94fdd5f591"><path d="M 37.5 91.226562 L 337 91.226562 L 337 304.976562 L 37.5 304.976562 Z M 37.5 91.226562 " clip-rule="nonzero"/></clipPath></defs><g clip-path="url(#94fdd5f591)"><path fill="#040606" d="M 232.867188 113.175781 C 235.792969 113.707031 238.839844 114.5 241.941406 115.535156 C 247.324219 110.847656 253.359375 107.605469 259.277344 106.191406 C 257.21875 104.515625 255.15625 102.84375 253.097656 101.183594 C 249.761719 103.53125 246.246094 105.683594 242.847656 107.765625 C 241.691406 108.472656 240.542969 109.175781 239.398438 109.886719 C 238.855469 110.230469 237.078125 111.105469 234.226562 112.503906 C 233.796875 112.714844 233.335938 112.945312 232.867188 113.175781 Z M 247.726562 117.746094 C 250.503906 118.914062 253.34375 120.285156 256.339844 121.890625 C 258.042969 121.269531 259.753906 120.601562 261.476562 119.933594 C 264.753906 118.660156 268.121094 117.351562 271.515625 116.296875 C 269.113281 114.277344 266.621094 112.210938 264.074219 110.113281 C 257.996094 112.339844 252.722656 114.800781 247.726562 117.746094 Z M 264.011719 126.355469 C 264.886719 126.902344 265.78125 127.46875 266.703125 128.070312 C 270.390625 127.128906 273.953125 125.96875 276.6875 125.054688 C 277.453125 124.796875 278.214844 124.515625 278.980469 124.238281 C 279.40625 124.082031 279.835938 123.925781 280.265625 123.773438 C 279.453125 123.066406 278.644531 122.359375 277.828125 121.660156 C 273.507812 123.921875 268.527344 125.300781 264.011719 126.355469 Z M 273.742188 132.847656 C 275.011719 133.75 276.347656 134.710938 277.800781 135.773438 C 281.089844 135.039062 284.269531 134.222656 287.269531 133.335938 C 287.882812 133.15625 288.496094 132.960938 289.109375 132.761719 C 289.40625 132.667969 289.703125 132.574219 290.007812 132.480469 C 288.648438 131.230469 287.277344 129.992188 285.902344 128.757812 C 282.363281 130.742188 278.082031 131.945312 273.742188 132.847656 Z M 285.214844 141.3125 C 285.449219 141.21875 285.695312 141.160156 285.949219 141.128906 C 288.671875 140.8125 291.59375 140.457031 294.515625 140.011719 C 295.558594 139.851562 296.589844 139.691406 297.644531 139.664062 C 296.984375 139.03125 296.316406 138.402344 295.652344 137.773438 C 292.417969 139.574219 288.523438 140.394531 284.777344 140.980469 C 284.921875 141.089844 285.070312 141.199219 285.214844 141.3125 Z M 302.027344 154.664062 C 302.355469 154.496094 302.710938 154.390625 303.085938 154.347656 L 303.820312 154.261719 C 305.503906 154.074219 307.253906 153.875 309.023438 153.875 C 309.558594 153.875 310.09375 153.894531 310.632812 153.933594 C 310.941406 153.957031 311.230469 154.011719 311.5 154.089844 C 308.710938 150.84375 305.773438 147.742188 302.816406 144.753906 C 302.640625 144.972656 302.429688 145.164062 302.183594 145.328125 C 300.222656 146.605469 297.839844 146.800781 295.738281 146.984375 C 295.207031 147.027344 294.691406 147.070312 294.183594 147.128906 C 293.777344 147.179688 293.359375 147.226562 292.9375 147.273438 C 293.378906 147.621094 293.816406 147.972656 294.257812 148.316406 C 294.753906 148.3125 295.242188 148.304688 295.738281 148.304688 C 297.378906 148.304688 299.316406 148.371094 301.207031 148.855469 C 302.167969 149.105469 302.847656 149.988281 302.84375 151.003906 C 302.84375 151.972656 302.210938 152.785156 301.277344 153.027344 C 300.964844 153.105469 300.644531 153.175781 300.316406 153.238281 C 300.890625 153.710938 301.457031 154.183594 302.027344 154.664062 Z M 59.898438 166.003906 C 62.757812 166.191406 65.820312 166.414062 69.230469 166.671875 C 76.316406 161.171875 86.652344 156.957031 97.6875 154.988281 C 96.585938 154.914062 95.453125 154.8125 94.277344 154.703125 C 92.015625 154.496094 89.679688 154.28125 87.433594 154.28125 C 83.902344 154.28125 81.289062 154.816406 79.210938 155.964844 C 72.558594 159.644531 66.082031 163.007812 59.898438 166.003906 Z M 106.78125 169.800781 C 110.207031 170.078125 114.027344 170.378906 117.914062 170.660156 L 117.980469 170.625 C 120.183594 169.417969 122.367188 168.167969 124.546875 166.914062 C 127.410156 165.273438 130.371094 163.574219 133.351562 162.003906 C 137.390625 159.875 141.640625 157.800781 146.132812 156.234375 C 139 156.089844 132.492188 155.949219 126.203125 155.792969 L 120.347656 155.648438 C 115.480469 155.53125 110.492188 155.410156 105.511719 155.269531 C 105.941406 155.765625 106.210938 156.421875 106.261719 157.167969 C 106.386719 159.003906 105.125 160.574219 103.328125 160.816406 C 96.496094 161.742188 89.589844 164.050781 82.804688 167.683594 C 82.761719 167.707031 82.714844 167.726562 82.671875 167.757812 C 85.394531 167.984375 88.121094 168.214844 90.84375 168.449219 C 94.175781 166.902344 97.703125 165.53125 100.828125 164.316406 C 102.152344 163.804688 103.429688 163.304688 104.636719 162.820312 C 113.601562 159.203125 121.34375 157.59375 129.738281 157.59375 L 130.683594 157.597656 C 132.109375 157.621094 133.210938 158.710938 133.25 160.132812 C 133.289062 161.515625 132.265625 162.636719 130.875 162.734375 C 122.386719 163.324219 114.027344 166.527344 106.78125 169.800781 Z M 133.421875 171.625 C 135.125 171.710938 136.832031 171.785156 138.535156 171.863281 L 140.34375 171.941406 C 144.90625 169.019531 149.921875 166.726562 154.78125 164.511719 C 155.941406 163.980469 157.085938 163.457031 158.207031 162.933594 C 162.726562 160.820312 167.464844 158.765625 172.554688 156.699219 C 171.0625 156.671875 166.324219 156.589844 166.324219 156.589844 C 166.308594 156.746094 166.285156 156.894531 166.246094 157.042969 C 165.953125 158.191406 164.964844 158.933594 163.734375 158.933594 L 163.523438 158.933594 C 152.984375 158.933594 142.824219 164.949219 133.859375 170.257812 L 131.691406 171.535156 C 132.265625 171.566406 132.84375 171.601562 133.421875 171.625 Z M 213.066406 172.046875 C 214.761719 172.203125 216.601562 172.316406 218.421875 172.316406 C 220.921875 172.316406 223.09375 172.109375 225.019531 171.6875 C 224.765625 168.898438 224.703125 166.089844 224.730469 163.417969 C 223.867188 164.167969 222.972656 164.945312 221.976562 165.617188 L 221.671875 165.820312 C 219.109375 167.550781 216.460938 169.339844 214.019531 171.285156 C 213.699219 171.539062 213.382812 171.792969 213.066406 172.046875 Z M 158.355469 172.640625 L 159.464844 172.117188 C 161 171.410156 162.582031 170.671875 164.035156 169.871094 C 166.742188 168.367188 169.472656 166.78125 172.109375 165.25 C 173.964844 164.171875 175.816406 163.089844 177.679688 162.03125 C 172.214844 164.359375 166.765625 166.882812 161.382812 169.570312 C 159.550781 170.488281 157.691406 171.511719 155.855469 172.550781 C 156.6875 172.582031 157.519531 172.613281 158.355469 172.640625 Z M 176.972656 173.144531 C 179.675781 171.617188 182.5625 170.273438 185.359375 168.976562 C 188.074219 167.714844 190.636719 166.527344 193.03125 165.183594 C 197.847656 162.492188 202.789062 159.730469 207.871094 157.125 L 207.128906 157.117188 C 197.667969 159.191406 189.035156 164.507812 180.683594 169.652344 C 179.25 170.535156 177.820312 171.414062 176.398438 172.269531 C 175.957031 172.535156 175.503906 172.816406 175.046875 173.101562 C 175.6875 173.117188 176.332031 173.132812 176.972656 173.144531 Z M 309.539062 161.195312 C 315.855469 166.898438 321.308594 172.421875 326.050781 177.9375 C 325.585938 175.808594 324.667969 173.460938 323.300781 170.910156 C 320.703125 166.0625 317.570312 161.539062 314.148438 157.273438 C 314.164062 157.414062 314.171875 157.554688 314.171875 157.691406 C 314.171875 159.570312 312.804688 160.984375 310.847656 161.132812 C 310.414062 161.167969 309.976562 161.183594 309.539062 161.195312 Z M 245.8125 261.851562 C 246.800781 268.070312 246.765625 274.3125 246.425781 280.972656 C 260.757812 260.980469 276.957031 242.085938 292.65625 223.773438 C 302.332031 212.496094 312.320312 200.839844 321.769531 189.054688 C 309.425781 173.300781 292.859375 160 279.730469 150.128906 L 279.410156 149.890625 C 266.371094 140.082031 251.652344 129.015625 235.847656 124.460938 C 235.710938 129.449219 235.472656 134.472656 235.253906 139.351562 C 235.125 142.101562 235 144.851562 234.886719 147.601562 C 234.773438 150.484375 234.75 153.484375 234.730469 156.382812 C 234.6875 162.691406 234.636719 169.210938 233.640625 175.441406 C 233.347656 177.273438 231.578125 178.824219 229.773438 178.824219 C 229.746094 178.824219 229.628906 178.820312 229.601562 178.820312 C 228.257812 178.746094 226.800781 178.714844 225.007812 178.714844 C 224.601562 178.714844 224.199219 178.71875 223.796875 178.722656 C 223.765625 179.699219 223.46875 180.667969 222.925781 181.472656 C 222.140625 182.644531 220.9375 183.355469 219.511719 183.5 C 219.402344 183.527344 219.289062 183.539062 219.171875 183.539062 C 203.976562 183.507812 189.15625 183.308594 175.121094 182.941406 C 174.339844 183.085938 173.695312 183.175781 173.09375 183.226562 C 173.054688 183.230469 172.898438 183.238281 172.859375 183.238281 C 172.34375 183.238281 171.832031 183.101562 171.363281 182.832031 C 166.414062 182.695312 161.464844 182.507812 156.519531 182.320312 C 155.207031 182.585938 153.933594 182.726562 152.726562 182.726562 C 152.285156 182.726562 151.839844 182.707031 151.402344 182.671875 C 150.878906 182.628906 150.394531 182.421875 150 182.078125 C 146.09375 181.917969 142.1875 181.730469 138.28125 181.535156 C 137.210938 181.925781 136.304688 182.226562 135.441406 182.476562 C 135.203125 182.542969 134.957031 182.578125 134.707031 182.578125 C 133.984375 182.578125 133.273438 182.273438 132.757812 181.738281 C 132.605469 181.582031 132.476562 181.410156 132.367188 181.230469 L 116.816406 180.378906 C 111.550781 183.03125 107.230469 184.269531 103.242188 184.269531 C 101.726562 184.257812 100.53125 183.351562 100.140625 182.011719 C 99.867188 181.074219 100.054688 180.128906 100.617188 179.398438 C 96.574219 179.128906 92.761719 178.847656 89.058594 178.542969 C 86.5 179.492188 84.222656 180.015625 82.113281 180.132812 C 82.085938 180.136719 81.992188 180.136719 81.964844 180.136719 C 80.820312 180.136719 79.746094 179.390625 79.296875 178.265625 C 79.214844 178.0625 79.15625 177.855469 79.121094 177.644531 C 68.589844 176.597656 59.203125 175.328125 50.5625 173.777344 C 50.726562 174.011719 50.871094 174.261719 50.984375 174.539062 C 51.414062 175.5625 51.398438 176.742188 50.960938 177.707031 C 50.957031 177.800781 50.957031 177.90625 50.953125 178.023438 C 50.945312 179.070312 50.933594 180.117188 50.957031 181.160156 C 50.996094 182.933594 51.027344 184.707031 51.058594 186.476562 L 51.140625 190.898438 C 51.289062 198.304688 51.585938 205.832031 51.863281 213.113281 L 52.019531 217.101562 C 52.234375 222.757812 52.496094 228.414062 52.757812 234.070312 C 53.191406 243.5 53.644531 253.230469 53.871094 262.84375 C 58.300781 262.484375 62.734375 262.144531 67.164062 261.800781 C 78.785156 260.90625 90.800781 259.984375 102.597656 258.722656 C 105.871094 258.375 109.144531 258.015625 112.417969 257.660156 C 126.886719 256.078125 141.847656 254.449219 156.636719 253.535156 C 168.035156 252.828125 179.429688 252.734375 189.078125 252.734375 C 192.59375 252.734375 196.113281 252.746094 199.632812 252.761719 C 203.144531 252.773438 206.652344 252.789062 210.164062 252.789062 L 212.355469 252.789062 C 215.988281 252.78125 219.636719 252.714844 223.292969 252.652344 C 227.09375 252.582031 231.019531 252.515625 234.886719 252.515625 C 237.78125 252.515625 240.375 252.550781 242.8125 252.632812 C 244.328125 252.632812 245.621094 253.191406 246.519531 254.199219 C 247.484375 255.28125 247.953125 256.832031 247.773438 258.347656 C 247.6875 259.832031 246.960938 261.101562 245.8125 261.851562 Z M 239.757812 304.957031 C 238.304688 304.957031 236.996094 304.445312 236.074219 303.515625 C 235.171875 302.605469 234.703125 301.367188 234.71875 299.925781 C 234.761719 295.808594 235.082031 291.554688 235.386719 287.445312 C 236.003906 279.226562 236.632812 270.746094 235.136719 262.773438 C 232.65625 262.804688 230.179688 262.820312 227.695312 262.820312 C 220.140625 262.820312 212.457031 262.683594 205.027344 262.546875 C 197.609375 262.414062 189.9375 262.273438 182.402344 262.273438 C 172.742188 262.273438 164.710938 262.496094 157.136719 262.980469 C 144.898438 263.757812 132.320312 265.171875 120.15625 266.539062 C 101.515625 268.636719 82.246094 270.808594 63.335938 270.808594 C 57.449219 270.808594 51.738281 270.59375 46.367188 270.171875 C 44.703125 270.039062 43.410156 268.875 43.152344 267.269531 C 42.96875 266.148438 43.347656 265.082031 44.121094 264.371094 C 44.039062 254.238281 43.6875 243.9375 43.347656 233.972656 C 43.066406 225.644531 42.773438 217.03125 42.636719 208.550781 C 42.628906 208.222656 42.597656 207.527344 42.546875 206.554688 C 41.5625 186.660156 42.417969 176.433594 45.316406 173.390625 C 45.710938 172.980469 46.113281 172.714844 46.496094 172.550781 C 46.378906 172.453125 46.269531 172.351562 46.164062 172.242188 C 44.851562 172.792969 43.539062 173.335938 42.234375 173.859375 C 41.863281 174.003906 41.480469 174.078125 41.09375 174.078125 C 39.769531 174.078125 38.527344 173.191406 37.996094 171.867188 C 37.492188 170.617188 37.757812 169.289062 38.6875 168.398438 C 44.953125 162.398438 53.070312 158.632812 60.917969 154.992188 C 66.132812 152.574219 71.527344 150.074219 76.191406 146.976562 C 78.769531 145.257812 82.121094 144.460938 86.730469 144.460938 C 89.128906 144.460938 91.546875 144.667969 93.882812 144.867188 C 95.738281 145.027344 97.488281 145.179688 99.070312 145.210938 C 104.195312 145.3125 109.316406 145.449219 114.4375 145.585938 C 117.371094 145.667969 120.300781 145.742188 123.230469 145.8125 C 151.164062 146.5 188.023438 147.285156 225.417969 147.300781 C 225.449219 146.5625 225.480469 145.828125 225.5 145.101562 C 225.75 136.046875 225.742188 126.980469 225.730469 118.210938 C 225.730469 117.5 225.859375 116.8125 226.109375 116.179688 C 225.832031 116.078125 225.578125 115.910156 225.359375 115.691406 C 224.699219 115.03125 224.40625 114.179688 224.515625 113.226562 C 224.96875 109.160156 233.359375 103.09375 246.742188 94.632812 C 248.613281 93.445312 250.234375 92.421875 250.746094 92.019531 C 251.417969 91.496094 252.242188 91.222656 253.128906 91.222656 C 254.171875 91.222656 255.265625 91.605469 256.121094 92.285156 C 259.171875 94.6875 262.234375 97.070312 265.296875 99.453125 C 282.167969 112.582031 299.613281 126.160156 314.550781 142.351562 C 322.476562 150.933594 332.335938 161.617188 335.648438 174.007812 C 337.5 180.925781 336.402344 192.265625 329.621094 195.90625 C 320.296875 207.566406 310.417969 219.109375 300.863281 230.265625 C 281.371094 253.042969 261.210938 276.59375 244.816406 302.28125 C 243.761719 303.933594 241.820312 304.957031 239.757812 304.957031 " fill-opacity="1" fill-rule="nonzero"/></g></svg>