<?xml version="1.0" standalone="no"?>
<!DOCTYPE svg PUBLIC "-//W3C//DTD SVG 20010904//EN"
 "http://www.w3.org/TR/2001/REC-SVG-20010904/DTD/svg10.dtd">
<svg version="1.0" xmlns="http://www.w3.org/2000/svg"
 width="500.000000pt" height="200.000000pt" viewBox="0 0 500.000000 200.000000"
 preserveAspectRatio="xMidYMid meet">

<g transform="translate(0.000000,200.000000) scale(0.100000,-0.100000)"
fill="#000000" stroke="none">
<path d="M1614 1769 c-39 -11 -81 -57 -125 -138 -18 -33 -37 -61 -40 -61 -4 0
-9 14 -13 32 -3 18 -16 42 -28 55 l-21 23 -559 0 c-382 0 -566 -3 -580 -11
-47 -25 -48 -36 -48 -716 0 -587 1 -641 18 -673 9 -19 28 -40 42 -47 39 -20
1091 -18 1129 1 49 26 51 42 51 396 l0 329 111 193 c61 106 114 200 119 208
123 207 130 221 130 277 0 61 -41 117 -98 133 -42 11 -46 11 -88 -1z m101 -49
c34 -21 45 -44 45 -95 0 -59 -10 -59 -108 -3 -51 29 -91 57 -89 63 6 18 69 55
95 55 13 0 39 -9 57 -20z m-335 -90 c16 -16 20 -33 20 -85 0 -67 -5 -82 -67
-186 -55 -92 -238 -411 -255 -443 -29 -57 -61 -366 -38 -366 13 0 147 93 229
159 24 20 62 65 85 101 l41 65 3 -289 c2 -258 1 -291 -14 -308 -16 -17 -45
-18 -556 -18 -353 0 -546 4 -559 10 -18 10 -19 29 -19 680 l0 669 22 15 c20
14 89 16 555 16 520 0 534 -1 553 -20z m265 -50 c28 -16 56 -34 63 -38 16 -10
5 -42 -14 -42 -21 0 -174 93 -174 106 0 5 5 15 11 21 13 13 18 11 114 -47z
m-108 -41 c31 -20 33 -23 20 -43 -7 -11 -76 -130 -153 -264 -76 -134 -152
-264 -167 -290 -15 -26 -33 -57 -39 -69 -14 -28 -22 -29 -59 -2 -34 24 -37 13
62 183 84 143 79 134 190 329 56 97 104 177 106 177 3 0 21 -9 40 -21z m115
-67 l27 -18 -81 -139 c-44 -77 -94 -165 -111 -195 -16 -30 -33 -59 -38 -65 -4
-5 -40 -66 -79 -135 -39 -69 -73 -127 -76 -129 -8 -8 -75 31 -71 42 4 10 132
235 287 502 70 122 92 155 103 155 7 0 24 -8 39 -18z m-470 -672 c37 -23 68
-44 68 -48 0 -4 -16 -20 -36 -35 -32 -26 -37 -27 -52 -14 -9 9 -29 20 -45 26
-24 10 -27 15 -27 61 0 32 4 50 12 50 6 0 42 -18 80 -40z m-62 -118 l23 -19
-32 -22 c-18 -13 -34 -21 -36 -19 -7 7 7 78 15 78 4 0 18 -8 30 -18z"/>
<path d="M455 1380 c-17 -27 18 -30 371 -30 357 0 364 0 364 20 0 20 -7 20
-364 20 -233 0 -367 -4 -371 -10z"/>
<path d="M452 1103 c3 -17 27 -18 328 -18 301 0 325 1 328 18 3 16 -18 17
-328 17 -310 0 -331 -1 -328 -17z"/>
<path d="M452 833 c3 -17 24 -18 278 -18 254 0 275 1 278 18 3 16 -15 17 -278
17 -263 0 -281 -1 -278 -17z"/>
<path d="M453 575 c-3 -9 -1 -21 4 -26 5 -5 111 -8 259 -7 241 3 249 4 249 23
0 19 -8 20 -253 23 -223 2 -253 0 -259 -13z"/>
<path d="M2214 1379 c-94 -36 -164 -116 -164 -187 0 -39 35 -82 66 -82 27 0
32 15 9 24 -25 9 -35 50 -23 93 13 49 81 115 135 131 65 19 156 16 185 -8 48
-37 41 -119 -12 -164 -30 -24 -39 -46 -20 -46 23 0 78 -62 84 -94 8 -44 -18
-110 -54 -136 -34 -25 -97 -35 -132 -21 -27 10 -27 10 -12 47 9 21 29 98 45
172 18 84 38 151 54 178 24 40 24 44 7 44 -25 0 -67 -46 -91 -100 -16 -37 -91
-278 -91 -294 0 -2 -26 -2 -59 1 -50 5 -61 3 -80 -16 -27 -27 -27 -65 0 -92
31 -31 118 -23 157 14 27 26 27 26 80 11 97 -29 198 10 236 90 36 76 7 151
-73 192 l-44 22 29 15 c43 22 65 51 71 94 14 106 -155 169 -303 112z m-40
-480 c5 -4 -3 -19 -18 -34 -30 -29 -63 -30 -80 -2 -24 39 60 70 98 36z"/>
<path d="M2717 1290 c-86 -75 -132 -302 -82 -399 31 -62 99 -61 145 1 l22 30
18 -30 c25 -41 79 -58 117 -38 26 13 53 53 67 99 3 9 14 17 25 17 14 0 21 -9
26 -37 7 -44 21 -65 52 -82 26 -13 66 -6 84 15 17 20 28 17 22 -6 -3 -10 -29
-33 -59 -49 -72 -42 -95 -89 -58 -125 18 -18 76 -21 105 -6 24 13 55 74 64
125 5 26 21 54 45 80 46 50 76 94 95 139 23 54 -1 54 -29 -1 -13 -26 -38 -64
-55 -83 l-30 -35 0 35 c0 19 6 64 13 100 8 36 10 69 6 74 -5 4 -22 2 -39 -7
-27 -14 -31 -13 -47 4 -36 40 -106 15 -142 -50 -34 -59 -72 -76 -72 -30 0 9
-8 27 -19 40 -16 20 -21 21 -35 10 -21 -17 -20 -55 1 -92 16 -27 16 -31 0 -64
-9 -20 -24 -38 -34 -42 -23 -9 -53 32 -53 71 1 42 32 108 64 133 31 25 34 43
6 43 -52 0 -110 -52 -131 -118 -15 -48 -60 -120 -79 -127 -28 -11 -50 32 -50
99 l0 61 55 48 c87 76 121 170 77 210 -27 25 -57 21 -95 -13z m83 -36 c0 -14
-7 -41 -15 -58 -18 -37 -82 -103 -91 -94 -9 9 22 107 46 146 25 40 60 44 60 6z
m421 -188 c21 -46 -29 -186 -66 -186 -31 0 -34 104 -5 168 22 49 54 57 71 18z
m-36 -320 c-20 -41 -43 -53 -63 -32 -13 13 -13 17 -1 32 20 25 73 55 77 44 2
-5 -4 -25 -13 -44z"/>
</g>
</svg>
