<?xml version="1.0" standalone="no"?>
<!DOCTYPE svg PUBLIC "-//W3C//DTD SVG 20010904//EN"
 "http://www.w3.org/TR/2001/REC-SVG-20010904/DTD/svg10.dtd">
<svg version="1.0" xmlns="http://www.w3.org/2000/svg"
 width="225.000000pt" height="250.000000pt" viewBox="0 0 225.000000 250.000000"
 preserveAspectRatio="xMidYMid meet">

<g transform="translate(0.000000,250.000000) scale(0.100000,-0.100000)"
fill="#000000" stroke="none">
<path d="M1944 2236 c-38 -17 -94 -82 -143 -167 -42 -72 -56 -81 -65 -42 -4
15 -18 45 -32 66 l-25 39 -707 -4 c-547 -2 -712 -6 -729 -16 -47 -26 -48 -45
-48 -897 0 -871 -3 -828 55 -880 20 -18 44 -20 348 -28 329 -9 1049 3 1085 18
10 4 25 22 35 39 15 28 17 77 20 449 l4 418 170 297 c260 452 268 465 274 500
28 147 -110 265 -242 208z m137 -59 c44 -30 60 -62 57 -117 -3 -43 -4 -45 -33
-44 -27 2 -138 60 -190 99 -25 19 -13 40 35 67 46 24 90 23 131 -5z m-450 -97
c23 -6 40 -19 47 -36 16 -34 15 -133 -2 -180 -7 -22 -87 -165 -176 -319 -219
-377 -226 -392 -245 -505 -22 -136 -31 -320 -16 -320 14 0 161 98 245 163 64
51 105 95 158 175 l35 52 6 -82 c11 -131 8 -579 -3 -619 -7 -25 -18 -39 -33
-43 -12 -3 -322 -6 -688 -6 -559 0 -668 2 -685 14 -18 14 -19 36 -22 843 -4
918 -9 847 61 863 49 12 1275 12 1318 0z m359 -71 c72 -42 90 -58 90 -76 0
-37 -37 -29 -131 27 -107 65 -117 74 -99 95 18 22 35 16 140 -46z m-100 -87
c0 -8 -97 -184 -217 -391 -119 -207 -223 -388 -232 -403 -8 -16 -24 -28 -34
-28 -28 0 -67 30 -67 53 0 12 44 95 97 186 53 92 155 267 226 391 71 124 134
231 139 237 8 10 19 8 49 -9 22 -12 39 -28 39 -36z m117 -53 l33 -21 -19 -31
c-11 -18 -78 -133 -149 -257 -212 -370 -303 -524 -312 -534 -10 -10 -64 9 -81
30 -12 15 -8 23 254 479 178 309 207 355 226 355 7 0 29 -9 48 -21z m-618
-824 c36 -20 77 -44 91 -55 l25 -19 -23 -24 c-46 -49 -64 -52 -118 -21 -27 15
-52 33 -56 39 -15 20 -7 115 9 115 3 0 35 -16 72 -35z m-51 -161 c30 -21 28
-29 -12 -53 -45 -28 -49 -27 -41 16 11 59 16 63 53 37z"/>
<path d="M603 1763 c-69 -3 -93 -7 -93 -17 0 -8 16 -16 38 -20 61 -10 855 -7
872 4 12 7 12 12 2 22 -10 10 -92 13 -370 14 -196 0 -399 -1 -449 -3z"/>
<path d="M527 1423 c-10 -3 -16 -10 -14 -16 5 -17 799 -17 804 -1 2 6 -6 14
-19 18 -26 7 -744 6 -771 -1z"/>
<path d="M514 1079 c-3 -6 0 -15 7 -20 16 -10 664 -8 674 3 4 4 4 11 0 17 -9
16 -671 15 -681 0z"/>
<path d="M568 763 c-58 -4 -79 -21 -53 -43 19 -16 609 -10 626 7 8 8 7 13 -7
21 -20 10 -467 22 -566 15z"/>
</g>
</svg>
