<svg xmlns="http://www.w3.org/2000/svg" width="700.566" height="901.038"><path d="M29.271 931.044c-.89-2.421.073-4.174 2.295-4.174 1.021 0 1.69 1.212 1.69 3.06 0 3.423-2.843 4.218-3.985 1.114zm54.695-8.033c.842-2.665 11.897-2.866 13.935-.253 1.488 1.907 1.418 2.028-.69 1.196-4.872-1.924-8.6-2.179-11.14-.76-2.132 1.19-2.529 1.155-2.105-.183zm-32.227-.762c-10.165-.186-18.482-.736-18.481-1.224 0-.488 5.941-.782 13.201-.654 7.26.128 18.085.265 24.055.306 5.97.04 10.853.486 10.851.99-.004 1.017-2.778 1.072-29.626.582zm54.273-.473c0-.564 3.52-1.026 7.823-1.026 4.302 0 7.515.32 7.139.713-1.102 1.15-14.962 1.44-14.962.313zm-82.143-.94c0-.624 1.846-1.038 4.102-.917 5.346.285 5.35 2.055.005 2.055-2.259 0-4.107-.512-4.107-1.137zm11.148-4.869c-8.449-1.045-2.946-2.235 6.454-1.396 5.797.518 6.924.896 4.694 1.577-1.614.493-3.462.817-4.107.72-.646-.096-3.814-.502-7.041-.9zm23.776.245c1.46-.293 3.572-.282 4.694.025 1.122.306-.072.546-2.654.532-2.581-.014-3.5-.264-2.04-.557zm-34.044-1.17c.807-.339 2.127-.339 2.934 0 .807.34.147.618-1.467.618s-2.274-.277-1.467-.617zm82.73-.052c-3.972-.798-3.176-2.467.88-1.846 1.936.297 3.52 1.028 3.52 1.624 0 .597-.396 1.01-.88.919-.484-.092-2.068-.406-3.52-.697zm5.574-.666c0-1.296 4.42-1.147 5.203.176.356.601-.668 1.014-2.277.918-1.609-.097-2.925-.59-2.926-1.094zm-12.486-8.318c-.067-2.635.34-4.494.902-4.132 1.249.806 1.313 5.487.102 7.473-.49.805-.937-.683-1.004-3.34zm3.417.055c0-3.03.23-4.269.509-2.754.28 1.515.28 3.993 0 5.508-.28 1.515-.509.276-.509-2.754zm173.538-4.896c0-1.683.267-2.372.592-1.53.326.841.326 2.218 0 3.06-.325.841-.592.153-.592-1.53zm-180.116-6.937c-1.37-1.429-.843-4.952.978-6.528 1.11-.96 1.76-1.043 1.76-.222 0 .716-.55 1.656-1.221 2.089-.672.433-.9 1.843-.508 3.132.734 2.41.368 2.965-1.009 1.53zm179.51-3.113c-.396-1.542-.653-5.557-.57-8.923.138-5.597.224-5.388 1.008 2.448.903 9.021.76 11.139-.439 6.475zm-.567-18.104c0-1.683.266-2.371.592-1.53.325.842.325 2.219 0 3.06-.326.842-.592.153-.592-1.53zm-174.939-7.68c-.092-4.582-.057-4.617 4.308-4.37 2.42.139 8.493-.188 13.495-.725 6.295-.676 9.094-.571 9.094.342 0 .725-1.452 1.317-3.227 1.316-9.532-.006-11.928.336-13.152 1.875-.977 1.229-2.307 1.403-4.866.637-2.467-.738-3.65-.615-3.953.41-1.368 4.63-1.615 4.705-1.699.515zm168.94 1.665c-.72-1.405-.82-2.553-.22-2.553 1.206 0 2.87 3.707 2.05 4.564-.286.298-1.11-.607-1.83-2.011zm5.814-.033c0-.633.528-1.492 1.173-1.908.646-.416 1.174.102 1.174 1.152 0 1.05-.528 1.908-1.174 1.908a1.166 1.166 0 0 1-1.173-1.152zm-180.196-5.68c-2.084-1.772-2.095-1.876-.128-1.224 1.182.391 2.634.712 3.227.712.592 0 1.077.55 1.077 1.224 0 1.772-1.568 1.505-4.176-.712zm-71.873-.623c.377-1.189 2.88-1.841 8.046-2.097 8.388-.415 9.185.612 1.066 1.374-2.877.27-6.227.931-7.445 1.47-1.64.725-2.072.531-1.667-.747zm56.866.047c-9.02-1.573-7.929-2.495 2.51-2.119 5.285.19 9.615.76 9.621 1.265.006.504-.737.918-1.653.918-.915 0-2.367.209-3.227.464-.86.255-4.123.018-7.251-.528zm49.693.087c0-.686 1.672-1.248 3.716-1.248 4.273 0 4.118.535-.489 1.688-1.916.48-3.227.3-3.227-.44zm39.898-6.497c-.323-.318-23.557-1.028-51.632-1.577-28.076-.549-53.422-1.11-56.327-1.248-2.904-.137-12.805-.304-22.002-.372-12.532-.091-16.722-.505-16.723-1.652 0-1.52 23.672-1.614 50.46-.2 20.842 1.1 109.566 2.819 110.613 2.143.604-.389 1.843-2.43 2.753-4.538l1.655-3.831-.753 4.896c-.414 2.693-.898 5.074-1.075 5.292-.555.683-16.353 1.696-16.969 1.087zm45.765-.849c-2.04-.666-.733-.913 4.297-.81 3.977.08 6.982.567 6.678 1.08-.69 1.163-7.066 1.007-10.975-.27zm22.296-.118c-2.425-.73-2.12-.89 1.76-.92 2.582-.02 5.75.431 7.04 1.002 1.86.823 1.496 1.014-1.76.92-2.258-.065-5.427-.516-7.04-1.002zm19.655.435c2.098-.272 5.53-.272 7.628 0 2.097.271.381.493-3.814.493s-5.911-.222-3.814-.493zm-65.854-1.6c.8-.835 2.169-.862 4.049-.078 2.667 1.113 2.594 1.189-1.21 1.262-2.778.053-3.669-.318-2.839-1.184zm7.792.522c.39-.407 1.402-.45 2.25-.097.936.39.658.68-.71.74-1.236.053-1.93-.237-1.54-.643zm19.65-8.208c-.012-1.36-.542-1.877-1.373-1.34-.84.54-1.037.335-.518-.54.925-1.561 4.23-1.95 4.201-.495-.01.504-.53 1.744-1.155 2.754-.965 1.556-1.14 1.499-1.156-.379zm-27.996-19.206c0-1.683.266-2.372.592-1.53.325.841.325 2.218 0 3.06-.326.841-.592.153-.592-1.53zm-.093-7.855c-.051-1.29.226-2.013.616-1.606.39.406.432 1.462.093 2.346-.375.976-.653.686-.71-.74zm-.056-9.282c-.327-7.181-.101-11.311.665-12.139 1.146-1.239 1.263 1.112.48 9.69-.835 9.149-.839 9.157-1.145 2.449zm-3.54 1.224c-.23-1.683-.536-3.887-.68-4.897a58.387 58.387 0 0 1-.386-4.017c-.068-1.2-1.313-2.68-2.765-3.289-2.527-1.06-2.5-1.11.624-1.184 3.995-.095 4.62 1.42 4.06 9.86-.24 3.623-.624 5.21-.854 3.527zm-92.72-14.675c-5.792-.598-3.814-.798 8.214-.831 11.168-.031 14.284.237 10.56.908-5.891 1.062-7.821 1.054-18.775-.077zm25.67-.162c-.998-.677 2.56-.986 9.306-.81 6.006.158 11.55.715 12.321 1.239.77.523-3.417.887-9.306.809-5.889-.079-11.433-.636-12.321-1.238zm33.312.494c1.784-.282 4.424-.274 5.867.016 1.444.291-.016.521-3.243.512-3.227-.009-4.408-.247-2.624-.528zm-120.003-1.57c-15.993-.878-7.278-1.993 12.322-1.576 9.035.192 17.985.332 19.887.312 1.902-.02 3.056.384 2.563.898-1.03 1.075-18.503 1.26-34.772.366zm49.603.484c.39-.406 1.403-.45 2.25-.096.936.39.658.68-.71.74-1.236.053-1.93-.237-1.54-.643zm-4.693-1.224c.39-.406 1.402-.45 2.249-.096.936.39.658.68-.71.74-1.236.053-1.93-.237-1.54-.644zm4.03-2.476c-.405-.423-3.005-.721-5.778-.663-2.774.058-5.745-.347-6.604-.901-2.342-1.51 7.754-1.469 13.474.055 3.93 1.047 5.38.932 7.627-.604 2.824-1.931 3.11-5.22 2.204-25.273-.076-1.683-.132-8.719-.125-15.635.007-6.917-.248-13.288-.568-14.157-.367-.999-2.19-1.449-4.946-1.221-4.675.385-13.385-1.614-9.045-2.076 1.29-.138 2.652-.217 3.025-.176.373.042 3.375.204 6.672.36 7.356.35 7.397.465 7.47 21.084.029 8.185.18 17.36.336 20.39.157 3.03-.155 6.439-.692 7.576-.57 1.21-.488 2.382.2 2.826 2.136 1.377 1.226 5.196-1.715 7.206-2.85 1.948-10.098 2.707-11.535 1.209zm31.88.205c-.261-.273-3.273-.752-6.692-1.065-3.419-.312-6.579-.952-7.022-1.422-1.046-1.11-.317-54.818.76-55.97 1.134-1.212 36.874-1.945 44.787-.918 4.73.614 1.754.916-11.148 1.129-9.681.16-19.45.226-21.71.147-2.258-.08-5.58.29-7.382.82l-3.275.962-.579 24.283c-.318 13.356-.26 25.328.128 26.604.538 1.77 1.87 2.341 5.614 2.407 5.653.099 10.041 1.556 8.22 2.73-.673.434-1.439.566-1.7.293zm16.578-.661c2.306-1.555 5.867-1.555 5.867 0 0 .673-1.716 1.215-3.814 1.205-2.894-.014-3.389-.305-2.053-1.205zm20.535 0c.4-.673 1.222-1.224 1.83-1.224.607 0 1.104.55 1.104 1.224 0 .673-.823 1.224-1.83 1.224-1.006 0-1.503-.551-1.104-1.224zm4.694 0c-.399-.673.098-1.224 1.104-1.224 1.007 0 1.83.55 1.83 1.224 0 .673-.497 1.224-1.104 1.224-.608 0-1.431-.551-1.83-1.224zm13.495 0c-4.06-.892-4.067-.904-.587-1.044 1.936-.079 4.313.391 5.28 1.044 1.955 1.317 1.306 1.317-4.693 0zm21.122 0-4.107-.902 4.4-.161c2.421-.089 4.401.39 4.401 1.063 0 .673-.132 1.151-.293 1.063-.162-.089-2.142-.567-4.4-1.063zm7.812-.306c.75-1.273 6.27-1.159 6.27.13 0 .577-1.532.99-3.405.918-1.873-.072-3.162-.543-2.865-1.048zm18.005.267c0-.652.792-1.185 1.76-1.185s1.76.216 1.76.48c0 .265-.792.799-1.76 1.186-.968.388-1.76.171-1.76-.48zm18.777-.136c-.004-1.538 3.891-2.311 7.796-1.547 6.383 1.249 5.61 2.664-1.36 2.492-3.539-.087-6.435-.512-6.436-.945zm17.284.596c.795-.335 2.379-.356 3.52-.045 1.142.31.492.584-1.444.61-1.936.024-2.87-.23-2.076-.565zm6.77-.421c.399-.673 1.517-1.224 2.485-1.224s1.434.55 1.035 1.224c-.399.673-1.517 1.224-2.485 1.224s-1.434-.551-1.035-1.224zm-235.119-1.013c-2.369-1.687.713-2.544 4.81-1.337 1.767.52 3.484.487 3.816-.074.955-1.611 11.904-2.792 14.287-1.54 1.186.622 3.476.775 5.09.339 3.274-.885 8.214-.225 8.214 1.096 0 .472-4.62.93-10.268 1.016-5.647.087-13.436.492-17.308.899-3.873.407-7.761.228-8.64-.399zm39.15-.211c-.398-.674.099-1.224 1.105-1.224s1.83.55 1.83 1.224c0 .673-.498 1.224-1.105 1.224s-1.43-.551-1.83-1.224zm119.425.484c.39-.407 1.402-.45 2.249-.096.936.39.658.68-.709.74-1.237.052-1.93-.237-1.54-.644zm40.753.2c0-.297.528-.88 1.174-1.296.645-.416 1.173-.174 1.173.54 0 .712-.528 1.296-1.173 1.296-.646 0-1.174-.243-1.174-.54zm3.523-.99c-.002-.505 1.582-.918 3.518-.918 1.936 0 3.52.471 3.52 1.048 0 .577-1.583.99-3.517.918-1.935-.072-3.52-.543-3.52-1.048zm37.646 1.09c1.383-1.244 7.068-1.986 6.386-.833-.415.7-2.132 1.273-3.815 1.273-1.683 0-2.84-.198-2.57-.44zm19.538-2.16c.796-.837 1.743-1.213 2.105-.836.36.377-.29 1.061-1.448 1.521-1.672.664-1.807.524-.657-.685zm3.834.152c0-.674.528-1.224 1.173-1.224.646 0 1.174.55 1.174 1.224 0 .673-.528 1.224-1.174 1.224-.645 0-1.173-.551-1.173-1.224zm-15.163-5.407c-.05-1.29.227-2.013.617-1.606.39.406.431 1.462.092 2.346-.374.976-.652.686-.709-.74zm4.21.918c-.43-.448-.698-5.544-.596-11.322l.186-10.507.789 11.017c.84 11.738.83 12.072-.379 10.812zm-5.247-23.053c-.024-2.02.22-2.994.541-2.165.321.828.341 2.48.043 3.672-.297 1.19-.56.513-.584-1.507zm3.669-15.35-.014-11.58 1.158 8.906c.753 5.794.758 9.84.014 11.58-.845 1.974-1.148-.36-1.158-8.905zm-4.289 1.681c-.43-.448-.782-1.385-.782-2.08 0-.768.546-.695 1.388.183.764.797 1.116 1.733.783 2.081-.334.348-.959.265-1.389-.184zm-.547-9.588c0-2.353.475-3.971 1.056-3.597.58.375 1.056 1.993 1.056 3.597 0 1.603-.475 3.222-1.056 3.596-.581.375-1.056-1.244-1.056-3.596zm-56.561-4.284c-1.431-.965-1.28-1.19.81-1.206 1.414-.01 2.898.532 3.297 1.206.923 1.558-1.796 1.558-4.107 0zM30.91 730.786c0-.465.474-1.152 1.053-1.525 1.347-.868 18.896.648 18.896 1.632 0 .406-4.489.739-9.975.739s-9.974-.381-9.974-.846zm21.72.254c-.405-.685.087-1.245 1.093-1.245 2.061 0 2.365.735.737 1.784-.6.388-1.424.145-1.83-.54zm13.777.393c-.807-.34-1.467-1.155-1.467-1.812s.613-.8 1.361-.317c.748.483 3.52.798 6.16.701 3.489-.128 4.32.15 3.04 1.013-1.847 1.247-6.6 1.464-9.094.415zm90.063.341c0-1.038 5.967-1.576 6.552-.59.345.583-.988 1.06-2.962 1.06-1.974 0-3.59-.212-3.59-.47zm11.703-.708c1.781-1.175 14.962-.793 16.172.469.374.39-3.5.7-8.61.69-6.197-.013-8.715-.398-7.562-1.159zm-109.98-.89c1.13-.308 2.978-.308 4.107 0 1.13.308.205.56-2.054.56-2.258 0-3.183-.252-2.053-.56zm84.157-7.403c-.947-.16-8.85-.552-17.563-.87l-18.189-.668c-1.29-.048-10.928.068-21.416.258-10.487.19-19.068-.067-19.068-.572 0-.505 2.772-.99 6.16-1.079 3.389-.088 11.178-.295 17.309-.46 6.131-.164 12.68-.723 14.552-1.242 2.263-.627 4.23-.383 5.867.728 1.918 1.302 9.22 1.68 32.974 1.71 33.759.041 38.662-.343 38.836-3.044.065-.998.214-3.468.332-5.487.165-2.841.456-3.24 1.284-1.765.659 1.173.59 3.88-.178 7.038-1.045 4.292-1.753 5.168-4.333 5.354-4.765.345-34.63.426-36.567.099zm48.917.069c-.422-.44-.766-1.6-.766-2.58 0-1.388.363-1.468 1.64-.363 1.083.937 8.24 1.465 21.084 1.554 10.695.074 19.198.553 18.895 1.064-.673 1.135-39.779 1.446-40.853.325zm43.294-.298c-.697-1.177 13.237-.713 14.378.478.345.36-2.599.653-6.54.653-3.943 0-7.47-.51-7.838-1.131zm24-.031c4.196-.475 8.05-.492 8.564-.038.514.454-2.918.843-7.628.863l-8.563.037zm18.121-.177c-.361-.61.694-1.109 2.346-1.109 3.596 0 3.886.698.657 1.578-1.29.352-2.641.141-3.003-.469zm24.124.008c-3.55-.395 6.352-.808 22.003-.918 15.65-.11 28.852-.239 29.336-.287 1.155-.116 8.861-6.157 9.911-7.769.449-.689 1.24-.81 1.758-.27s-.113 1.762-1.403 2.715c-1.29.953-3.508 2.868-4.929 4.256-2.416 2.36-4.132 2.539-26.403 2.758-13.1.128-26.723-.09-30.273-.485zM25.63 721.227c-2.347-1.052-2.347-1.052 0-1.12 1.291-.036 3.14.467 4.107 1.12 1.565 1.055 1.565 1.18 0 1.12-.968-.038-2.816-.541-4.107-1.12zm9.119.485c.39-.407 1.402-.45 2.25-.097.935.39.657.68-.71.74-1.237.053-1.93-.237-1.54-.643zm4.376-.485c0-.673.528-1.224 1.174-1.224.645 0 1.173.55 1.173 1.224 0 .673-.528 1.224-1.173 1.224-.646 0-1.174-.55-1.174-1.224zm6.454-.028c4.896-1.26 10.898-1.384 11.577-.238.313.528-2.956 1-7.265 1.051-5.637.067-6.846-.16-4.312-.813zm14.353.45c.794-.336 2.378-.357 3.52-.046 1.142.31.492.584-1.444.61-1.937.024-2.87-.23-2.076-.565zm225.62-.176c0-.538 1.849-.753 4.108-.478 2.258.275 4.107.715 4.107.978s-1.849.478-4.107.478c-2.26 0-4.108-.44-4.108-.978zm84.49-.246c-1.505-1.014-1.462-1.19.293-1.205 1.13-.01 2.054.532 2.054 1.205 0 1.493-.133 1.493-2.347 0zm23.153.421c.795-.335 2.379-.356 3.52-.045 1.142.31.492.584-1.444.61-1.936.024-2.87-.23-2.076-.565zm-203.71-19.7c-.116-8.584-.527-18.741-.914-22.573-.719-7.118.205-15.685 1.69-15.671.455.004.94 12.122 1.08 26.93.138 14.806-.176 26.92-.697 26.92-.521 0-1.043-7.022-1.159-15.606zm177.19-9.723c-.15-25.392-.1-25.982 2.416-27.82 3.395-2.48 4.25-1.388 1.445 1.846-1.993 2.297-2.209 4.412-2.025 19.899.113 9.53-.22 20.633-.738 24.672-.69 5.363-.986.346-1.098-18.597zm-4.983-.682c-.074-10.94-.044-20.833.066-21.985.11-1.151-.375-3.217-1.08-4.59-1.353-2.639.336-3.635 1.846-1.087 1.22 2.06 1.533 47.553.326 47.553-.562 0-1.083-8.95-1.158-19.89zm-178.416-12.24c-.102-.842-.297-4.359-.434-7.816-.137-3.456-.655-6.97-1.152-7.809-.589-.994-.336-1.328.728-.96 1.145.397 1.728 3.175 1.961 9.34.182 4.826.05 8.775-.293 8.775-.344 0-.708-.689-.81-1.53zM65.527 665.347c-3.055-1.202-6.538-1.59-9.974-1.112-6.611.92-31.684-.558-31.684-1.868 0-1.59 39.914-.916 45.41.766 2.709.83 5.138 1.286 5.399 1.014.26-.272 9.503-.623 20.537-.779 17.182-.243 19.64-.053 17.115 1.326-2.642 1.443-8.894 1.691-30.961 1.228-1.614-.033-4.782.239-7.041.605-2.368.384-6.094-.115-8.801-1.18zm76.275-.427c-2.08-.932-1.98-1.062.88-1.138 1.775-.047 3.227.465 3.227 1.138 0 1.437-.902 1.437-4.107 0zm5.28.166c0-1.775 5.107-3.051 9.057-2.264 1.73.345 4.47.103 6.087-.538 2.716-1.078 12.65-.243 11.493.965-.282.294-5.202.776-10.934 1.071-5.732.296-11.61.891-13.062 1.323-1.592.474-2.64.253-2.64-.557zm79.21-.166c-.4-.673.097-1.224 1.104-1.224 1.006 0 1.83.55 1.83 1.224 0 .673-.498 1.224-1.105 1.224s-1.43-.55-1.83-1.224zm-100.845-.944c-.409-.426-2.705-.656-5.102-.512-3.237.195-3.906-.052-2.599-.958 2.041-1.416 6.637-1.491 9.889-.162 1.923.786 1.984 1.035.408 1.666-1.02.407-2.188.393-2.596-.034zm5.207-.28c0-.673.497-1.224 1.104-1.224.608 0 1.431.55 1.83 1.224.399.673-.098 1.224-1.104 1.224-1.007 0-1.83-.55-1.83-1.224zm5.012.484c.39-.406 1.402-.45 2.249-.096.936.39.658.68-.709.74-1.237.053-1.93-.237-1.54-.644zm65.714 0c.39-.406 1.402-.45 2.249-.096.936.39.658.68-.709.74-1.237.053-1.93-.237-1.54-.644zm29.336 0c.39-.406 1.402-.45 2.25-.096.936.39.658.68-.71.74-1.236.053-1.93-.237-1.54-.644zm149.886-.484c.968-.653 3.872-1.13 6.454-1.06 4.521.12 4.565.16 1.173 1.06-1.936.514-4.84.991-6.454 1.06-2.302.1-2.555-.129-1.173-1.06zm-51.433-2.46c.213-.666.783-1.212 1.267-1.212h4.01c3.96 0 3.268.65-1.757 1.649-2.382.474-3.757.303-3.52-.436zm16.229.696c0-.297.528-.88 1.173-1.296.646-.416 1.174-.173 1.174.54 0 .712-.528 1.296-1.174 1.296-.645 0-1.173-.243-1.173-.54zm-268.944-4.995c-.392-.408-9.61-.767-20.488-.798-14.145-.04-18.44-.359-15.082-1.12 6.648-1.51 27.668-2.217 33.396-1.125 4.136.789 5.064.556 6.54-1.644.948-1.41 1.741-3.405 1.764-4.433.062-2.722 5.812-9.809 5.82-7.172.003 1.124-.714 3.603-1.594 5.509-.88 1.906-2.35 5.118-3.266 7.137-1.54 3.395-5.42 5.389-7.09 3.646zm-52.585-1.918c0-.862 1.726-1.081 4.881-.621 6.815.994 7.107 1.953.595 1.953-3.166 0-5.476-.562-5.476-1.332zm70.344 1.004c-.035-.156-.365-11.912-.733-26.124l-.67-25.84 2.787-.75c1.533-.411 3.687-2.416 4.786-4.454l1.999-3.707h19.934c12.786 0 20.21.466 20.704 1.299.53.893-4.114 1.245-14.893 1.127-22.688-.249-21.904-.357-25.409 3.51-1.738 1.918-4.099 3.834-5.245 4.258-1.904.704-2.075 2.786-1.97 23.977.08 16.268.528 23.526 1.498 24.278.76.59 25.76 1.031 55.553.98 29.793-.051 53.94.294 53.66.768-.444.749-111.834 1.424-112 .678zm117.41-.768c-5.13-1.49.269-2.53 6.016-1.158 2.823.673 8.96 1.033 13.64.798 4.679-.235 8.507-.003 8.507.515 0 1.157-24.101 1.025-28.163-.155zm40.548-.02c-.5-.844.477-1.332 2.664-1.332 2.406 0 3.63-.705 4.036-2.326.321-1.28 1.703-2.952 3.07-3.716 2.848-1.59 3.363.089.728 2.37-.968.838-1.76 2.283-1.76 3.21 0 .928-.66 1.694-1.467 1.703-.807.01-2.596.333-3.975.719-1.38.386-2.862.103-3.296-.629zm47.439-.136c2.265-.556 4.878-.516 5.867.088 1.201.734-.133 1.061-4.084 1.002-5.652-.085-5.717-.125-1.783-1.09zm13.695.327c-.302-.508 3.644-1.034 8.767-1.167 5.67-.148 9.045.214 8.624.925-.815 1.375-16.59 1.595-17.391.242zm-41.287-3.084c-.369-1.531-.51-14.338-.316-28.46l.355-25.674 4.401-2.243c2.421-1.234 5.062-1.974 5.868-1.645.806.33-.75 1.549-3.459 2.71l-4.923 2.11-.08 26.319c-.053 17.952.346 26.852 1.255 27.994 1.033 1.298.91 1.674-.55 1.674-1.034 0-2.183-1.253-2.551-2.785zm65.166 1.638c0-.635 1.963-.83 4.4-.438 6.093.98 6.28 1.585.49 1.585-2.69 0-4.89-.516-4.89-1.147zm24.984.383c1.12-1.168 70.066-1.417 70.066-.253 0 .56-15.93 1.017-35.4 1.017-19.469 0-35.069-.344-34.666-.764zm-97.739-14.237c0-1.01.792-2.521 1.76-3.36 1.432-1.239 1.76-1.18 1.76.313 0 1.01-.792 2.522-1.76 3.36-1.431 1.239-1.76 1.18-1.76-.313zm-178.611-5.77c-.296-2.1-.043-4.136.56-4.526 1.334-.86.797-28.269-.614-31.354-.896-1.96-2.439-2.125-15.31-1.642-7.873.296-15.37.076-16.662-.488-1.41-.616 5.022-1.06 16.113-1.112 18.206-.085 18.469-.048 19.09 2.668 1.165 5.089.067 37.454-1.32 38.898-.977 1.018-1.46.385-1.857-2.443zm-43.868-4.173c-.938-2.55.282-4.28 2.753-3.901 1.127.172 2.049 1.355 2.049 2.628 0 2.837-3.85 3.858-4.802 1.273zm274.567-33.285c.395-1.073.718-2.18.718-2.462 0-.282.775-.512 1.723-.512 2.157 0 1.119 3.212-1.358 4.204-1.29.516-1.597.168-1.083-1.23zm-171.061-.751c.356-.602 5.753-1.08 11.992-1.064 6.24.016 12.4-.06 13.69-.171 1.292-.11 4.724-.024 7.628.192 4.851.36 4.613.47-2.933 1.362-10.875 1.284-31.2 1.07-30.377-.319zm-121.587-1.022c0-.74 1.311-.92 3.227-.44 4.607 1.153 4.762 1.687.49 1.687-2.045 0-3.717-.561-3.717-1.247zm173 .117c3.826-.424 9.37-.416 12.322.016 3.647.535 1.419.782-6.955.77-10.022-.013-11.024-.16-5.367-.786zm194.294-.094c0-1.437.902-1.437 4.107 0 2.08.932 1.98 1.062-.88 1.138-1.775.048-3.227-.465-3.227-1.138zm8.214.743c0-.264.792-.798 1.76-1.185.969-.388 1.76-.172 1.76.48 0 .653-.791 1.186-1.76 1.186-.968 0-1.76-.216-1.76-.48zm-159.884-1.553c.807-.34 2.127-.34 2.934 0 .806.34.146.617-1.467.617-1.614 0-2.274-.278-1.467-.618zm-192.741-4.165c-4.518-.392-7.95-.846-7.628-1.01.323-.163 10.512-.57 22.644-.904 12.798-.352 24.155-1.265 27.055-2.176 3.439-1.08 5.894-1.2 7.867-.386 3.025 1.248 72.769 1.336 76.654.097 1.93-.616 2.127-1.6 1.578-7.915-.345-3.967-.185-7.212.356-7.212 2.76 0 3.69 15.478 1.035 17.23-2.486 1.643-78.918 1.446-80.502-.207-.927-.967-1.997-.938-3.866.105-1.42.793-9.002 1.692-16.847 1.996-7.846.305-15.585.676-17.198.824-1.614.149-6.63-.05-11.148-.442zm-22.785-.361c1.401-1.26 6.943-1.905 6.943-.808 0 .687-1.672 1.248-3.716 1.248-2.044 0-3.496-.198-3.227-.44zm160.261-2.926c-.3-.505 10.445-.918 23.875-.918s24.174.413 23.875.918c-.3.505-11.043.918-23.875.918s-23.576-.413-23.875-.918zm49.691-.394c0-.88 2.22-1.032 6.747-.46 9.07 1.148 9.242 1.772.49 1.772-4.366 0-7.237-.52-7.237-1.312zm16.428.166c-1.231-.885 8.11-1.293 31.097-1.357 73.93-.208 75.053-.311 76.022-6.983.4-2.754.52-2.545.664 1.151.196 5.041-.67 5.973-6.071 6.522-11.885 1.209-100.152 1.788-101.712.667zm124.387-1.249c-1.366-.963-.923-1.244 1.985-1.259 2.06-.01 4.096-.613 4.527-1.34.499-.842 2.85-1.023 6.488-.501 7.383 1.059 40.446 1.087 42.077.036.687-.443 1.25.053 1.25 1.102 0 1.805-4.657 2.493-14.669 2.168-10.795-.35-33.543-.094-36.377.41-1.936.343-4.312.067-5.28-.616zm58.708-1.23c-.95-.626-1.455-1.422-1.122-1.768.909-.949 5.782.622 5.782 1.863 0 1.404-2.464 1.354-4.66-.095zm-68.673-5.345c-1.571-3.922-2.01-13.667-1.84-40.78.058-9.208.413-11.328 2-11.963 2.533-1.015 3.836.399 1.582 1.716-1.457.85-1.74 4.796-1.685 23.471.078 26.396.747 29.181 7.015 29.181 2.505 0 3.912.495 3.48 1.224-.399.674-2.569 1.224-4.823 1.224-3.533 0-4.322-.56-5.729-4.073zm-181.722 1.335c-.55-1.17-.768-12.628-.484-25.463.406-18.392.882-23.718 2.245-25.14 1.336-1.394 4.653-1.765 14.566-1.632 21.08.283 24.008.25 37.479-.427 7.1-.356 15.284-.224 18.188.294 4.513.804 3.659.983-5.867 1.226-15.306.392-19.667.78-25.957 2.312-4.093.997-7.254.926-12.908-.29-15.13-3.253-27.465-.432-24.383 5.576.842 1.641.84 2.847-.008 3.912-.71.892-1.36 10.002-1.548 21.649-.196 12.164-.719 19.27-1.323 17.983zm174.178-7.564c-.05-1.29.227-2.013.617-1.607.39.407.431 1.463.092 2.346-.374.977-.652.687-.709-.74zm-182.55-7.36c.008-2.31.404-4.605.88-5.1.475-.497.864 1.392.864 4.197 0 2.806-.396 5.1-.88 5.1s-.873-1.889-.865-4.198zm182.777-1.923c0-3.03.229-4.269.509-2.754.28 1.515.28 3.994 0 5.509-.28 1.514-.509.275-.509-2.755zm-183.011-7.312c.56-3.834 1.978-4.441 1.978-.848 0 1.795-.524 3.264-1.166 3.264-.641 0-1.007-1.087-.812-2.416zm.355-5.993c-.962-1.558-1.168-8.964-.445-16.01.238-2.314-.361-3.168-2.626-3.739-1.613-.407-35.54-.553-75.395-.325-49.66.285-72.46.014-72.46-.858 0-.873 24.125-1.176 76.568-.961l76.568.313.01 4.284c.025 9.506-1.19 18.963-2.22 17.295zm173.536-19.744c-.4-.674-.166-1.224.517-1.224.684 0 1.243.55 1.243 1.224 0 .673-.233 1.224-.518 1.224-.284 0-.843-.551-1.242-1.224zm-85.243-1.358c-1.005-.664.755-1.06 4.763-1.072 3.496-.01 6.136.2 5.867.466-1.129 1.117-9.164 1.575-10.63.606zm45.466-1.295c.332-.56 2.685-1.02 5.229-1.02 2.543 0 4.624.46 4.624 1.02 0 .561-2.353 1.02-5.229 1.02s-4.957-.459-4.624-1.02zm13.375-.008c0-.453 2.907-.753 6.462-.666 4.056.1 5.822.533 4.741 1.164-1.975 1.153-11.2.743-11.203-.498zm46.937-.75c0-.691 1.102-.956 2.448-.589 1.346.367 5.175.003 8.508-.81 4.292-1.046 7.428-1.12 10.753-.252l4.694 1.225-5.867.04c-3.227.02-9.168.4-13.202.84-4.733.518-7.334.357-7.334-.454zm29.043-1.072c.807-.34 2.127-.34 2.934 0 .807.34.147.617-1.467.617-1.613 0-2.273-.278-1.467-.617zm12.028-.414c0-.673.233-1.224.518-1.224.285 0 .844.551 1.243 1.224.399.674.166 1.224-.518 1.224-.683 0-1.243-.55-1.243-1.224zm31.684-.469c0-.258 1.056-.757 2.347-1.11 1.29-.352 2.347-.14 2.347.47s-1.056 1.11-2.347 1.11-2.347-.212-2.347-.47zm-191.568-4.21c-4.457-.86-1.719-2.029 3.813-1.629 3.228.233 5.868.883 5.868 1.443 0 .96-5.146 1.06-9.68.185zm131.937-.932c-2.27-1.658-6.378-1.88-28.425-1.53-14.174.225-25.771-.004-25.77-.51 0-.504 1.716-.959 3.814-1.01 50.203-1.218 49.284-1.235 51.593.945 1.927 1.82 2.386 1.864 3.32.323.85-1.402 1.088-1.194 1.102.967.02 3.234-1.936 3.517-5.634.815zm-358.122-.497c0-.703 4.519-1.207 10.855-1.21 18.39-.009 22.643.241 23.755 1.398.43.446-7.182.858-16.914.914-10.894.064-17.696-.36-17.696-1.102zm45.765-.837c-1.613-.863-3.92-1.248-5.126-.856-1.52.495-2.021.205-1.635-.945.641-1.908 7.549-1.938 9.368-.04 2.126 2.217.389 3.444-2.607 1.84zm7.628.825c-.4-.673.28-1.224 1.509-1.224 1.229 0 3.009-.964 3.956-2.142 2.04-2.54 5.373-10.681 6.136-14.995.298-1.683.376-.581.173 2.448-.503 7.525-2.484 14.835-4.355 16.073-2.142 1.417-6.541 1.322-7.42-.16zm26.684-.648c-1.534-1.132-3.637-1.631-4.987-1.184-1.75.58-2.6.043-3.396-2.143-1.42-3.896-2.199-52.308-.827-51.424.58.374.813-.641.517-2.256l-.538-2.936h85.737c47.156 0 86.425.463 87.267 1.03 1.152.777 1.375 3.796.906 12.24-.924 16.612-.51 30.6 1.009 34.162.513 1.203.426 2.142-.197 2.142-2.48 0-3.322-6.413-3.133-23.869.109-10.098-.019-19.256-.284-20.35-.331-1.366-2.402-2.255-6.61-2.84-6.38-.885-119.283-.659-152.849.307l-8.251.238-1.558 5.504c-.882 3.115-1.198 6.966-.728 8.874.457 1.854.777 9.418.712 16.81-.15 17.088.585 21.447 3.616 21.447 1.261 0 3.334.58 4.605 1.29 1.272.71 4.412 1.378 6.979 1.485 2.623.11 4.49.75 4.267 1.464-.674 2.141-9.358 2.148-12.257.01zm14.595 1.07c-1.515-1.58-.783-2.611 1.845-2.599 1.453.007 6.131-.399 10.397-.902 4.943-.583 8.024-.464 8.494.33.89 1.502 40.248.527 43.208-1.07 1.214-.656 2.117-.565 2.373.237.253.792 5.978 1.418 14.752 1.611 7.886.174 14.696.689 15.132 1.144.957.998-1.372 1.115-16.614.833-6.454-.119-12.301-.707-12.994-1.306-.73-.632-1.717-.635-2.347-.008-.986.982-39.594 1.857-48.026 1.089-1.936-.177-6.199.082-9.472.574-3.274.493-6.31.522-6.748.066zm142.685.063c.39-.407 1.403-.45 2.25-.097.936.39.658.68-.71.74-1.236.053-1.93-.237-1.54-.643zm43.1.327c0-1.497 8.476-3.078 10.943-2.04 2.205.927 1.994 1.086-1.555 1.167-2.259.052-5.295.427-6.747.833-1.452.405-2.64.424-2.64.04zm-85.662-2.034c-1.339-.904-.776-1.24 2.347-1.4 2.259-.117 4.9-.147 5.867-.067 3.864.318 12.561.293 16.682-.048 2.875-.239 3.965.05 3.2.85-1.543 1.608-25.847 2.184-28.096.665zm99.842.782c.269-.242 2.073-.81 4.01-1.261 2.57-.6 3.045-.486 1.76.421-1.585 1.119-6.947 1.9-5.77.84zm72.07-2.008c-.45-.76 1.748-1.224 5.798-1.224 3.588 0 6.524.55 6.524 1.224 0 .673-2.61 1.224-5.798 1.224-3.19 0-6.125-.55-6.524-1.224zm13.495-.207c0-.56 4.049-1.017 8.997-1.017 4.948 0 8.776.228 8.507.507-.979 1.017-17.504 1.497-17.504.51zm24.643.062c-2.984-.55-1.78-.8 4.4-.918 4.68-.089 8.508.056 8.508.322 0 .936-8.848 1.344-12.908.596zm-166.632-.99c0-1.76 6.005-6.265 7.267-5.452 1.382.891-3.557 6.587-5.711 6.587-.856 0-1.556-.51-1.556-1.135zm190.656-.036c.382-.644 1.469-.86 2.416-.48 2.426.97 2.14 1.65-.693 1.65-1.33 0-2.104-.526-1.723-1.17zm59.236-.115c-1.181-.78-.052-1.13 3.683-1.143 7.829-.028 24.89-2.551 26.523-3.924 1.004-.843 1.349-.457 1.217 1.364-.1 1.397-.203 2.578-.227 2.624-.024.046-5.324.328-11.778.626-6.454.298-13.08.775-14.724 1.06-1.644.285-3.756.012-4.694-.607zm118.575.062c0-.673.233-1.224.518-1.224.285 0 .844.55 1.243 1.224.399.673.166 1.224-.518 1.224-.683 0-1.243-.55-1.243-1.224zm-83.022-.864c-1.783-.358-2.634-1.397-2.622-3.2.013-2.054.26-2.269 1.072-.93.58.955 2.288 1.916 3.796 2.135 1.508.218 5.91.87 9.782 1.448l7.04 1.05-8.214.014c-4.517.007-9.402-.225-10.854-.517zm89.77-1.17c.807-.34 2.127-.34 2.934 0 .806.339.146.617-1.467.617-1.614 0-2.274-.278-1.467-.618zm-8.432-2.504c-.637-1.744-.502-1.885.657-.685.802.83 1.162 1.818.8 2.195-.36.377-1.017-.302-1.457-1.51zm-354.724-2.794c.171-1.99 1.077-3.175 2.61-3.415 2.086-.327 2.14-.192.483 1.211-1.025.869-2.199 2.406-2.61 3.416-.435 1.072-.636.569-.483-1.212zm338.694.458c-1.36-1.71-1.275-1.917.64-1.53 1.216.246 2.432 1.136 2.7 1.977.697 2.184-1.478 1.893-3.34-.447zm-339.018-6.552c0-.653.792-.87 1.76-.482s1.76.922 1.76 1.186c0 .265-.792.481-1.76.481s-1.76-.533-1.76-1.185zm356.961-4.323c-.024-2.02.22-2.994.541-2.166.322.83.341 2.482.044 3.673-.298 1.19-.56.513-.585-1.507zm-353.037-2.51c-1.072-2.37-1.037-2.998.168-2.998 1.844 0 3.391 3.7 2.107 5.04-.505.526-1.53-.392-2.275-2.042zM88.773 490.49c-.007-4.039.207-5.84.475-4 .268 1.84.273 5.145.012 7.345s-.48.695-.487-3.345zM274.403 496c-.398-.674-.197-1.224.449-1.224.645 0 1.5.55 1.898 1.224.4.673.198 1.224-.448 1.224-.645 0-1.5-.551-1.899-1.224zm180.344-2.142c.245-1.347 1.693-2.297 3.9-2.56l3.51-.416-3.118 2.559c-3.802 3.12-4.8 3.216-4.292.417zm176.562-4.204c-.4-1.559-.623-9.17-.496-16.912l.231-14.076.347 12.852c.19 7.07.966 14.104 1.723 15.632.959 1.934 1.005 3.168.15 4.06-.854.89-1.448.417-1.955-1.556zm-2.444-.64c-.637-1.744-.502-1.885.657-.685.802.83 1.162 1.818.8 2.195-.36.377-1.017-.303-1.457-1.51zm-174.913-12.465c-.904-14.433-.322-18.495 2.652-18.495 1.49 0 1.603.326.508 1.469-.928.968-1.409 6.155-1.409 15.215 0 13.283.09 13.765 2.64 14.278 2.356.473 2.307.548-.458.697l-3.098.166zm-8.027 11.29c-.43-.449-.783-1.385-.783-2.08 0-.768.547-.695 1.389.183.764.797 1.116 1.733.782 2.08-.333.349-.958.266-1.388-.183zm-172.531-7.965c-1.19-11.884-.946-15.699 1.06-16.502 2.525-1.01 3.5.388 1.78 2.55-1.359 1.708-1.631 7.24-.807 16.355.2 2.214-.006 4.264-.459 4.556-.453.293-1.161-2.84-1.574-6.96zm171.748 2.121c0-.297.528-.88 1.174-1.296.645-.416 1.173-.173 1.173.54 0 .713-.528 1.296-1.173 1.296-.646 0-1.174-.243-1.174-.54zm183.153-3.642c-.05-1.29.227-2.014.617-1.607.39.407.431 1.463.092 2.346-.374.977-.652.687-.709-.74zm-540.31-2.55c-.371-1.01-.164-1.836.461-1.836.626 0 1.137.826 1.137 1.836 0 1.01-.208 1.836-.461 1.836-.254 0-.765-.826-1.137-1.836zm-.007-7.164c-.491-2.593-.621-5-.288-5.347.889-.927 2.177 5.212 1.641 7.824-.277 1.35-.813.368-1.353-2.477zm-63.744-7.443c.2-.629 7.053-1.194 15.228-1.258 8.71-.068 14.43.337 13.817.977-1.418 1.479-29.515 1.75-29.045.28zm34.323-.646c1.61-1.68 28.235-2.213 29.79-.597.868.902-3.588 1.363-14.845 1.538-10.42.162-15.684-.17-14.945-.94zm218.295-1.176c1.258-1.317 45.106-2.011 44.687-.708-.242.754-9.016 1.26-22.878 1.32-12.367.052-22.181-.223-21.809-.612zm80.28-1.626c0-.505 2.61-.918 5.798-.918 3.19 0 6.043.413 6.342.918.3.505-2.31.918-5.798.918s-6.342-.413-6.342-.918zm66.888.306c0-.674.233-1.224.517-1.224.285 0 .844.55 1.243 1.224.399.673.166 1.224-.518 1.224-.683 0-1.242-.551-1.242-1.224zm3.52 0c0-.674 1.188-1.216 2.64-1.206 2.135.016 2.304.246.88 1.206-2.275 1.533-3.52 1.533-3.52 0zm17.015 0c-.399-.674.098-1.224 1.104-1.224 1.007 0 1.83.55 1.83 1.224 0 .673-.497 1.224-1.104 1.224-.608 0-1.43-.551-1.83-1.224zm15.842-.212c0-.557.66-1.02 1.467-1.03.807-.008 2.737-.37 4.29-.804 1.823-.508 2.556-.335 2.068.488-.927 1.565-7.825 2.752-7.825 1.346zm10.561-.258c0-.258 1.056-.757 2.347-1.11 1.29-.351 2.347-.14 2.347.47s-1.056 1.11-2.347 1.11c-1.29 0-2.347-.211-2.347-.47zm8.532-2.718c.39-.407 1.402-.45 2.25-.097.936.391.657.681-.71.74-1.237.053-1.93-.236-1.54-.643zm75.37-1.709c-2.079-.932-1.979-1.061.88-1.138 1.776-.047 3.228.465 3.228 1.138 0 1.437-.902 1.437-4.107 0zm-447.358-.74c.39-.406 1.403-.45 2.25-.096.936.391.658.681-.71.74-1.236.053-1.93-.236-1.54-.643zm431.224-.07c.806-.34 2.127-.34 2.933 0 .807.34.147.617-1.467.617-1.613 0-2.273-.278-1.466-.617zm-514.857-1.497c0-.956 7.82-1.43 26.11-1.584 45.11-.378 45.7-.423 49.179-3.786 1.582-1.53 3.21-3.69 3.62-4.801.453-1.232 1.591-1.789 2.917-1.427 1.713.467 2.075 1.487 1.704 4.801-.364 3.255-.043 4.208 1.418 4.208 1.038 0 1.888.551 1.888 1.224 0 .673-1.388 1.224-3.084 1.224-2.954 0-3.054-.218-2.39-5.202.485-3.637.37-4.466-.38-2.754-.59 1.346-2.106 3.799-3.368 5.45l-2.294 3.001-37.66.505c-27.196.365-37.66.126-37.66-.86zm340.89-.14c.4-.674 1.619-1.216 2.71-1.206 1.71.016 1.741.183.224 1.205-2.298 1.55-3.851 1.55-2.933 0zm-249.358-1.357c.002-1.4 5.079-1.761 28.457-2.025 15.65-.177 31.358-.728 34.908-1.224l6.454-.903.203-21.421c.243-25.568-.229-30.203-3.247-31.888-2.426-1.354-25.914-1.618-57.976-.652-34.814 1.05-100.268 1.387-98.765.509 1.593-.93 87.34-2.775 131.27-2.824 21.258-.024 28.17.343 29.333 1.557 1.147 1.196 1.572 8.493 1.72 29.567l.198 27.978-3.715.688c-2.043.379-18.368 1.06-36.278 1.515-27.418.696-32.564.557-32.562-.877zm90.145.19c-6.247-.46-12.143-1.517-13.103-2.348-1.668-1.444-1.823-10.927-.848-51.832.049-2.058 1.01-3.843 2.526-4.69 3.368-1.88 4.45-.313 1.348 1.953-2.43 1.776-2.52 2.696-2.569 26.67l-.05 24.83 5.573 1.48c4.739 1.259 11.68 1.6 27.281 1.343 11.815-.194 21.168.398 21.748 1.376.417.704-4.53 1.167-12.584 1.177-7.299.009-14.327.21-15.618.448-1.29.237-7.458.054-13.704-.407zm201.165.322c1.13-.307 2.978-.307 4.107 0 1.13.308.206.56-2.053.56-2.26 0-3.183-.252-2.054-.56zm192.155-.38c-1.058-.713-1.203-1.194-.363-1.205.769-.01 1.724.532 2.123 1.205.9 1.52.494 1.52-1.76 0zm-345.292-.81c.807-.34 2.127-.34 2.934 0 .807.34.147.617-1.467.617-1.613 0-2.274-.278-1.467-.617zm15.549-.55c0-.892-1.415-1.084-4.107-.557-3.117.61-4.108.388-4.108-.923 0-2.318 10.45-1.473 12.86 1.04 1.518 1.584 1.342 1.8-1.46 1.8-1.752 0-3.185-.612-3.185-1.36zm11.249-.268c1.478-.88 15.166-1.398 40.06-1.515 26.767-.126 38.295-.594 39.457-1.6 1.957-1.694 3.18-12.768 1.918-17.36-.93-3.384-.255-9.723 1.036-9.722 1.263 0 1.484 27.417.237 29.377-.999 1.57-7.241 1.86-43.061 1.997-30.822.118-41.3-.193-39.647-1.177zm89.899-3.205c-2.276-3.21-2.568-5.573-3.14-25.365-.345-12.004-.834-23.262-1.085-25.018-.903-6.317-.066-6.577 22.14-6.88 11.318-.155 20.578.12 20.577.612-.001.491-8.006 1.021-17.79 1.178-9.782.157-18.71.592-19.838.965-2.83.937-3.6 3.662-2.157 7.622.67 1.839.876 5.244.458 7.567-.71 3.95-.794 25.86-.12 31.3.475 3.83 1.905 6.463 4.042 7.441 3.226 1.477 83.925 1.81 84.79.35.496-.837 2.102-.883 4.727-.137 2.187.622 13.904 1.042 26.038.934 12.134-.109 22.281.172 22.549.625.683 1.153-22.385 2.227-36.123 1.682-6.303-.25-12.904-.396-14.668-.324-1.764.072-22.261.324-45.55.56l-42.34.429zm181.95 2.267c-2.098-.647-3.814-1.414-3.814-1.704 0-.806 43.498.273 44.29 1.1.38.397-6.656.73-15.638.739-8.982.009-17.387.247-18.678.529-1.29.282-4.063-.017-6.16-.664zm-33.325-.968c.872-.576 4.783-1.123 8.692-1.215 3.91-.092 7.79-.758 8.622-1.479.833-.721 1.71-3.884 1.95-7.028l.436-5.717.212 6.794c.122 3.94-.38 7.41-1.197 8.262-.865.903-5.05 1.462-10.855 1.45-5.699-.011-8.817-.434-7.86-1.067zm-265.028-1.623c0-.53 1.056-.963 2.347-.963 1.29 0 2.346.516 2.346 1.148 0 .631-1.056 1.065-2.346.963-1.291-.101-2.347-.618-2.347-1.148zm392.523.26c-2.347-1.051-2.347-1.051 0-1.118 1.29-.037 3.139.466 4.107 1.119 1.565 1.055 1.565 1.179 0 1.12-.968-.038-2.816-.541-4.107-1.12zm-101.654-9.486a199.122 199.122 0 0 0-.427-4.896c-.152-1.515.18-2.754.737-2.754.557 0 1.052.964 1.1 2.142.048 1.178.309 3.382.58 4.896.27 1.515-.033 2.755-.674 2.755-.642 0-1.234-.964-1.316-2.143zm-398.828-4.926c-2.17-.792-3.562-2.888-2.787-4.196 1.037-1.75 4.864-1.027 5.634 1.065.914 2.486-.463 4.001-2.847 3.13zm398.218-15.883c.336-6.564.645-13.206.685-14.76.041-1.555.517-2.542 1.058-2.193.54.348.732 6.499.427 13.668-.437 10.255-.21 13.263 1.07 14.108 1.204.795.915 1.08-1.113 1.093-2.725.019-2.736-.041-2.127-11.916zM70.22 423.78c-.858-1.448.29-1.448 3.52 0 2.263 1.014 2.255 1.055-.224 1.138-1.414.047-2.898-.465-3.296-1.138zm1.76-2.448c-.968-.653-1.232-1.187-.587-1.187s1.966.534 2.934 1.187c.968.652 1.232 1.186.586 1.186-.645 0-1.965-.534-2.933-1.186zm289.88-9.18c.117-10.049-1.36-19.577-3.274-21.116-1.047-.842-3.65-1.53-5.786-1.53-2.136 0-3.883-.45-3.883-.998 0-2.034 13.966-.063 14.16 1.998.753 7.993.636 23.477-.187 24.799-.76 1.22-1.07.272-1.03-3.154zm174.599-19.927c-.305-2.169-.15-3.943.346-3.943 1.688 0 2.22 2.216 1.213 5.054-.95 2.68-1.034 2.62-1.559-1.11zm-336.568-1.67c-.007-1.518 3.743-2.265 8.01-1.596 2.37.371 6.947.14 10.174-.512 6.83-1.382 8.205-.867 3.39 1.273-3.48 1.546-21.568 2.247-21.574.835zm36.76.239c-5.274-.372-9.852-.953-10.174-1.292-.322-.339 11.65-.647 26.604-.685 14.954-.038 32.733-.208 39.51-.376 17.44-.434 30.993-.255 30.365.4-1.516 1.581-69.684 3.124-86.305 1.953zm334.05-.064c0-.673 1.352-1.224 3.004-1.224 1.703 0 2.689.53 2.277 1.224-.399.673-1.75 1.224-3.003 1.224-1.252 0-2.277-.55-2.277-1.224zm9.975 0c-.43-.727.85-1.19 3.158-1.138 3.235.072 3.491.261 1.536 1.138-3.184 1.427-3.849 1.427-4.694 0zm-134.238-1.328c-1.546-.645-2.533-1.463-2.192-1.818.93-.971 6.762.8 6.762 2.055 0 1.332-.924 1.285-4.57-.237zm142.086.027c.282-.883 1.206-1.847 2.053-2.142.88-.306 1.32.153 1.027 1.071-.282.884-1.207 1.848-2.054 2.143-.88.306-1.32-.153-1.026-1.072zm-264.25-.463c0-.297.529-.88 1.174-1.296.645-.416 1.173-.173 1.173.54 0 .713-.528 1.296-1.173 1.296s-1.173-.243-1.173-.54zm4.176-.568c-.605-1.022 13.356-.385 14.502.662.27.245-2.736.446-6.678.446-3.942 0-7.462-.499-7.824-1.108zm81.917-.382c-.312-.527 2.72-.958 6.738-.958 4.018 0 7.006.312 6.64.694-1.052 1.097-12.748 1.328-13.378.264zm43.575.266c1.291-.579 3.14-1.082 4.107-1.12 1.565-.06 1.565.065 0 1.12-.968.653-2.816 1.156-4.107 1.12-2.347-.068-2.347-.068 0-1.12zm35.79.023c0-.686 1.673-1.247 3.717-1.247 4.273 0 4.118.534-.49 1.687-1.915.48-3.226.3-3.226-.44zm-57.814-.826c.794-.335 2.378-.356 3.52-.045 1.142.31.492.584-1.445.61-1.936.024-2.87-.23-2.075-.565zm53.439.063c.39-.406 1.402-.45 2.249-.096.936.39.658.68-.709.74-1.237.052-1.93-.237-1.54-.644zM39.982 385.03c.794-.335 2.379-.356 3.52-.045 1.142.31.492.584-1.444.61-1.936.024-2.87-.23-2.076-.565zm18.819-.084c2.109-.273 5.277-.267 7.04.012 1.764.28.038.502-3.834.495-3.873-.007-5.316-.235-3.206-.507zm-34.932-2.101c0-1.05.528-1.909 1.174-1.909.645 0 1.173.519 1.173 1.152 0 .634-.528 1.493-1.173 1.909-.646.416-1.174-.103-1.174-1.152zm690.864-.02c-.913-.702-1.44-1.96-1.17-2.794.354-1.097-1.565-1.53-6.938-1.567-10.818-.073-11.385-.185-10.68-2.098.446-1.215.995-1.334 1.882-.408 1.571 1.638 6.65 1.72 6.65.107 0-.717 2.243-.906 5.575-.47 3.065.401 6.894.855 8.507 1.008 5.456.517 5.868.659 5.868 2.018 0 .836-1.127 1.062-2.934.589-1.77-.464-2.934-.245-2.934.551 0 .726-.66.97-1.467.542-.806-.427-.259.334 1.218 1.692 4.548 3.679-1.57 1.94-3.577.83zm7.347.632c0-.713.528-1.296 1.173-1.296s1.174.242 1.174.54c0 .296-.529.88-1.174 1.296-.645.416-1.173.173-1.173-.54zm-694.689-.952c0-.526 13.598-1.038 30.217-1.137 22.425-.134 27.19.064 18.48.767-16.044 1.297-48.699 1.544-48.697.37zm468.21-.383c0-1.578 3.344-3.002 4.417-1.882.438.456.02 1.342-.93 1.968-2.272 1.499-3.487 1.469-3.487-.086zm-387.536-1.708c-3.106-2.395-2.477-3.07 1.76-1.89 4.627 1.29 133.997.706 146.385-.661 5.943-.656 9.868-1.797 12.097-3.517 3.1-2.39 3.294-3.07 3.18-11.136-.065-4.725.235-12.537.669-17.359.49-5.463.294-10.245-.522-12.687-1.397-4.18-.588-7.536 1.131-4.687.55.913.975 10.492.942 21.287-.033 10.794.041 20.158.164 20.81.481 2.544-.128 5.1-1.756 7.374-1.633 2.28-1.674 2.26-1.006-.501.568-2.347.287-2.796-1.525-2.436-1.222.243-2.38 1.597-2.574 3.008-.33 2.393-1.32 2.622-14.669 3.379-7.873.446-43.094.764-78.269.706-50.354-.083-64.39-.443-66.007-1.69zm559.449.455c-1.6-.67-.136-1.012 4.596-1.07 3.818-.048 6.723.11 6.454.352-1.228 1.102-8.941 1.603-11.05.718zM92.62 377.884c1.354-2.156 1.918-5.817 1.918-12.458 0-7.4.271-8.902 1.274-7.046 1.943 3.595 1.143 17.697-1.153 20.344-2.837 3.27-4.254 2.686-2.04-.84zm195.064 1.334c-4.315-2.244-6.69-11.65-7.7-30.483-.5-9.319-.694-17.166-.433-17.439.262-.273.602-2.164.756-4.203.357-4.74 2.46-7.36 5.906-7.36 1.496 0 3.075-.599 3.509-1.33.442-.747 1.89-.967 3.296-.502 1.38.455 15.864.986 32.189 1.18 16.324.193 30.01.694 30.412 1.113.847.884-25.898 1.469-41.318.903-1.29-.047-6.156.156-10.813.452-4.656.296-8.743.072-9.08-.5-.339-.57-2.602-.345-5.03.5-4.846 1.689-9.018 8.085-7.827 12 .37 1.217.878 5.905 1.128 10.417.25 4.513.537 8.48.638 8.817.101.337.268 1.714.37 3.06.102 1.347.618 5.916 1.146 10.153 1.519 12.18-1.064 11.614 50.58 11.076 39.19-.409 49.887.094 41.375 1.943-6.214 1.35-86.546 1.533-89.104.203zm266.275.916c.794-.336 2.378-.356 3.52-.046s.492.585-1.444.61c-1.937.025-2.87-.23-2.076-.564zm75.417-.497c-3.752-.755-3.58-.84 1.984-.988 3.35-.088 6.336.252 6.635.757.698 1.18-3.368 1.288-8.619.231zm10.561.075c0-.673 1.936-1.224 4.303-1.224 2.366 0 3.996-.32 3.62-.711-.374-.391-5.227-.676-10.783-.634-8.476.065-9.86-.19-8.608-1.59.879-.981 2.46-1.337 3.84-.864 1.291.441 6.968.763 12.615.715 5.648-.048 10.268.35 10.268.886s-1.32.974-2.933.974c-1.614 0-2.934.584-2.934 1.297s.528.955 1.173.54c.646-.417 1.174-.174 1.174.54 0 .739-2.52 1.295-5.868 1.295-3.227 0-5.867-.55-5.867-1.224zm-259.335-2.453c0-2.399 1.682-3.33 2.752-1.525.962 1.622 60.883.94 63.828-.727 2.562-1.45 3.735-4.178 4.123-9.593.106-1.468.619-2.394 1.14-2.057 1.481.954.329 8.157-1.864 11.647-1.73 2.756-3.047 3.247-10.457 3.905-4.662.413-19.962.761-34 .772-24.728.02-25.522-.055-25.522-2.422zm95.05 1.23c-17.702-.596-18.198-.685-18.56-3.336-.356-2.616-.24-2.652 2.934-.909 2.592 1.424 7.813 1.787 24.212 1.683 18.64-.118 23.455.277 21.827 1.792-1.114 1.036-13.323 1.344-30.413.77zm79.89.057c-8.08-.371-14.746-1.215-14.962-1.894-.55-1.732 27.528-.136 29.252 1.663.737.768 1.103 1.286.812 1.15-.29-.137-7.086-.55-15.101-.919zm40.586.35c-.43-.448-.782-1.385-.782-2.08 0-.768.546-.695 1.388.183.764.797 1.116 1.733.782 2.081-.333.348-.958.265-1.388-.184zm-81.751-1.632c-2.48-.828-2.15-.999 2.123-1.102 3.098-.074 4.775.352 4.33 1.102-.826 1.396-2.276 1.396-6.453 0zm12.321 0c-.424-.716.793-1.224 2.934-1.224 2.14 0 3.358.508 2.933 1.224-.399.673-1.719 1.224-2.933 1.224-1.215 0-2.535-.55-2.934-1.224zm52.511.512c1.149-1.198 14.963-1.551 14.963-.382 0 .602-3.52 1.094-7.823 1.094-4.303 0-7.516-.32-7.14-.712zm25.23-.098c.808-.34 2.128-.34 2.935 0 .806.34.146.617-1.467.617-1.614 0-2.274-.278-1.467-.617zm61.314-.91c0-1.79 4.979-1.607 14.082.517 3.286.766 2.288.982-4.987 1.08-7.084.096-9.095-.257-9.095-1.596zm18.776 1.24c0-1.162 3.512-1.747 4.139-.69.381.644-.394 1.17-1.723 1.17-1.329 0-2.416-.216-2.416-.48zm-22.296-1.968c0-.673.233-1.224.517-1.224.285 0 .844.551 1.243 1.224.4.673.166 1.224-.517 1.224-.684 0-1.243-.55-1.243-1.224zm-560.296-1.53c-.774-2.463-1.265-12.963-.586-12.525.34.22.413-3.413.16-8.073-.308-5.693-.03-8.473.848-8.473 1.057 0 2.087 10.554 1.459 14.95-.069.481.793.525 1.914.099 1.85-.704 1.838-.535-.137 1.812-1.617 1.923-2.068 4.022-1.752 8.164.392 5.141-.78 7.63-1.906 4.046zm176.802-8.874c-.023-2.02.22-2.995.541-2.166.322.829.341 2.481.044 3.672-.298 1.191-.56.513-.585-1.506zm177.551-8.58c0-13.463 1.379-14.592 1.658-1.36.12 5.683-.204 10.605-.72 10.937-.516.333-.938-3.977-.938-9.578zm-320.757 4.295c0-1.683.267-2.371.592-1.53.326.842.326 2.219 0 3.06-.325.842-.592.153-.592-1.53zm-3.068.085c-.372-.627-.139-1.485.517-1.908.656-.423 1.193.09 1.193 1.14 0 2.15-.705 2.466-1.71.768zm363.818-5.67c-1.078-1.123-1.806-3.82-1.738-6.437.105-4.05.211-4.195 1.056-1.442l.94 3.06.158-3.06.159-3.06 1.677 3.06c3.24 5.913 1.546 11.842-2.252 7.88zm-401.42-16.14v-15.609l-35.79.419c-38.444.45-47.446-1.036-13.18-2.175 36.72-1.22 49.497-.933 50.76 1.144.616 1.013.906 8.153.645 15.913-.567 16.91-.47 15.913-1.554 15.915-.484 0-.88-7.023-.88-15.607zm6.866-1.61c.725-8.632 1.936-9.094 1.936-.738 0 4.015-.518 6.936-1.229 6.936-.762 0-1.03-2.351-.707-6.198zm527.823-.228c.141-4.18.277-4.481.69-1.53.284 2.02 1.061 4.36 1.729 5.202.884 1.116.697 1.53-.691 1.53-1.485 0-1.865-1.144-1.728-5.202zm-528.216-10.404c-.01-1.515.51-2.755 1.155-2.755 1.47 0 1.47 1.3 0 3.673-.92 1.484-1.14 1.309-1.155-.918zm4.251.306c.372-1.01.883-1.837 1.137-1.837.253 0 .461.827.461 1.837s-.512 1.836-1.137 1.836-.832-.827-.46-1.836zm524.962-1.837c0-.673.529-1.224 1.174-1.224.645 0 1.173.551 1.173 1.224 0 .674-.528 1.225-1.173 1.225s-1.174-.551-1.174-1.225zm-365.533-2.147c-3.363-1.462-7.855-2.002-15.842-1.906-32.582.393-53.98-.063-53.98-1.149 0-1.046 1.345-1.093 38.138-1.345 21.77-.15 28.112.19 32.792 1.754 3.192 1.067 6.008 2.582 6.259 3.367.621 1.944-1.773 1.71-7.367-.721zm-113.507-.526c-.383-1.197-5.953-1.482-24.463-1.25-13.64.172-23.21-.148-22.208-.741.968-.574 14.17-.913 29.337-.753l29.923.316c1.29.013 8.674-.246 16.406-.576 7.733-.33 13.66-.183 13.17.327-.489.51-5.89 1.027-12 1.15-6.772.134-11.793.809-12.853 1.727-1.37 1.186-2.996 1.192-7.657.025-4.456-1.115-6.317-1.134-7.538-.077-1.23 1.066-1.74 1.03-2.117-.147zm358.76-1.837-3.52-1.715 3.518.764c3.635.79 4.858 1.469 4.012 2.228-.27.24-2.073-.334-4.01-1.277zm5.281.91c0-.712.528-1.296 1.174-1.296.645 0 1.173.243 1.173.54 0 .297-.528.88-1.173 1.296-.646.416-1.174.173-1.174-.54zm-157.244-1.296c-1.504-1.014-1.462-1.19.293-1.205 1.13-.01 2.054.532 2.054 1.205 0 1.493-.132 1.493-2.347 0zm3.773-.187c.65-2.047 21.333-2.964 25.647-1.137 2.07.876-.522 1.104-9.471.833-6.777-.206-13.307.15-14.51.79-1.651.877-2.061.757-1.666-.486zm96.207.052c.403-1.267 3.208-1.737 11.007-1.844l10.466-.142-9.387.79c-5.163.433-10.116 1.263-11.007 1.842-1.131.736-1.456.541-1.079-.646zm262.54-.565c-.924-1.298-2.472-2.513-3.44-2.7-3.164-.613-6.903-3.026-7.592-4.902-.559-1.518-.366-1.568 1.111-.29 1.565 1.355 1.787.682 1.787-5.407 0-4.325-.444-6.668-1.174-6.198-1.48.955-1.54-.956-.078-2.51.603-.639 1.27-3.365 1.482-6.058.243-3.078.749-.466 1.361 7.032l.974 11.93 3.609.975c4.648 1.256 6.393 4.048 4.824 7.717-1.157 2.705-1.225 2.714-2.864.41zm-328.572-.925c1.284-1.343 21.148-1.372 22.433-.032.555.578-4.452 1.045-11.199 1.045-6.711 0-11.767-.456-11.234-1.013zm30.19.095c.687-1.166 18.071-1.034 25.045.19 3.617.635.418.895-10.153.827-8.49-.054-15.19-.512-14.893-1.017zm146.775.798c-1.313-1.37.554-4.164 2.783-4.164 1.439 0 2.221.862 2.221 2.448 0 2.334-3.32 3.473-5.004 1.716zm-87.993-1.303c.807-.34 2.127-.34 2.934 0 .807.34.147.618-1.467.618-1.613 0-2.273-.278-1.467-.618zm8.826.072c.39-.407 1.402-.45 2.249-.097.936.39.658.68-.71.74-1.236.053-1.93-.237-1.54-.643zm-166.092-1.288c.794-.335 2.379-.356 3.52-.045 1.142.31.492.584-1.444.61-1.936.024-2.87-.23-2.076-.565zm-249.925-1.232c.806-.34 2.127-.34 2.933 0 .807.34.147.618-1.467.618-1.613 0-2.273-.278-1.466-.618zm26.114-.107c.012-2.663 4.926-8.875 7.019-8.875 3.084 0 3.043.144-1.533 5.355-3.784 4.309-5.496 5.407-5.486 3.52zm8.21-.136c0-.58 1.32-.791 2.933-.47 1.614.322 2.934.797 2.934 1.055 0 .258-1.32.469-2.934.469-1.613 0-2.934-.474-2.934-1.054zm483.005-.882c-1.08-2.938-.923-3.162 1.916-2.74 3.375.503 4.36 4.676 1.104 4.676-1.27 0-2.628-.871-3.02-1.936zm9.849.712c1.467-.989 1.379-1.19-.528-1.205-1.377-.012-1.844-.447-1.174-1.092.614-.59 5.34-1.354 10.503-1.697 7.474-.496 9.728-.241 11.058 1.25 1.485 1.663 1.209 1.782-2.477 1.06-2.281-.446-5.41-.285-6.951.359-1.542.643-2.056 1.205-1.141 1.247.914.043 1.323.432.908.864-.414.433-1.574.077-2.577-.792-1.412-1.222-2.489-1.262-4.777-.174-3.588 1.705-5.264 1.811-2.844.18zm70.47-1.102c-1.583-3.086 1.475-4.468 3.666-1.656 1.334 1.712 1.272 1.883-.441 1.213-1.426-.556-1.808-.273-1.342.995.953 2.591-.486 2.17-1.883-.552zm-556.87-.136c-3.478-.91.82-1.362 17.942-1.89 2.77-.084 5.648-.793 6.396-1.573.748-.78 2.544-1.42 3.99-1.42 1.446 0 2.956-.55 3.355-1.223 1.118-1.888 6.796-1.45 9.815.755 2.052 1.5 4.18 1.794 8.769 1.214 5.556-.703 5.87-.613 3.78 1.08-2.56 2.077-13.016 2.536-14.15.623-1.051-1.775-8.393-1.501-12.086.45-1.743.92-7.078 1.736-11.857 1.813-4.778.077-9.53.353-10.561.615-1.03.262-3.457.062-5.393-.444zm210.343.427c.806-.34 2.127-.34 2.933 0 .807.34.147.618-1.467.618-1.613 0-2.273-.278-1.466-.618zm-110.6-1.903c-12.262-.54-22.955-1.07-23.762-1.175-1.124-.146-1.467-6.55-1.467-27.398 0-23.68.241-27.303 1.857-27.95 3.413-1.366 4.393-.763 2.432 1.496-1.668 1.923-1.942 5.623-1.942 26.22v23.982l3.227.644c12.212 2.436 45.728 3.809 47.863 1.96.802-.694 3.49-.79 6.527-.23 7.234 1.33 96.78.678 102.861-.75 5.66-1.329 8.035.333 3.212 2.246-2.418.959-93.869 1.834-106.777 1.022-1.29-.081-4.459.092-7.04.384-2.582.293-14.727.09-26.99-.45zm306.275.266c-11.287-.932-9.573-1.606 4.419-1.739 8.5-.08 9.938.168 8.283 1.433-1.102.841-2.298 1.429-2.659 1.305-.36-.123-4.88-.573-10.043-1zm28.344.306c-.299-.505 1.732-.918 4.513-.918 2.78 0 4.811.413 4.512.918-.299.505-2.33.918-4.512.918-2.183 0-4.214-.413-4.513-.918zm-375.99-1.814c.225-.703 2.76-2.238 5.635-3.41 2.875-1.173 5.095-2.474 4.933-2.891-.16-.418-.247-3.1-.192-5.962.084-4.347.248-4.696.998-2.125.493 1.692.756 4.446.583 6.12a187.506 187.506 0 0 0-.41 4.443c-.11 1.561-2.33 2.698-8.08 4.135-2.557.64-3.736.534-3.467-.31zm193.451-.183c-.826-1.038-1.111-4.217-.742-8.26.331-3.616.834-14.737 1.117-24.714.506-17.785.577-18.199 3.656-21.176l3.14-3.036 28.92.132c15.907.072 38.247.655 49.646 1.295 11.4.64 21.96.724 23.47.186 1.52-.542 6.142-.356 10.37.416 6.785 1.24 7.258 1.5 4.276 2.357-1.922.552-5.111.4-7.476-.358-3.235-1.036-5.078-.922-8.553.529-3.654 1.525-5.324 1.593-9.54.388-6.903-1.972-16.83-2.391-56.138-2.371l-33.427.017-2.89 3.014c-2.727 2.844-2.932 4.031-3.64 21.104-.414 9.95-.705 20.57-.648 23.6l.103 5.508 42.245.179c59.734.253 72.164.538 68.061 1.562-1.936.483-27.615.977-57.064 1.097-44.265.182-53.775-.073-54.886-1.469zm123.098.573c-3.55-.395-5.89-1.102-5.2-1.57 1.741-1.186 14.671.333 13.901 1.632-.344.58-.99.966-1.436.856-.446-.11-3.715-.523-7.265-.918zm50.459.578c0-1.292 2.252-1.835 2.922-.704.405.684-.086 1.244-1.093 1.244-1.006 0-1.83-.243-1.83-.54zm20.14-.068c1.07-1.116 24.325-1.82 24.956-.755.311.525-5.33 1.07-12.535 1.21-7.205.139-12.794-.065-12.42-.455zm146.065-7.562c-.904-3.156-1.35-23.436-.533-24.287.868-.906 1.997 7.654 2.303 17.453.24 7.722-.593 10.94-1.77 6.834zm-348.68-13.378c.408-5.228 1.23-7.727 2.142-6.504.795 1.068-.664 12.139-1.6 12.139-.54 0-.785-2.536-.543-5.635zm256.403 4.41c0-.672.528-1.223 1.173-1.223.646 0 1.174.55 1.174 1.224 0 .673-.528 1.224-1.174 1.224-.645 0-1.173-.55-1.173-1.224zm97.807-11.934c.04-9.472-.574-15.396-1.446-13.96-.742 1.222-1.191.852-1.74-1.433-.914-3.795.137-6.946 2.315-6.946.9 0 1.635-.55 1.635-1.224 0-.673 2.64-1.224 5.867-1.224 3.248 0 5.868.563 5.868 1.262 0 .695-1.846 1.133-4.103.974-2.256-.158-4.698.334-5.427 1.094-1.204 1.256-1.685 5.181-1.016 8.299.666 3.106-.122 15.3-.989 15.3-.535 0-.969-.964-.964-2.142zm-354.036-7.776c-.412-4.109-.46-7.957-.108-8.552.352-.595.817-2.982 1.033-5.305.275-2.957-.152-4.442-1.42-4.95-2.95-1.18-79.917-.816-82.135.39-1.117.606-4.936.866-8.486.577-3.55-.29-20.008-.635-36.573-.767s-30.515-.653-30.999-1.158c-.484-.505.924-.94 3.13-.967 73.222-.884 153.241-1.234 155.363-.679 2.75.72 2.787.927 2.58 14.805-.116 7.742-.532 14.075-.924 14.076-.392 0-1.05-3.361-1.461-7.47zm-176.757 4.382c.84-1.056 1.485-3.96 1.433-6.454-.085-4.015.045-4.228 1.131-1.858 1.544 3.369.389 8.439-2.155 9.457-1.642.657-1.704.484-.409-1.145zm352.835-1.065c-.48-1.275-.597-2.606-.259-2.958 1.07-1.117 2.012.713 1.564 3.037-.411 2.13-.474 2.127-1.305-.08zM708.8 278.42c-.28-.505-.084-2.02.435-3.366.824-2.138.955-2.02 1.027.918.08 3.32-.468 4.24-1.462 2.448zm-192.37-3.565c.806-.34 2.126-.34 2.933 0 .807.34.147.617-1.467.617-1.613 0-2.274-.277-1.467-.617zm188.756-2.357c-.39-1.06-.71-2.98-.71-4.266s-1.055-3.026-2.346-3.867c-1.291-.84-2.347-2.254-2.347-3.14 0-3.397 5.196 2.203 6.58 7.093 1.322 4.672.318 8.242-1.177 4.18zm-164.809-2.953c0-1.683.266-2.371.592-1.53.326.842.326 2.219 0 3.06-.326.842-.592.153-.592-1.53zm-356.848 0c-.137-.336-.433-1.626-.658-2.866-.625-3.444-1.083-3.618-11.145-4.226-5.164-.311-9.39-1.087-9.39-1.723 0-1.263-115.355-.32-120.334.983-1.76.46-2.879.226-2.879-.603 0-.747.132-1.395.293-1.441 2.072-.594 59.194-1.627 87.13-1.577 43.568.08 56.345 1.14 57.686 4.787.543 1.475-.148 8.027-.703 6.666zm-71.651-2.988c0-.296.528-.88 1.173-1.296.646-.416 1.174-.173 1.174.54 0 .713-.528 1.296-1.174 1.296-.645 0-1.173-.243-1.173-.54zm405.431-.684c-.399-.673-.166-1.224.518-1.224.683 0 1.242.551 1.242 1.224 0 .673-.232 1.224-.517 1.224-.285 0-.844-.55-1.243-1.224zm-298.646-1.152c0-.713.528-1.296 1.173-1.296.646 0 1.174.243 1.174.54 0 .297-.528.88-1.174 1.296-.645.416-1.173.173-1.173-.54zm388.416-1.168c0-.701.879-.923 1.953-.494 1.313.526 1.675.313 1.104-.65-.466-.788-.245-1.432.492-1.432.738 0 1.12.688.852 1.53-.605 1.895-4.4 2.798-4.4 1.046zm-73.928-2.466c0-2.064-1.204-2.43-10.268-3.12-16.44-1.25-16.92-1.508-3.168-1.703 8.734-.123 13.426.296 14.375 1.286 1.705 1.778 1.869 5.875.234 5.875-.645 0-1.173-1.052-1.173-2.338zm6.361.313c.374-1.016.68-2.353.68-2.971 0-.618 1.056-1.124 2.347-1.124 1.29 0 2.347.61 2.347 1.355 0 .806.832 1.002 2.053.484 1.13-.479 6.014-1.107 10.855-1.395 4.84-.288 9.725-.73 10.854-.981 1.13-.252 2.054.041 2.054.651s-1.452 1.166-3.227 1.234c-6.586.253-12.762 1.036-18.475 2.34-10.493 2.397-10.215 2.385-9.488.407zm-515.194-.654c-.453-.764-.097-1.063.854-.716.896.328 2.854.123 4.351-.455 2.607-1.006 9.13-.148 7.982 1.05-1.208 1.26-12.45 1.364-13.187.121zm171.756-.58c.807-.34 2.127-.34 2.933 0 .807.34.147.618-1.466.618-1.614 0-2.274-.278-1.467-.618zm375.801-2.861c0-.674.233-1.224.518-1.224.284 0 .844.55 1.243 1.224.398.673.166 1.224-.518 1.224-.683 0-1.243-.551-1.243-1.224zm-401.91-1.224c-.4-.674-.167-1.224.517-1.224.683 0 1.242.55 1.242 1.224 0 .673-.232 1.224-.517 1.224-.285 0-.844-.551-1.243-1.224zm486.897.15c.733-1.236 16.653-1.03 17.863.233.444.462-3.537.84-8.846.84-5.31 0-9.367-.482-9.017-1.072zm-632.994-1.161c0-1.451 8.24-2.635 10.34-1.486.847.463 4.543.368 8.214-.212 8.807-1.391 20.368-1.247 21.824.272.768.8-.811 1.235-4.646 1.28-3.195.036-12.541.347-20.77.69-9.146.383-14.962.17-14.962-.544zm44.39-.343c-1.95-1.257 3.81-2.284 12.907-2.302 8.006-.015 8.843-.273 12.17-3.744 1.966-2.05 3.79-3.501 4.054-3.225 1.448 1.51 1.162 5.787-.481 7.18-1.654 1.402-1.794 1.294-1.089-.84.79-2.386.766-2.39-.923-.115-1.426 1.92-3.841 2.464-13.6 3.067-6.526.404-12.393.394-13.037-.02zm515.939-1.094c2.844-.755 2.168-.961-3.52-1.072-3.873-.076-14.17-.387-22.883-.692-8.713-.304-31.948-.94-51.633-1.412-20.573-.493-36.102-1.357-36.524-2.032-.45-.72-1.044-.65-1.536.18-1.06 1.79-14.366 1.762-15.429-.031-.596-1.008.991-1.15 5.803-.524 5.454.711 6.749.524 7.332-1.061.91-2.477 5.86-2.503 6.768-.036.55 1.494 1.194 1.61 3.083.555 1.314-.733 2.839-1.043 3.389-.689 1.03.665 19.162 1.328 69.946 2.555 16.135.39 33.584.951 38.776 1.247 5.192.295 11.038.059 12.993-.526 4.08-1.22 20.624-.281 19.792 1.124-.305.513-7.491.954-15.97.98-9.303.027-15.915.563-16.67 1.351-.69.719-2.6 1.241-4.245 1.162-2.836-.137-2.808-.194.528-1.08zm10.854.413c.807-.34 2.127-.34 2.934 0 .807.34.147.617-1.467.617-1.613 0-2.274-.278-1.467-.617zm104.145-.483c-7.152-.938-6.339-1.299 2.934-1.299 18.757 0 22.296.223 22.296 1.401 0 1.334-14.734 1.274-25.23-.102zm-595.284-.582c1.438-1.527 29.795-2.966 55.491-2.817 13.554.079 26.491.153 28.75.165 2.259.012 17.837-.422 34.617-.965 16.78-.543 34.207-1.044 38.724-1.114l8.215-.126 1.32-4.284c1.089-3.537 1.959-4.351 4.987-4.668 2.668-.279 3.667.126 3.667 1.487 0 2.758 4.004 4.513 9.055 3.97 2.442-.263 3.516-.234 2.386.064-1.13.298-2.054 1.192-2.056 1.986 0 .795-1.658 1.508-3.68 1.584-3.936.149-8.052-3.088-8.052-6.331 0-2.921-2.186-.863-4.065 3.828-1.76 4.393-1.903 4.446-11.777 4.376-3.905-.027-4.981.243-3.218.81 1.457.468-19.666.955-46.939 1.082-27.273.127-62.788.593-78.924 1.036-16.135.442-28.96.405-28.5-.083zm553.237-.755c-1.182-.701-3.162-.999-4.4-.661-1.237.337-2.523.153-2.856-.41-1.24-2.092 1.89-2.482 7.326-.914 3.133.904 8.184 1.333 11.467.974 7.283-.798 22.884-.126 22.878.984-.01 1.387-32.08 1.412-34.415.027zm-369.252-1.042c0-.673.233-1.224.518-1.224.284 0 .844.551 1.243 1.224.398.674.166 1.224-.518 1.224s-1.243-.55-1.243-1.224zm356.733 0c-.968-.652-1.232-1.186-.587-1.186.646 0 1.966.534 2.934 1.186.968.653 1.232 1.187.587 1.187-.646 0-1.966-.534-2.934-1.187zM101.895 235.8c.213-7.8.697-14.506 1.078-14.903.38-.397.692 5.673.692 13.487 0 7.815-.485 14.521-1.078 14.903-.639.412-.92-5.078-.692-13.487zm266.385 12.873c-20.872-1.093-9.907-1.607 36.08-1.692 28.258-.052 42.986.342 42.73 1.144-.423 1.332-56.405 1.722-78.81.548zm-78.035-1.09c0-1.21 11.405-.822 12.605.43.382.398-2.298.724-5.955.724s-6.65-.519-6.65-1.154zm15.255.236c0-.505 3.036-.947 6.748-.982 3.71-.035 8.712-.421 11.114-.857 2.506-.456 4.676-.273 5.091.428.678 1.144 5.455.785 11.851-.89 2.213-.579 2.627-.327 2.048 1.247-.624 1.695-3.26 1.972-18.789 1.972-9.934 0-18.063-.413-18.063-.918zm41.071-1.389c1.777-1.535 4.643-2.545 7.265-2.562 6.427-.04 6.463 2.018.048 2.731-3.054.34-6.609 1.011-7.9 1.492-1.896.706-1.783.387.587-1.66zm105.671-22.424c-.023-12.256-.34-23.962-.704-26.012-1.12-6.311 2.785-7.191 28.607-6.447 12.05.347 23.494 1.193 25.43 1.88 2.774.984 1.53 1.131-5.867.696-21.3-1.253-42.612-.958-44.43.615-1.535 1.33-1.717 5.155-1.263 26.552.33 15.586.104 25-.6 25-.681 0-1.147-8.852-1.173-22.284zm-6.317 20.243c-1.069-1.114-.959-11.69.14-13.492.488-.8.923 2.092.967 6.427.043 4.334-.012 7.881-.123 7.881s-.554-.367-.984-.816zm-349.843-1.555c-.427-.721-.459-7.78-.072-15.689.953-19.458.048-26.549-3.612-28.288-1.548-.736-2.815-.858-2.815-.271 0 1.771-3.552 2.621-5.773 1.381-1.405-.784-2.538-.686-3.485.302-.927.967-4.076 1.275-9.274.908-4.33-.306-16.716-.57-27.526-.588-18.116-.029-22.886-.68-17.602-2.403 1.13-.369 11.889-.607 23.91-.53 12.022.078 22.415-.217 23.095-.656.681-.439 1.55-.27 1.932.373.437.738 1.996.698 4.212-.108 2.545-.926 3.97-.889 5.15.132 1.118.968 1.87 1.009 2.392.129.862-1.456 8.81-1.716 10.596-.347.646.495 1.32 5.03 1.497 10.08.178 5.05.834 9.363 1.458 9.585.693.248.61 1.426-.213 3.03-.74 1.443-1.475 7.22-1.633 12.835-.288 10.253-.796 12.556-2.237 10.125zm523.306-2.831c-.492-2.188-.954-7.668-1.027-12.177-.077-4.748-.75-8.844-1.6-9.732-2.001-2.09-1.841-4.374.398-5.682 1.695-.989 1.687-1.274-.084-3.12-1.071-1.118-1.482-2.033-.913-2.033 1.704 0 1.35-9.605-.41-11.129-.89-.77-2.719-1.1-4.064-.733-1.788.487-2.273.196-1.804-1.08.487-1.323-.558-1.804-4.307-1.984-2.723-.13.33-.543 6.784-.918 10.06-.584 7.667-.829-16.76-1.716-23.25-.844-28.853-.731-30.442.612-1.64 1.387-1.794 1.38-.975-.036.773-1.339.157-1.553-3.002-1.046-2.186.35-5.162 1.035-6.614 1.52-1.592.532-2.64.375-2.64-.394 0-.703.924-1.53 2.053-1.837 1.13-.308-3.227-.568-9.681-.577-8.592-.012-10.642.252-7.657.984 2.243.55 4.451.76 4.907.467.455-.294 1.16.026 1.565.71.405.684.072 1.244-.74 1.244-.96 0-1.077.418-.333 1.194.63.657 4.958 1.345 9.62 1.53 4.661.185 8.476.75 8.478 1.254 0 .505-.394.96-.878 1.012-.484.052-1.919.296-3.187.543-1.27.246-2.865-.034-3.546-.624-.681-.59-5.056-1.236-9.721-1.435-4.665-.2-8.482-.788-8.482-1.307 0-.518 1.452-.951 3.227-.962 2.514-.014 2.838-.28 1.466-1.205-.968-.653-2.915-1.195-4.327-1.205-1.755-.013-2.517-.725-2.406-2.25.117-1.62.88-2.089 2.782-1.71 2.057.41 2.524.034 2.167-1.746-.761-3.79-1.549-45.594-.908-48.151.33-1.314 1.466-2.657 2.526-2.986 2.851-.885 13.715-.864 34.784.068 10.326.457 21.415.66 24.642.45 3.227-.209 7.584-.318 9.681-.243 4.514.162 7.548.234 11.148.264 3.705.03 21.805.695 26.472.972 2.136.127 3.581.74 3.212 1.364-.37.624-3.44.836-6.823.472-3.383-.365-8.065-.111-10.404.563-3.274.942-5.092.801-7.891-.613-2.17-1.096-4.475-1.454-5.715-.887-1.728.79-10.485 1.422-22.027 1.59-5.719.082-10.674-.5-12.026-1.412-.85-.574-2.558-.19-4.074.918-3.176 2.32-5.195 2.5-3.451.31 1.038-1.306-2.136-1.564-17.285-1.409-10.207.105-19.232.626-20.057 1.157-1.148.74-1.333 4.434-.788 15.79.392 8.154.724 18.466.74 22.917l.028 8.093 7.335.879c4.033.483 14.198 1.131 22.589 1.44 8.39.308 25.552 1.11 38.137 1.783 12.586.673 26.315 1.193 30.51 1.156 4.195-.037 10.46.422 13.923 1.02 3.614.622 8.112.63 10.561.015 2.732-.685 6.93-.541 11.673.4 5.086 1.01 8.396 1.09 10.561.256 1.735-.668 5.627-1 8.649-.735 4.519.394 5.367.839 4.78 2.505-1.157 3.276-2.494 3.624-11.834 3.082-9.736-.565-12.973-1.669-4.895-1.669 2.797 0 4.858-.237 4.58-.527-1.014-1.057-51.238-2.052-61.955-1.228-10.697.824-10.91.898-7.215 2.52l3.81 1.67-.273 10.105c-.33 12.256-.24 13.052 1.207 10.718.683-1.104 1.145-1.255 1.155-.379.01.802-.445 1.757-1.011 2.122-.566.365-.847 6.181-.624 12.925.224 6.743.225 12.261.003 12.261-.221 0-.805-1.79-1.297-3.978zm75.386-47.057c-1.142-.31-2.726-.29-3.52.045-.795.336.14.59 2.076.565 1.936-.025 2.586-.3 1.444-.61zm-68.733 47.363c0-1.683.266-2.372.592-1.53.325.841.325 2.218 0 3.06-.326.841-.592.153-.592-1.53zm-557.86-.866c1.46-.293 3.572-.282 4.694.025 1.122.306-.073.546-2.654.532-2.582-.013-3.5-.264-2.04-.557zm-.014-2.393c.807-.34 2.127-.34 2.934 0 .807.34.147.617-1.467.617-1.613 0-2.273-.277-1.467-.617zm538.009-.643c.725-2.27 3.251-2.646 3.251-.484 0 1.066-.836 1.938-1.858 1.938-1.022 0-1.649-.654-1.393-1.454zm-327.415-3.7c-.078-2.851.19-3.44.977-2.142 1.364 2.25 1.443 6.072.125 6.072-.547 0-1.043-1.769-1.102-3.93zm292.724 3.114c-1.264-1.319-.906-2.545.96-3.292 1.024-.41 2.25.293 2.975 1.705 1.02 1.989.855 2.403-.96 2.403-1.206 0-2.544-.368-2.975-.816zm54.556-1.633c0-1.683.266-2.371.592-1.53.325.842.325 2.219 0 3.06-.326.842-.592.154-.592-1.53zm-.675-4.732c-.505-.853-.602-1.881-.215-2.285 1.05-1.096 2.196.515 1.629 2.29-.398 1.244-.674 1.243-1.414-.005zm-347.488-4.201c-.372-1.548-.778-8.846-.902-16.22l-.226-13.405 3.888-2.025c3.473-1.809 10.874-2.033 69.235-2.099 40.48-.045 66.016.38 67.106 1.118 1.156.782-16.167 1.22-50.459 1.279-28.72.048-54.331.117-56.913.153-2.581.035-9.182-.076-14.668-.248-5.486-.172-11.354.263-13.04.967-2.964 1.237-3.054 1.576-2.72 10.248.19 4.932.43 9.52.533 10.192.297 1.934-.367 12.853-.783 12.853-.205 0-.678-1.266-1.05-2.813zm-5.61-2.39c-.351-2.187-.697-8.932-.77-14.987-.073-6.056-.601-11.499-1.174-12.097-.903-.942-4.618-1.013-16.163-.311-3.138.19-3.483 1.587-.586 2.377 1.62.441 1.522.59-.462.702-1.383.078-2.847-.762-3.253-1.867-.658-1.788-2.83-1.933-19.781-1.322-10.474.378-20.84 1.365-23.036 2.194-3.38 1.275-4.196 1.217-5.314-.378-1.051-1.5-3.236-1.79-10.675-1.416-5.145.258-18.331.627-29.303.819-10.972.191-20.609.778-21.416 1.302-.806.525-1.466.508-1.466-.036 0-1.578-24.832-.907-29.804.804-3.28 1.13-4.07 1.842-2.9 2.614 2.503 1.654-.418 1.2-3.403-.53-2.565-1.485-2.458-1.615 2.934-3.543 4.442-1.589 12.494-2.148 39.04-2.71 18.394-.39 38.07-1.059 43.725-1.486 8.77-.663 10.61-.467 12.517 1.333 1.89 1.783 2.66 1.872 4.974.57 3.036-1.709 63.823-2.953 66.298-1.357.893.577 1.507 6.497 1.773 17.093.386 15.453-.382 20.809-1.756 12.233zm352.965-5.498c.195-4.55.478-8.823.628-9.496.61-2.74-.08-5.605-1.179-4.896-1.514.976-1.48.205.16-3.548 1.7-3.893 2.786-4.266 9.228-3.168l5.28.901-5.61.153c-6.402.175-7.953 2.177-5.456 7.044 1.234 2.407 1.268 3.552.156 5.41-.776 1.295-1.41 5.084-1.41 8.42 0 3.335-.485 6.377-1.077 6.758-.624.402-.926-2.78-.72-7.578zm-179.926.909c.114-3.367.647-6.12 1.185-6.12.537 0 .85 2.75.694 6.11-.156 3.362-.69 6.116-1.185 6.121-.496.005-.808-2.745-.694-6.111zm158.938 4.11c-.618-1.68-.446-1.755 1.048-.461 2.036 1.762 2.248 2.47.74 2.47-.577 0-1.381-.903-1.788-2.008zm40.704-3.626c.39-.407 1.402-.45 2.249-.096.936.39.658.68-.709.739-1.237.053-1.93-.236-1.54-.643zm-543.18-3.47c-.356-.97-.092-2.76.588-3.978 1.05-1.884 1.242-1.62 1.272 1.761.038 4.197-.775 5.165-1.86 2.217zm78.751-5.593c-.915-1.545 4.333-3.765 5.713-2.417.557.544.658 1.589.224 2.32-.992 1.675-4.963 1.74-5.937.097zm264.206-5.326c-1.021-9.068-1.723-10.577-4.92-10.577-1.507 0-3.004-.446-3.326-.99-.323-.545 1.626-.683 4.33-.307l4.919.685 1.053 7.716c.682 5.006.639 8.146-.125 8.942-.786.82-1.426-.993-1.93-5.469zm-331.674 3.244c.968-.372 2.761-1.568 3.985-2.658 2.118-1.887 2.158-1.85.839.772-.835 1.659-2.42 2.716-3.985 2.657-1.726-.064-2.007-.323-.839-.771zm508.203-.866c-.051-1.29.226-2.013.616-1.607.39.407.431 1.463.093 2.346-.375.977-.653.687-.71-.739zm31.59-6.63c0-.915-2.319-1.428-6.454-1.428-3.55 0-6.454-.484-6.454-1.074 0-1.508 11.689-.688 13.238.928.701.73.913 1.705.472 2.165-.44.46-.802.194-.802-.591zm18.612-.336c-1.085-.717-.376-1.061 2.217-1.074 2.098-.01 3.814.193 3.814.45 0 1.114-4.574 1.587-6.03.624zm-15.091-1.058c2.128-1.476 5.511-1.626 6.309-.28.319.54-1.366 1.097-3.745 1.24-3.215.194-3.873-.053-2.564-.96zm-459.68-.774c.39-.407 1.402-.45 2.25-.097.935.391.657.681-.71.74-1.237.053-1.93-.236-1.54-.643zm219.706-1.709c-.398-.673-.197-1.224.449-1.224.645 0 1.5.551 1.898 1.224.4.674.198 1.224-.448 1.224-.645 0-1.5-.55-1.899-1.224zm176.048.234c-.24-.251-7.342-.432-15.781-.402-8.44.03-15.344-.437-15.344-1.037 0-1.337-.568-1.326 25.003-.459 11.493.39 20.63.986 20.305 1.325-.693.724-13.54 1.243-14.183.573zm127-1.077c-1.13-.308-2.054-1.013-2.054-1.566 0-.553-2.145-1.22-4.767-1.48-4.11-.409-4.484-.257-2.71 1.096 2.291 1.747.776 2.144-1.768.463-3.154-2.084-.15-3.38 6.555-2.829 6.867.565 12.823 2.577 7.97 2.693-1.948.046-2.048.257-.586 1.242 1.817 1.225.928 1.353-2.64.38zm-206.237-1.76c0-1.32 6.055-1.272 12.322.099 4.134.904 3.68 1.023-3.814.999-4.68-.016-8.508-.51-8.508-1.098zm149.91.569c.807-.34 2.127-.34 2.934 0 .807.34.146.617-1.467.617-1.614 0-2.274-.278-1.467-.617zm5.845.008c.795-.336 2.379-.356 3.52-.046 1.142.31.492.585-1.444.61-1.936.025-2.87-.23-2.076-.564zm-249.632-1.646c0-1.425 7.467-1.425 11.735 0 2.18.729 1.05 1.012-4.4 1.102-4.186.07-7.335-.403-7.335-1.102zm-392.873-1.922c-2.696-1.97-2.697-1.985-2.086-26.036.336-13.236.806-25.166 1.043-26.513.349-1.978 1.537-2.531 6.193-2.882 4.586-.346 5.282-.662 3.414-1.549-1.82-.865-1.575-.955 1.095-.404 4.005.826 51.017.764 52.31-.07.48-.309 20.273-.819 43.985-1.133 23.712-.314 43.403-.874 43.758-1.245 1.327-1.384 10.71-.61 12.265 1.014 1.325 1.382 1.989 1.403 3.676.116 2.108-1.608 3.476-1.612 12.224-.033 3.42.617 5.586.424 6.775-.606 2.54-2.199 3.341-.612.95 1.882-2.04 2.129-4.618 2.12-14.241-.049-3.252-.733-3.723-.56-3.098 1.139.57 1.548.108 1.931-2.033 1.687-2.758-.314-2.77-.256-3.078 14.374-.17 8.079-.792 17.158-1.383 20.177-.59 3.018-.677 6.048-.192 6.732 1.534 2.164 1.206 6.532-.608 8.102-.961.833-3.434 1.68-5.495 1.884-2.061.203-6.124.755-9.028 1.226-5.75.931-38.795.77-39.72-.193-.313-.327.971-.63 2.854-.673 12.226-.283 35.772-1.307 39.213-1.705 2.259-.262 4.93-.518 5.936-.57 1.006-.052 2.754-.8 3.883-1.66 1.692-1.291 1.835-2.167.813-4.97-.807-2.215-1.753-3.09-2.709-2.508-.808.493-.413-.357.878-1.888 2.095-2.486 2.39-4.874 2.743-22.244l.397-19.46h-5.384c-2.961 0-5.384.414-5.384.919 0 .505-13.333.953-29.63.996-16.296.043-47.32.481-68.94.973-21.622.492-41.221.863-43.555.823-6.892-.118-7.217 1.043-7.601 27.154-.307 20.851-.126 23.612 1.643 25.013 1.409 1.118 7.08 1.588 19.491 1.615 9.628.022 17.242.313 16.921.647-.32.335-8.461.897-18.09 1.25-14.878.544-17.914.344-20.205-1.332zm421.916 1.111c.807-.34 2.127-.34 2.934 0 .807.34.147.618-1.467.618-1.613 0-2.273-.278-1.467-.618zm146.66.008c.795-.335 2.38-.355 3.521-.045 1.142.31.492.585-1.444.61-1.936.025-2.87-.23-2.076-.565zm-518.71-1.195c-.52-.544-2.762-.826-4.985-.626-3.275.294-3.907-.003-3.332-1.566.39-1.062 1.93-1.93 3.42-1.93s2.946-.689 3.234-1.53c.288-.842.977-1.087 1.53-.546.555.542.249 1.474-.679 2.072-2.591 1.67 3.75 3.777 7.836 2.603 1.819-.523 4.627-.55 6.24-.06 2.847.863 2.83.893-.587 1.024-1.936.075-5.368.454-7.627.842-2.26.389-4.532.261-5.05-.283zm17.591-.016c-.444-.463-.807-1.644-.807-2.624 0-1.352.38-1.453 1.575-.419.866.75 1.995.955 2.508.456.513-.499.695-.115.405.852-.614 2.048-2.52 2.946-3.68 1.735zm6.79-.488c-1.038-1.75 1.616-4.842 4.156-4.842 2.242 0 3.468 2.128 2.645 4.59-.619 1.851-5.742 2.041-6.802.252zm469.73.391c2.11-.272 5.278-.267 7.041.012 1.764.28.038.503-3.834.496-3.873-.007-5.316-.236-3.206-.508zm19.366.148c.39-.407 1.402-.45 2.25-.097.935.39.657.68-.71.74-1.237.053-1.93-.237-1.54-.643zm-342.111-1.288c.794-.335 2.379-.356 3.52-.045 1.142.31.492.584-1.444.61-1.936.024-2.87-.23-2.076-.565zm15.21-1.205c.365-.992-.178-1.664-1.343-1.664-1.076 0-1.634.542-1.241 1.205.43.726-.594.986-2.571.654-7.175-1.205-21.989-1.732-20.436-.727 2.133 1.381-8.505.391-14.005-1.303-3.12-.961-7.33-.793-16.757.668-6.926 1.073-13.374 1.951-14.33 1.951-1.735 0-1.735-.9-.005-12.24.256-1.684.506-5.434.554-8.335.056-3.381.533-4.987 1.329-4.474.683.44.941 2.263.573 4.05-.78 3.794-1.16 17.22-.504 17.823.247.227 5.432-.311 11.522-1.196 9.047-1.314 12.526-1.321 19.015-.041 4.369.861 8.583 1.153 9.366.649 1.393-.899 17.724-.304 20.752.755.842.295 3.219-.192 5.28-1.083 2.519-1.088 4.903-1.274 7.269-.568 1.936.579 11.177.726 20.535.327 43.422-1.848 68.61-2.563 71.32-2.022 2 .399 2.693.143 2.14-.79-1.059-1.786-1.357-41.546-.32-42.627.728-.76.917 1.604 1.333 16.722.742 26.997.708 26.662 2.186 21.617 1.426-4.87 3.601-5.001 2.434-.147-.364 1.51-.081 3.118.627 3.575.708.456.984 1.342.612 1.97-.408.688 8.286 1.12 21.984 1.091 53.147-.11 129.118 1.305 130.985 2.441 1.268.772 1.427 1.218.443 1.242-.845.02-1.21.588-.811 1.261.404.683-.474 1.216-1.985 1.205-2.188-.015-2.37-.25-.949-1.22 1.22-.833-1.664-1.22-9.388-1.258-6.131-.031-30.158-.312-53.392-.624-28.129-.377-41.657-.161-40.485.646 1.508 1.04 1.466 1.216-.293 1.232-1.13.01-2.054-.532-2.054-1.205 0-.774-8.362-1.224-22.738-1.224-19.09 0-22.981-.304-24.246-1.894-.964-1.212-1.78-1.434-2.264-.617-.416.703-3.895 1.52-7.731 1.814-3.836.296-8.03.9-9.321 1.344-1.899.653-2.01.555-.587-.513 1.293-.97-1.98-1.271-12.321-1.134-11.203.15-12.762.36-7.628 1.03 3.55.463-.279.575-8.508.249-9.867-.391-14.961-.163-14.961.67 0 .694-2.615 1.454-5.81 1.687-6.464.472-6.51-.95-.057-1.74 2.259-.278-.583-.487-6.315-.466-5.74.02-9.43.444-8.214.942 1.335.547-1.037 1-6.007 1.146-4.518.133-9.357.37-10.754.526-1.725.193-2.344-.25-1.928-1.38zm-145.149-.478c0-.653.792-1.186 1.76-1.186s1.76.216 1.76.48c0 .266-.792.799-1.76 1.187-.968.387-1.76.17-1.76-.481zm217.384-.806c1.13-.308 2.978-.308 4.107 0 1.13.308.206.56-2.053.56-2.26 0-3.183-.252-2.054-.56zm24.35.375c0-.258 1.056-.758 2.346-1.11 1.291-.352 2.347-.14 2.347.47s-1.056 1.109-2.347 1.109c-1.29 0-2.347-.211-2.347-.47zm164.871-.755c-.399-.673-.197-1.224.448-1.224.646 0 1.5.55 1.899 1.224.399.673.197 1.224-.448 1.224-.646 0-1.5-.55-1.899-1.224zm-434.768-3.536c0-1.422.528-2.584 1.173-2.584.646 0 1.174.492 1.174 1.094 0 .602 1.32 1.015 2.933.918 1.701-.102 2.933-.922 2.933-1.951.001-1.38.314-1.449 1.41-.306 1.92 2.003.168 3.536-5.223 4.57-3.95.757-4.4.58-4.4-1.741zm164.872-.136c.398-.674 1.882-1.186 3.296-1.138 2.479.083 2.487.123.224 1.138-3.23 1.447-4.378 1.447-3.52 0zm-163.699-4.824c0-.713.529-1.297 1.174-1.297.645 0 1.173.243 1.173.54 0 .297-.528.88-1.173 1.296-.645.416-1.174.174-1.174-.54zm136.122.612c0-.297.528-.88 1.174-1.297.645-.416 1.173-.173 1.173.54 0 .713-.528 1.296-1.173 1.296-.646 0-1.174-.242-1.174-.54zm303.587-5.58c-.337-1.347-.135-2.449.45-2.449s1.064 1.102 1.064 2.448c0 1.347-.203 2.448-.45 2.448-.248 0-.726-1.101-1.064-2.448zm-165.31-8.875c-.302-11.99.199-18.055 1.49-18.055.439 0 1.102.826 1.473 1.836.372 1.01.032 1.844-.754 1.855-1.003.013-.955.333.162 1.07 1.028.68 1.16 1.331.373 1.839-.755.487-.998 4.274-.638 9.945.382 6.033.155 9.16-.667 9.16-.727 0-1.327-3.19-1.44-7.65zm340.496 6.426c0-.673.233-1.224.518-1.224.284 0 .843.55 1.242 1.224.4.673.166 1.224-.517 1.224-.684 0-1.243-.55-1.243-1.224zm-238.806-2.251c-1.87-1.95-.216-3.856 3.233-3.725l3.814.145-3.52.884-3.52.883 4.106.519 4.108.518-3.82.69c-2.102.38-4.082.419-4.401.086zm-413.439-2.214c.227-1.232 1.38-2.433 2.56-2.67 1.55-.312 2.032.19 1.733 1.807-.227 1.232-1.38 2.434-2.56 2.67-1.55.312-2.032-.19-1.733-1.807zm477.008-.023c-.43-.45-.782-3.846-.782-7.549 0-3.702.396-6.319.88-5.814.666.695 1.435 14.179.809 14.179-.069 0-.477-.367-.907-.816zm4.097-1.632c0-1.683.266-2.372.592-1.53.325.841.325 2.218 0 3.06-.326.841-.592.153-.592-1.53zm-412.462-3.265c-.43-.448-.782-1.385-.782-2.08 0-.767.546-.695 1.388.183.764.797 1.116 1.733.782 2.081-.333.348-.958.265-1.388-.184zm581.868-6.222c-.387-3.198-.921-7.261-1.187-9.03-.525-3.495 1.889-7.999 3.671-6.85.609.393 1.188 2.818 1.289 5.39.1 2.572-.1 3.984-.442 3.138-.87-2.142-2.77-.644-2.77 2.184 0 1.575.574 2.107 1.76 1.633 1.388-.556 1.76.356 1.76 4.322 0 7.436-3.159 6.827-4.08-.787zm2.443 1.25c-.39-.407-.667.316-.616 1.606.056 1.426.334 1.716.709.74.339-.884.297-1.94-.093-2.346zm-.172-13.881c-1.006-1.698-1.71-1.381-1.71.769 0 1.05.536 1.562 1.192 1.14.656-.424.89-1.282.518-1.91zm-592.474 15.639c.441-1.208 1.097-1.887 1.459-1.51.36.377 0 1.364-.802 2.195-1.159 1.2-1.293 1.06-.657-.685zm79.525-6.374c0-1.01.44-1.836.978-1.836s.978.826.978 1.836c0 1.01-.44 1.836-.978 1.836s-.978-.826-.978-1.836zm-138.273-.612c-.399-.673-.166-1.224.517-1.224.684 0 1.243.55 1.243 1.224 0 .673-.233 1.224-.517 1.224-.285 0-.844-.55-1.243-1.224zm438.381-.51c-.05-1.29.226-2.013.616-1.607.39.407.432 1.463.093 2.346-.375.977-.653.687-.709-.74zm36.08-7.31c-.27-4.447-.996-8.608-1.61-9.245-1.813-1.878-16.149-3.815-19.954-2.695-1.903.56-11.646.611-21.65.113-10.003-.497-40.782-.825-68.397-.727-43.187.152-50.375.434-51.402 2.013-.979 1.506-1.127 1.396-.823-.612.589-3.887 8.96-4.288 73.097-3.506 32.27.394 65.626.793 74.124.887 8.497.094 15.888.627 16.423 1.186 1.232 1.284 2.45 17.698 1.44 19.402-.415.7-.976-2.368-1.247-6.815zm-208.79 2.82c-1.305-.86-1.206-1.087.48-1.102 1.168-.01 1.797-.57 1.398-1.242-.398-.674-.197-1.225.449-1.225 1.926 0 2.341 1.738.776 3.245-.904.87-2.09.995-3.104.325zm67.82.545c-1.296-1.352.39-2.893 3.069-2.803 2.478.083 2.486.123.224 1.138-2.144.96-2.09 1.059.619 1.138 1.631.047 4.14-.772 5.574-1.82 3.065-2.24 3.563-.957.554 1.426-2.13 1.686-8.726 2.292-10.04.92zm249.451-1.18c.39-.408 1.402-.451 2.25-.098.935.391.657.681-.71.74-1.237.053-1.93-.236-1.54-.643zm-446.234-2.832c0-.729.49-1.326 1.088-1.326.598 0 1.355-.964 1.683-2.142.36-1.29.51-.962.38.822-.21 2.864-3.15 5.334-3.15 2.646zm204.66-.721c2.165-1.71 2.147-1.803-.587-2.944-2.732-1.14-2.74-1.18-.253-1.255 1.414-.043 2.912.497 3.328 1.2.89 1.501-1.49 4.86-3.402 4.804-.728-.022-.317-.834.913-1.805zm-11.894-.12c.39-.407 1.402-.45 2.25-.097.935.391.657.681-.71.74-1.237.053-1.93-.236-1.54-.643zm-6.498-4.309c.796-.836 1.743-1.212 2.104-.835.361.376-.29 1.06-1.447 1.52-1.672.665-1.807.524-.657-.685zm136.64-.666c.497-2.695 5.075-3.06 5.075-.406 0 1.01-1.235 2.019-2.744 2.242-2.129.314-2.652-.098-2.331-1.836zm141.197.804c-1.29-.497-2.707-.688-3.146-.425-.44.264-1.084-.003-1.433-.59-.348-.59 3.18-.885 7.84-.66 4.66.227 9.75.424 11.31.439 1.56.014 2.565.308 2.235.652-1.028 1.073-14.335 1.535-16.806.584zm-296.69-2.638c-2.362-2.688-1.908-4.18.927-3.046.996.399 1.81 1.844 1.81 3.212 0 2.954.004 2.954-2.738-.166zm341.282 1.78c-4.373-.626-6.983-3.721-5.117-6.066 1.44-1.81 4.53-2.214 4.53-.593 0 .57 1.188 1.686 2.64 2.48l2.64 1.443-2.64-.53c-1.452-.29-2.64.033-2.64.72 0 .694 1.584 1.005 3.572.701 1.965-.3 3.894-.003 4.288.662.401.677.12.824-.638.336-.745-.48-1.355-.29-1.355.423s-.396 1.214-.88 1.113c-.484-.101-2.464-.41-4.4-.688zm-482.587-2.838c-1.452-.609-2.64-1.304-2.64-1.544s4.092-.493 9.094-.563c5.002-.07 12.923-.487 17.602-.927 6.237-.587 8.508-.411 8.508.66 0 .998-1.264 1.213-3.997.678-2.43-.475-5.994-.056-9.094 1.07-5.613 2.04-15.355 2.352-19.473.626zM55.87 131.71c.39-.406 1.402-.45 2.25-.096.936.39.658.68-.71.74-1.236.052-1.93-.237-1.54-.644zm198.858-.636c.796-.837 1.743-1.213 2.105-.836.36.377-.29 1.062-1.448 1.521-1.672.664-1.807.524-.657-.685zm4.37.067c-.383-.646 2.022-1.16 5.555-1.187 3.427-.027 25.768-.244 49.648-.482 27.16-.271 41.441-.029 38.139.648-7.405 1.518-92.496 2.448-93.342 1.02zm408.709.498c.807-.34 2.127-.34 2.934 0 .806.34.146.618-1.467.618-1.614 0-2.274-.278-1.467-.618zm-642.692-1.408c-.685-.238-1.246-.8-1.246-1.25 0-1.195 10.429-1.417 11.128-.237.608 1.026-7.638 2.267-9.882 1.487zm15.772-.224c-1.316-2.222 4.508-3.965 8.875-2.657l4.03 1.207-5.867.232c-4.774.19-5.32.415-2.934 1.213l2.934.98-3.158.122c-1.736.067-3.482-.427-3.88-1.097zm592.01.057c2.349-.835 2.48-1.067.662-1.164-1.25-.067-3.566-1.362-5.148-2.876-1.999-1.914-3.037-2.287-3.4-1.225-.555 1.62-3.947 2.18-3.71.613.392-2.593-.23-4.503-1.037-3.187-.474.772-.857-9.556-.851-22.951.006-13.396-.39-24.355-.88-24.355s-.892-.433-.892-.961c0-.529 3.433-1.007 7.628-1.063 4.195-.056 7.627.377 7.627.961 0 .585-2.64 1.063-5.867 1.063h-5.867l.131 11.322c.072 6.228.468 16.556.88 22.952.72 11.19.858 11.644 3.654 12.056 1.597.235 3.607 1.474 4.467 2.754.859 1.28 2.627 2.327 3.929 2.327 3.553 0 2.306 4.223-1.339 4.53l-2.921.247zm13.225.422c.39-.406 1.402-.45 2.25-.096.936.39.658.68-.71.74-1.237.052-1.93-.237-1.54-.644zm69.797-.07c.807-.34 2.127-.34 2.934 0 .806.339.146.617-1.467.617-1.614 0-2.274-.278-1.467-.618zm5.305.07c.39-.406 1.402-.45 2.25-.096.935.39.657.68-.71.74-1.237.052-1.93-.237-1.54-.644zm-39.898-1.224c.39-.407 1.402-.45 2.25-.096.935.39.657.68-.71.74-1.237.052-1.93-.237-1.54-.644zm-112.383-2.507c-8.112-1.16-14.905-1.375-22.003-.693-5.866.563-10.268.522-10.268-.095 0-.594-9.637-1.033-21.415-.976-26.18.128-56.456-.71-61.607-1.707-2.461-.476-3.855-1.478-3.93-2.824-.063-1.148-.23-3.189-.37-4.535-.14-1.346-.43-9.058-.647-17.137-.298-11.145-.59-13.36-1.214-9.18-.569 3.816-.931 4.568-1.18 2.448-.873-7.414-.719-10.016.768-13.005.872-1.754 1.586-4.753 1.586-6.665 0-2.97.556-3.574 3.813-4.144 2.098-.367 9.018-.511 15.379-.32 9.758.292 11.818.708 13.189 2.664.894 1.275 1.338 2.618.986 2.984-.35.366-1.118-.144-1.704-1.135-.807-1.362-4.004-1.871-13.138-2.09-18.813-.453-17.117-2.642-16.545 21.337.285 11.978 1.009 21.127 1.744 22.051.904 1.137.836 2.11-.245 3.468-1.032 1.297-1.124 2.283-.292 3.15.745.777 14.039 1.514 34.51 1.912 18.313.357 44.65.925 58.527 1.263 13.876.339 35.394.694 47.819.791 12.424.097 22.589.551 22.589 1.01 0 .457 1.188 1.071 2.64 1.363 1.452.292-5.634.605-15.746.697-10.112.092-19.09.365-19.949.607-.86.242-6.843-.316-13.297-1.24zm69.43 1.207c-.43-.45-.783-1.147-.783-1.551 0-1.248 9.89-1.113 11.39.156.779.659 1.93.866 2.56.46.628-.406 1.475-.178 1.88.507.824 1.39-13.728 1.803-15.047.428zm16.82-.228c0-.573 2.64-.99 5.866-.924 3.228.065 5.868.535 5.868 1.043 0 .509-2.64.925-5.868.925-3.227 0-5.867-.47-5.867-1.044zm-531.293-.994c-.811-.34-1.19-1.1-.843-1.686.76-1.283 4.077-.14 4.077 1.407 0 1.179-.91 1.257-3.234.28zm23.77-.315c1.612-.81-.957-1-8.215-.607-7.38.4-9.79.216-8-.612 1.409-.651 11.046-1.312 21.416-1.468 10.37-.156 18.854-.771 18.854-1.367 0-.595.5-.76 1.11-.367.61.394 6.137.874 12.28 1.068 8.387.264 11.318-.049 11.762-1.255.785-2.134 3.55-2.044 5.315.174 1.089 1.368 3.368 1.643 9.825 1.186 4.624-.328 18.55-.716 30.945-.864 21-.25 22.658-.435 24.312-2.716 1.356-1.871 1.804-2.015 1.901-.612.07 1.01.285 2.663.478 3.672.28 1.464-.72 1.747-4.934 1.395-3.758-.314-5.043-.037-4.451.962.606 1.023-1.184 1.234-6.598.778-18.524-1.563-32.005-1.916-30.373-.796 1.104.757-2.395.924-9.974.475-6.42-.38-12.283-1.192-13.027-1.804-.846-.695-1.522-.583-1.804.3-.317.994-7.375 1.468-23.876 1.603-12.885.106-24.746.607-26.36 1.113-2.373.745-2.485.696-.587-.258zm-59.847-1.241c1.29-.604 3.307-1.417 4.481-1.806 1.559-.517 1.921-1.41 1.344-3.308-.572-1.88-.351-2.446.799-2.046 1.869.649 2.544 3.45 1.295 5.375-.483.744-2.99 1.698-5.572 2.118-3.218.524-3.956.42-2.347-.333zm12.26-.118c-1.07-.69-1.257-6.48-.754-23.39.37-12.423.239-20.83-.293-18.8-.746 2.85-.992 3.08-1.1 1.026-.076-1.455-1.763-4.071-3.75-5.814-3.213-2.821-4.622-3.17-12.83-3.17-5.073 0-10.558.53-12.19 1.178-1.723.683-3.24.719-3.617.085-1.199-2.024 1.52-2.526 15.243-2.813 13.104-.274 13.76-.166 15.923 2.604 1.24 1.59 2.256 2.389 2.256 1.775 0-.613-.634-1.776-1.408-2.583-1.658-1.73.065-1.93 2.542-.296.946.624 2.266.673 2.933.108 1.774-1.501 9.266-2.407 20.351-2.46 5.363-.025 9.506-.458 9.206-.963-.649-1.095 23.579.293 26.467 1.516 1.103.467 3.743.261 5.868-.457 2.124-.718 7.822-1.315 12.663-1.327 4.84-.011 11.693-.058 15.228-.104 3.535-.045 6.107.252 5.715.66-.392.41-7.371.971-15.51 1.25-8.139.277-15.773 1.05-16.965 1.715-1.192.665-4.498.86-7.346.432-6.868-1.031-25.892-1.113-40.12-.173-15.656 1.035-16.378 1.764-15.887 16.032.203 5.916-.047 10.756-.556 10.754-.51 0-.773 4.817-.587 10.708.305 9.638.561 10.69 2.553 10.513 1.218-.11 5.707.519 9.975 1.395l7.76 1.594-10.174-.04c-5.597-.021-10.815-.451-11.597-.955zm570.07.453c.808-.34 2.128-.34 2.934 0 .807.34.147.617-1.466.617-1.614 0-2.274-.278-1.467-.617zm-384.308-1.257c1.13-.308 2.977-.308 4.107 0 1.13.308.205.56-2.054.56s-3.183-.252-2.053-.56zm8.814-.022c1.46-.293 3.572-.282 4.694.025 1.122.306-.072.545-2.654.532-2.581-.014-3.5-.264-2.04-.557zm12.981-.394c-.249-.78-6.731-1.288-17.007-1.334l-16.605-.074-.704-13.049c-1.51-27.978-1.546-29.81-.55-28.173.656 1.082 1.013-.084 1.025-3.353.029-8.102 2.035-9.138 17.753-9.167 7.349-.014 34.22-.034 59.713-.046 25.494-.011 51.897-.088 58.673-.17 6.777-.082 16.942-.044 22.59.085l10.267.233-.018 5.203c-.013 3.81-.322 4.71-1.155 3.366-.626-1.01-1.146-3.092-1.155-4.628l-.019-2.792-37.257.62c-32.712.544-59.622.594-109.425.204-18.666-.147-18.168-.666-18.542 19.312-.163 8.676-.58 16.254-.926 16.84-.346.584.133 1.368 1.064 1.741 1.142.457 1.645 2.351 1.542 5.806l-.154 5.127 39.667.294c25.944.192 39.418-.126 38.948-.918-.395-.667.502-1.234 1.992-1.26 2.574-.047 2.543-.144-.622-1.933-4.065-2.298-3.694-3.002 1.006-1.903 3.577.836 4.212 2.041 2.531 4.802-.708 1.164.702 1.507 5.886 1.434 3.749-.054 6.156-.375 5.35-.714-.807-.34-1.467-1.398-1.467-2.352 0-2.57 6.655-2.234 8.076.408.942 1.75 2.836 2.15 10.327 2.18 5.045.021 9.965.296 10.933.612 1.08.352 1.621-.097 1.4-1.163-.265-1.283.042-1.4 1.174-.448.844.709 8.398 1.758 16.788 2.332 21.007 1.437 19.927 1.535 20.089-1.811.076-1.589.868-3.37 1.76-3.96 1.17-.773 1.214-1.076.154-1.09-.807-.01-1.459-.982-1.449-2.16.015-1.83.183-1.875 1.155-.306.765 1.234 1.144-3.748 1.156-15.199.01-9.37.263-16.78.562-16.468.299.312.782 7.879 1.074 16.816.412 12.623.123 17.494-1.294 21.83l-1.823 5.584-14.212-.817c-7.817-.449-22.265-.801-32.108-.783-15.094.028-17.895-.253-17.895-1.793 0-1.004-.528-1.826-1.173-1.826-.646 0-1.042.689-.88 1.53.226 1.184-7.152 1.67-32.564 2.142-18.072.337-31.537.95-29.923 1.364l2.933.751-3.129.167c-1.721.092-3.31-.4-3.532-1.093zm-272.892-.704c.39-.407 1.402-.45 2.25-.097.935.391.657.681-.71.74-1.237.053-1.93-.236-1.54-.643zm123.26-2.487c-.996-2.706 1.074-5.867 4.156-6.345 2.808-.436 3.342 2.01 1.306 5.98-1.483 2.89-4.46 3.09-5.463.365zm456.085-7.28c-.016-5.33-.286-12.72-.6-16.423-.416-4.917-.268-6.012.55-4.06 1.256 3.001 1.952 28.218.812 29.408-.404.42-.747-3.595-.762-8.925zm-205.787 3.377c-.958-1.617.161-2.194 4.566-2.354 1.936-.07 2.728.19 1.76.577-.968.388-2.148 1.311-2.622 2.052-.56.874-.875.702-.898-.49-.03-1.498-.222-1.53-1.045-.175-.65 1.07-1.276 1.21-1.761.39zm-141.952-1.16c-.986-1.665.722-25.984 1.825-25.984.588 0 .767 3.145.4 7.038-.363 3.871-.769 9.93-.9 13.465-.247 6.608-.365 7.1-1.325 5.48zm168.822-.293c.74-1.25-3.701-1.758-11.291-1.292-2.981.183-4.458-.326-4.968-1.711-.955-2.597 2.401-3.923 5.242-2.072 2.734 1.78 4.583 1.838 2.208.068-1.38-1.029-1.127-1.16 1.173-.61 1.614.386 3.99.764 5.28.84 1.983.117 1.892.304-.586 1.205-2.514.913-2.304 1.018 1.467.735 4.488-.336 6.202 1.868 2.58 3.318-1.045.418-1.516.213-1.105-.481zm-340.63-1.44c.255-.8 1.092-1.671 1.859-1.938.857-.298 1.12.261.68 1.454-.818 2.225-3.243 2.688-2.54.484zm474.983-5.278c0-1.02 1.043-1.836 2.347-1.836 1.291 0 2.347.533 2.347 1.185s-.878.834-1.952.404c-1.313-.525-1.675-.312-1.105.65.467.788.29 1.433-.394 1.433-.683 0-1.243-.827-1.243-1.836zm-474.54-7.445c-1-2.718-.886-4.184.325-4.184.57 0 1.289 1.377 1.597 3.06.618 3.371-.792 4.196-1.922 1.124zm330.204-1.664c0-.713.528-1.296 1.174-1.296.645 0 1.173.243 1.173.54 0 .297-.528.88-1.173 1.296-.646.416-1.174.173-1.174-.54zm-51.632-3.744c-2.417-.807-2.52-.998-.587-1.083 1.291-.057 3.14.43 4.107 1.083 2.057 1.386.629 1.386-3.52 0zm-278.024-5.4c-.94-1.18-.985-1.978-.144-2.52.677-.436 1.23.02 1.23 1.013 0 .994.66 2.084 1.468 2.424.921.388.975.653.143.714-.727.053-1.941-.68-2.697-1.63zm-52.8-1.71c-.053-.917-.72-1.233-1.56-.74-1.164.687-1.168.53-.019-.763 1.67-1.878 3.199-.876 2.288 1.498-.506 1.32-.633 1.32-.709.004zm570.396-1.459c0-1.683.266-2.371.592-1.53.325.842.325 2.219 0 3.06-.326.842-.592.154-.592-1.53zm-99.948-2.142c-.015-1.848-.188-1.89-1.263-.306-1.012 1.494-1.16 1.508-.788.077.735-2.837 3.243-2.975 3.243-.179 0 1.403-.264 2.55-.587 2.55-.323 0-.595-.964-.605-2.142zm-246.316-.816c-.051-1.29.226-2.013.616-1.606.39.406.432 1.462.093 2.346-.375.976-.653.686-.71-.74zm338.158-.333c1.13-.308 2.977-.308 4.107 0 1.13.307.205.56-2.054.56s-3.183-.253-2.053-.56zm-217.067-1.12c.39-.407 1.403-.45 2.25-.097.936.39.658.68-.71.74-1.236.053-1.93-.237-1.54-.643zM604.44 81.4c1.452-.291 3.828-.291 5.28 0 1.453.292.265.53-2.64.53-2.904 0-4.092-.238-2.64-.53zM23.87 77.608c0-1.812 4.315-2.454 22.457-3.34 10.167-.498 16.266-.339 16.724.434.46.777-5.543 1.418-16.59 1.771-9.521.305-18.5.97-19.952 1.48-1.61.564-2.64.43-2.64-.345zm506.08.244c.39-.406 1.402-.45 2.249-.096.936.39.658.68-.71.74-1.236.052-1.93-.237-1.54-.644zm-267.296-3.238-1.159-2.754-31.096.11c-17.9.064-28.607-.28-25.23-.81 9.455-1.486 58.087-1.351 58.087.16 0 .713.404 1.035.899.716.495-.319 1.5.75 2.236 2.376 1.132 2.502 1.037 2.956-.62 2.956-1.078 0-2.48-1.24-3.117-2.754zM656.366 76.2c-7.51-.472-10.19-.993-8.215-1.597 1.614-.494 9.007-.146 16.429.773 13.99 1.733 11.018 2.03-8.214.824zm-209.958-1.79c-.05-1.29.227-2.014.617-1.607.39.407.431 1.463.092 2.346-.374.977-.652.687-.709-.74zm161.273-.496c-.543-.566-6.816-.931-21.039-1.226-13.99-.29-12.313-1.384 2.334-1.523 12.889-.122 23.972 1.086 23.972 2.612 0 .967-4.363 1.08-5.267.137zm31.083-.049c0-.58 1.32-.79 2.933-.469 1.614.322 2.934.796 2.934 1.054 0 .259-1.32.47-2.934.47-1.613 0-2.933-.475-2.933-1.055zm34.03-.926c-4.195-.785-6.835-1.522-5.867-1.637 1.039-.124.558-.728-1.174-1.474-2.63-1.134-21.328-1.853-69.146-2.66-9.939-.168-15.908-.75-16.173-1.577-.282-.884 1.315-1.037 4.9-.47 2.925.463 5.318.472 5.318.02 0-.453 3.01-.665 6.69-.473 3.679.193 7.375-.243 8.214-.969 1.1-.952 2.005-.903 3.25.174 1.203 1.042 9.795 1.648 28.456 2.008 14.702.284 28.315.736 30.252 1.006 1.936.27 6.085.534 9.22.589 4.56.08 5.564.466 5.024 1.935-.803 2.181-.223 2.284 2.937.52 2.11-1.178 2.23-1.065 1.133 1.071-1.666 3.248-4.097 3.61-13.034 1.937zm6.087-2.528c-.847-.353-1.859-.31-2.249.097-.39.407.304.696 1.54.643 1.368-.059 1.646-.349.71-.74zm24.782 3.542c-2.208-1.464-3.797-10.639-4.63-26.728l-.77-14.842h2.927c2.8 0 2.938.352 3.178 8.087.846 27.26 1.671 32.185 5.027 30.021.508-.327.636.186.285 1.141-.453 1.23.149 1.651 2.067 1.444 1.488-.16 3.466-.362 4.396-.448 1.255-.116 1.104-.62-.586-1.954-2.232-1.76-2.227-1.797.236-1.836 2.286-.035 3.94 2.046 3.94 4.958 0 1.347-14.068 1.484-16.07.157zm-.823-10.942c-.39-.407-.668.316-.617 1.606.056 1.426.335 1.716.71.74.338-.884.297-1.94-.094-2.346zm-1.106-15.327c-.325-.841-.591-.153-.591 1.53s.266 2.372.591 1.53c.326-.841.326-2.218 0-3.06zm0-12.24c-.325-.842-.591-.153-.591 1.53s.266 2.371.591 1.53c.326-.842.326-2.219 0-3.06zm-149.09 37.244c-1.04-.218-1.89-.839-1.89-1.38 0-.541 5.101-1.03 11.336-1.086 6.573-.059 10.887.353 10.268.979-1.074 1.086-16.185 2.226-19.713 1.487zm-67.519-1.946c-1.28-1.609-.233-1.885 8.32-2.197 5.381-.197 13.48.102 17.998.663 9.744 1.21 10.29 1.23 22.026.795 5.015-.186 9.378-.067 9.697.265 1.115 1.163-24.728 2.087-29.14 1.042-4.969-1.177-22.67-.878-25.57.431-1.09.491-2.476.076-3.33-.999zm175.641.919c.807-.34 2.127-.34 2.934 0 .807.34.146.617-1.467.617-1.614 0-2.274-.277-1.467-.617zM25.923 70.374c-1.331-.344-2.041-1.683-2.018-3.806.031-2.874.187-3.006 1.263-1.075 1.155 2.069 3.526 2.162 39.57 1.553 69.155-1.168 98.132-2.092 101.734-3.241 1.952-.623 6.31-1.375 9.684-1.67 3.375-.297 6.663-.878 7.307-1.294.644-.415 1.17-.208 1.17.46 0 .667-1.125 1.586-2.501 2.041-1.725.571-2.059 1.115-1.075 1.75.98.631.661 1.129-1.017 1.587-1.345.366-2.742.165-3.105-.448s-3.136-.777-6.162-.364c-3.026.412-13.158.952-22.517 1.2-9.358.248-19.127.726-21.709 1.063-2.581.337-22.912.928-45.178 1.313-22.267.386-43.389.872-46.939 1.08-3.55.21-7.378.142-8.507-.15zm88.01.063c.806-.34 2.126-.34 2.933 0 .807.34.147.617-1.467.617-1.613 0-2.273-.278-1.467-.617zm5.304.071c.39-.407 1.402-.45 2.25-.097.936.391.658.681-.71.74-1.236.053-1.93-.236-1.54-.643zm8.215 0c.39-.407 1.402-.45 2.249-.097.936.391.658.681-.71.74-1.236.053-1.93-.236-1.54-.643zm28.725-.071c.807-.34 2.127-.34 2.934 0 .806.34.146.617-1.467.617-1.614 0-2.274-.278-1.467-.617zm476.855-.3c-1.001-.662.576-.85 4.107-.492 7.947.806 9.055 1.395 2.798 1.487-2.904.043-6.012-.405-6.905-.995zm-12.75-.957c1.13-.308 2.977-.308 4.107 0 1.13.308.205.56-2.054.56s-3.183-.252-2.053-.56zm-359.667-1.191c.807-.34 2.127-.34 2.934 0 .807.34.147.617-1.467.617-1.613 0-2.273-.278-1.467-.617zm-63.177-1.545c1.283-.847 1.017-1.22-1.173-1.651-2.664-.524-2.64-.566.397-.723 2.157-.112 3.227.442 3.227 1.67 0 1.01-.925 1.827-2.054 1.817-1.661-.016-1.737-.228-.397-1.113zm372.971.288c-1.129-.308-2.053-1.103-2.053-1.767 0-.663.61-.812 1.358-.33.747.48 3.255.833 5.574.783 3.326-.072 3.72.128 1.869.947-2.581 1.142-3.683 1.202-6.748.367zM488.56 63.79c1.74-1.748 3.08-2.367 3.294-1.522.25.989 1.444 1.1 3.902.365 1.949-.583 9.84-.759 17.536-.39l13.993.668v-3.788c0-2.084.594-3.788 1.32-3.788 1.151 0 .69 6.88-.548 8.17-.207.217-9.168.63-19.913.92-10.744.29-20.206.929-21.026 1.42-.82.49-.171-.434 1.442-2.055zm49.286 1.258c-2.553-.784-2.324-.942 1.76-1.216 8.08-.542 18.607.02 22.883 1.22 3.17.89 2.101 1.01-4.694.52-4.84-.348-9.466-.85-10.278-1.116-.813-.266-2.66-.04-4.107.505-1.447.544-3.95.583-5.564.087zm-321.822-.731c.806-.34 2.127-.34 2.933 0 .807.34.147.617-1.466.617-1.614 0-2.274-.278-1.467-.617zm59.553-.338c-1.993-.83-1.596-1.215 2.632-2.554 3.766-1.192 5.623-1.24 7.627-.194l2.649 1.382-2.934-.157c-1.613-.087-3.99-.064-5.28.051-1.96.175-2.057.405-.587 1.396 1.565 1.055 1.565 1.18 0 1.12-.968-.038-2.816-.507-4.107-1.044zm394.577.338c.807-.34 2.127-.34 2.933 0 .807.34.147.617-1.466.617-1.614 0-2.274-.278-1.467-.617zm-479.036-3.028c.73-3.955 1.73-4.331 1.73-.65 0 1.795-.498 3.264-1.106 3.264-.609 0-.89-1.176-.624-2.614zm61.894 1.875c.39-.407 1.402-.45 2.25-.097.935.39.657.68-.71.74-1.237.053-1.93-.237-1.54-.643zm41.34-.485c-2.24-1.004-2.226-1.056.294-1.138 1.452-.047 2.64.465 2.64 1.138 0 .673-.132 1.185-.293 1.138-.162-.047-1.35-.56-2.64-1.138zm4.107-.262c0-.53 1.057-.962 2.347-.962 1.291 0 2.347.433 2.347.962 0 .529-1.056.962-2.347.962-1.29 0-2.347-.433-2.347-.962zm13.864.096c-1.02-.675-.33-1.027 2.037-1.04 1.968-.01 4.244-.706 5.057-1.548 1.184-1.226 1.331-1.13.742.485-.85 2.33-5.576 3.598-7.836 2.103zm15.458.034c-2.11-.613-1.212-.882 3.242-.97 3.388-.067 6.16.09 6.16.351 0 .993-6.614 1.428-9.402.619zm16.443.157c-6.42-.846-6.407-.85 2.785-1.05 8.052-.173 9.05-.434 7.782-2.029-1.853-2.329-2.327-26.502-.532-27.146.765-.275 1.05 1.192.752 3.862-.29 2.587.026 4.305.79 4.305.81 0 .94 1.002.355 2.754-.506 1.515-.824 3.856-.708 5.202 1.268 14.717 1.272 14.681-1.836 14.82-1.613.073-5.838-.25-9.388-.718zm42.153-1.032c-.058-1.273-.318-1.472-.685-.523-.737 1.906-17.102 2.116-20.422.263-1.698-.948-2.32-2.72-2.467-7.038-.183-5.33-.233-5.42-.658-1.181-.892 8.892-2.258 4.443-2.538-8.263-.282-12.822-.276-12.853 2.525-12.853 2.45 0 2.743.467 2.294 3.658-.283 2.011-.142 4.628.314 5.814.456 1.186 1.023 5.105 1.26 8.708.238 3.603 1.044 7.321 1.793 8.263 1.587 1.994 13.441 2.39 14.569.487 1.007-1.7 3.64-1.53 5.49.356 1.125 1.146 4.773 1.451 13.285 1.112 15.896-.633 22.986-.425 24.525.72 1.632 1.214 44.763.943 49.125-.308 1.985-.569 3.862-.393 4.839.452.878.76 2.402 1.06 3.386.666.985-.394 2.131-.142 2.547.56.952 1.607-65.755 1.195-69.066-.426-1.357-.665-1.983-.654-1.583.026.388.658-5.388 1.216-13.889 1.343-12.886.192-14.562-.018-14.644-1.836zM361.48 35.444c-.28-1.515-.508-.276-.508 2.754 0 3.03.228 4.269.508 2.754.28-1.515.28-3.994 0-5.508zM81.37 62.198c0-.265.792-.798 1.76-1.186.968-.387 1.76-.17 1.76.481 0 .653-.792 1.186-1.76 1.186s-1.76-.216-1.76-.481zm44.055-.658c-.371-.627-.139-1.486.517-1.909.656-.423 1.193.09 1.193 1.14 0 2.15-.704 2.466-1.71.769zm133.454-1.402c-.114-1.575.583-2.355 2.104-2.355 2.854 0 2.95 1.985.17 3.536-1.671.933-2.14.69-2.274-1.18zm277.288.481c-.417-1.133-1.074-7.33-1.46-13.77-.385-6.442-1.222-12.4-1.858-13.241-.82-1.084-.63-1.53.647-1.53 1.406 0 1.961 2.09 2.518 9.486.392 5.218.984 12.103 1.314 15.3.616 5.97.176 7.391-1.161 3.755zm55.072.836c.4-.673 1.619-1.216 2.71-1.205 1.71.016 1.741.182.224 1.205-2.298 1.55-3.851 1.55-2.934 0zm-405.55-4.59c-.065-1.178-.019-4.008.104-6.287.123-2.3-.453-4.58-1.294-5.123-1.17-.754-1.214-1.626-.195-3.811.727-1.559 1.637-4.349 2.022-6.2.835-4.016 2.992-4.578 2.35-.612-1.923 11.854-1.906 13.334.176 15.733 2.028 2.338 2.026 2.395-.069 1.557-1.915-.767-2.085-.409-1.43 3.007.428 2.233.258 3.878-.4 3.878-.63 0-1.198-.964-1.264-2.142zm138.294 1.331c.807-.34 2.127-.34 2.934 0 .807.34.147.618-1.467.618-1.613 0-2.274-.278-1.467-.618zm371.2-.923c-.05-1.29.227-2.014.617-1.607.39.407.432 1.463.093 2.346-.375.977-.653.687-.709-.74zM191.414 44.68c-.53-11.636-.387-13.687.856-12.39.809.844 1.105 22.904.318 23.725-.346.36-.874-4.74-1.174-11.335zm120.102 9.526c-.77-.497-1.063-1.82-.651-2.94.412-1.12 1.23-1.727 1.819-1.348.588.38.696 1.34.239 2.135-.589 1.023-.308 1.004.958-.065 1.447-1.22 1.79-1.172 1.79.253 0 2.142-2.239 3.2-4.155 1.965zm-287.46-3.768c0-1.683.266-2.371.591-1.53.326.842.326 2.219 0 3.06-.325.842-.592.154-.592-1.53zm681.808-.306c.27-1.99 1.026-2.637 2.722-2.331 3.058.55 3.361.933 2.529 3.197-.383 1.039-1.805 1.889-3.16 1.889-1.886 0-2.378-.648-2.091-2.755zm-178.784-1.224c-.56-7.495-.283-16.82.5-16.825.483-.003.886 3.162.895 7.033.01 3.87.335 8.278.724 9.792.424 1.653.183 2.755-.603 2.755-.72 0-1.403-1.24-1.516-2.755zm166.837 2.215c0-.297.529-.88 1.174-1.297.645-.416 1.173-.173 1.173.54 0 .713-.528 1.297-1.173 1.297s-1.174-.243-1.174-.54zM531.788 42.39c-.235-3.08-.032-6.247.45-7.038.483-.792.886 1.728.896 5.599.022 8.43-.75 9.254-1.346 1.44zm160.302 4.264c-.302-.51.381-1.18 1.519-1.49 1.929-.525 1.925-.572-.055-.705-2.462-.165-1.508-2.59 1.018-2.59.99 0 1.691 1.185 1.691 2.856 0 2.727-2.905 4.07-4.173 1.929zm-381.667-2.949c-.024-2.02.22-2.994.54-2.165.322.828.342 2.48.044 3.672-.297 1.19-.56.513-.584-1.507zm-242.928-.205c.208-1.122.907-2.132 1.552-2.244.646-.112.778.026.294.307-.484.28-.88 1.047-.88 1.704s.61.802 1.354.321c.84-.541 1.037-.336.518.54-1.266 2.136-3.27 1.693-2.838-.628zm245.231-.407c0-1.683.267-2.372.592-1.53.326.841.326 2.219 0 3.06-.325.842-.592.153-.592-1.53zM24.01 38.259c-.106-5.035.19-6.325 1.211-5.26.985 1.027 1.024 2.837.141 6.67l-1.211 5.261zm407.05-2.51c0-1.36.783-2.448 1.76-2.448.979 0 1.761 1.089 1.761 2.449 0 1.36-.782 2.448-1.76 2.448s-1.76-1.088-1.76-2.448z" style="fill:#666" transform="translate(-23.868 -31.949)"/></svg>