<?xml version="1.0" standalone="no"?>
<!DOCTYPE svg PUBLIC "-//W3C//DTD SVG 20010904//EN"
 "http://www.w3.org/TR/2001/REC-SVG-20010904/DTD/svg10.dtd">
<svg version="1.0" xmlns="http://www.w3.org/2000/svg"
 width="225.000000pt" height="250.000000pt" viewBox="0 0 225.000000 250.000000"
 preserveAspectRatio="xMidYMid meet">

<g transform="translate(0.000000,250.000000) scale(0.100000,-0.100000)"
fill="#000000" stroke="none">
<path d="M1578 2043 c-39 -41 -48 -74 -48 -174 0 -122 11 -141 105 -184 61
-27 77 -40 93 -72 64 -124 45 -436 -34 -571 -27 -45 -85 -81 -131 -82 -75 -1
-114 -64 -121 -195 -4 -73 -1 -98 12 -124 34 -65 172 -98 280 -67 131 38 232
209 299 504 19 85 21 127 22 342 0 147 -5 267 -12 300 -28 135 -102 269 -174
317 -39 26 -52 28 -153 31 -111 4 -111 4 -138 -25z"/>
<path d="M1006 1800 c-50 -13 -142 -62 -190 -102 -21 -17 -61 -65 -91 -107
l-53 -76 -224 -73 c-122 -40 -246 -83 -275 -97 -62 -28 -71 -51 -53 -134 19
-89 178 -562 201 -600 l20 -34 62 6 c51 5 233 58 554 163 l52 17 131 -53 c72
-29 133 -50 136 -47 4 3 -6 41 -20 84 -38 114 -39 112 54 156 196 92 310 296
281 501 -5 38 -15 74 -20 79 -13 13 -13 -6 -2 -78 26 -157 -59 -350 -195 -440
-87 -58 -160 -77 -275 -73 -87 3 -103 7 -172 41 -167 82 -269 258 -254 437 22
267 262 452 531 410 175 -27 256 -133 243 -319 -5 -83 -32 -152 -66 -171 -34
-18 -86 -12 -108 13 -29 31 -44 65 -88 195 -21 61 -42 112 -47 112 -8 0 -3
-35 13 -77 10 -28 12 -28 -36 -3 -55 28 -70 25 -114 -19 -66 -66 -87 -173 -55
-281 30 -100 109 -148 172 -105 34 25 72 98 79 154 3 28 8 51 11 51 4 0 22
-16 42 -35 68 -66 146 -51 191 37 32 60 39 204 14 279 -25 75 -102 152 -174
173 -67 20 -223 29 -275 16z"/>
</g>
</svg>
