<?xml version="1.0" standalone="no"?>
<!DOCTYPE svg PUBLIC "-//W3C//DTD SVG 20010904//EN"
 "http://www.w3.org/TR/2001/REC-SVG-20010904/DTD/svg10.dtd">
<svg version="1.0" xmlns="http://www.w3.org/2000/svg"
 width="500.000000pt" height="200.000000pt" viewBox="0 0 500.000000 200.000000"
 preserveAspectRatio="xMidYMid meet">

<g transform="translate(0.000000,200.000000) scale(0.100000,-0.100000)"
fill="#000000" stroke="none">
<path d="M1272 1680 c-33 -31 -42 -61 -43 -147 -1 -92 15 -120 87 -145 62 -22
80 -44 95 -116 34 -161 -11 -398 -85 -443 -17 -10 -45 -19 -61 -19 -70 0 -105
-58 -105 -174 0 -63 3 -79 23 -101 40 -47 177 -61 246 -25 104 52 193 255 222
503 14 125 6 350 -15 432 -26 98 -75 185 -124 219 -37 26 -52 30 -130 34 -79
3 -89 2 -110 -18z"/>
<path d="M817 1480 c-95 -24 -173 -81 -228 -165 l-41 -62 -210 -68 c-116 -38
-216 -75 -224 -82 -32 -32 -26 -61 56 -315 45 -139 89 -261 98 -270 26 -30 74
-21 315 57 l231 75 66 -26 c36 -14 86 -34 112 -45 l46 -18 -28 85 c-26 77 -28
86 -12 91 154 52 251 158 282 309 14 69 -4 203 -25 183 -2 -3 0 -23 6 -45 17
-61 4 -159 -31 -231 -113 -230 -415 -276 -587 -90 -210 227 -66 585 242 605
181 11 285 -72 284 -228 0 -111 -36 -180 -94 -180 -48 0 -70 29 -110 152 -40
119 -42 124 -50 116 -3 -3 2 -24 10 -48 15 -42 15 -43 -3 -27 -10 9 -33 20
-50 23 -27 5 -37 1 -66 -28 -83 -83 -67 -271 27 -316 22 -11 32 -11 54 0 39
18 72 72 79 129 l7 48 27 -29 c79 -85 171 -27 186 117 13 126 -44 233 -144
268 -57 20 -174 28 -225 15z"/>
<path d="M1992 1334 c-48 -24 -86 -59 -125 -114 -11 -17 -22 -21 -39 -17 -34
9 -96 74 -104 110 l-6 31 -14 -25 c-30 -55 -5 -104 75 -139 l48 -22 -17 -47
c-26 -68 -33 -141 -20 -192 40 -149 198 -202 303 -101 73 71 83 183 20 232
-28 22 -82 26 -115 9 -31 -17 -51 -72 -36 -104 15 -33 38 -33 38 0 0 46 27 85
59 85 61 0 79 -70 39 -150 -29 -56 -65 -82 -116 -84 -47 -1 -86 28 -108 81
-18 43 -18 137 1 200 l15 50 74 6 c171 13 278 115 201 192 -34 35 -103 34
-173 -1z m152 -20 c9 -8 16 -21 16 -28 0 -21 -39 -65 -71 -82 -39 -19 -134
-37 -160 -29 -19 6 -19 8 -3 33 25 41 66 82 99 103 37 23 98 25 119 3z"/>
<path d="M2899 1218 c-9 -7 -23 -25 -32 -40 -14 -23 -25 -28 -58 -28 -24 0
-38 -4 -34 -10 3 -5 20 -10 37 -10 l30 0 -7 -47 c-14 -95 -87 -243 -120 -243
-20 0 -19 35 1 112 18 71 15 117 -8 132 -26 16 -79 -14 -113 -65 -16 -24 -31
-46 -32 -48 -2 -2 -5 -2 -8 0 -2 3 2 26 10 52 12 41 12 49 0 53 -22 9 -56 -15
-71 -51 -14 -35 -51 -68 -66 -59 -4 3 -8 16 -8 29 0 13 -7 30 -15 39 -38 37
-71 -27 -38 -72 23 -32 16 -77 -17 -107 -31 -28 -54 -9 -58 46 -5 64 13 114
53 146 43 34 44 43 5 43 -36 0 -97 -51 -116 -97 -33 -77 -9 -163 51 -183 50
-16 84 3 115 65 14 28 25 50 25 51 0 1 12 4 28 8 26 6 27 5 27 -29 0 -83 61
-131 75 -58 10 54 43 139 65 165 29 36 39 13 27 -63 -12 -79 -5 -113 27 -135
22 -14 27 -14 55 0 17 9 43 37 58 63 l27 47 6 -29 c20 -97 102 -122 148 -46
l18 29 16 -29 c32 -55 111 -59 139 -6 11 19 12 19 33 -6 39 -46 62 -45 113 8
24 26 45 45 47 43 1 -1 7 -16 14 -31 17 -39 73 -62 116 -47 35 11 75 49 96 90
l13 25 14 -40 c14 -43 54 -85 80 -85 8 0 30 15 49 34 l33 33 16 -24 c33 -50
110 -50 136 0 11 19 12 19 33 -6 38 -46 62 -45 111 7 l44 45 11 -35 c12 -35
42 -60 60 -49 6 3 10 19 10 35 0 62 74 209 95 188 4 -3 1 -40 -6 -81 -13 -80
-4 -129 28 -141 23 -9 30 0 37 51 10 80 72 191 93 169 4 -3 1 -29 -5 -57 -18
-76 -15 -126 8 -149 30 -30 49 -25 97 26 25 25 45 44 47 42 1 -1 7 -16 14 -31
7 -17 27 -34 49 -43 33 -14 40 -14 79 1 26 10 56 32 74 55 50 63 87 160 61
160 -5 0 -11 -10 -15 -23 -9 -38 -81 -141 -108 -156 -30 -15 -65 -7 -72 17
-20 73 -19 79 17 86 54 10 87 41 87 81 0 39 -20 55 -69 55 -47 0 -95 -49 -120
-122 -23 -67 -64 -128 -87 -128 -18 0 -18 27 3 122 13 61 14 83 5 103 -19 42
-71 27 -117 -35 l-25 -34 0 28 c0 94 -79 88 -137 -11 -30 -51 -40 -45 -24 14
13 44 3 57 -31 44 -18 -7 -31 -24 -42 -58 -25 -71 -69 -155 -89 -167 -38 -23
-47 40 -23 154 16 74 9 91 -29 66 -26 -17 -28 -17 -46 3 -51 54 -136 1 -168
-105 -38 -120 -70 -155 -91 -98 -13 33 -11 146 3 209 l12 50 48 3 c54 4 65 22
13 22 -42 0 -50 10 -35 44 15 32 8 40 -26 32 -17 -4 -31 -18 -41 -41 -13 -32
-18 -35 -54 -35 -22 0 -40 -4 -40 -10 0 -5 13 -10 28 -10 16 0 31 -2 34 -5 9
-9 -21 -126 -46 -180 -26 -56 -70 -105 -96 -105 -9 0 -25 9 -35 20 -23 26 -24
113 -2 157 26 49 77 57 77 12 0 -11 5 -17 10 -14 6 3 10 16 10 29 0 77 -130
52 -172 -34 -9 -19 -29 -62 -45 -94 -63 -133 -104 -83 -69 84 16 74 9 91 -29
66 -26 -17 -28 -17 -46 3 -29 30 -72 27 -113 -9 -26 -23 -41 -51 -61 -109 -14
-43 -35 -87 -46 -97 -20 -18 -21 -18 -36 1 -12 16 -14 42 -11 125 5 129 15
150 68 150 21 0 42 5 45 10 4 6 -10 10 -36 10 -38 0 -41 2 -36 23 2 12 8 30
12 40 5 13 2 17 -12 17 -11 0 -26 -6 -34 -12z m1819 -186 c3 -18 -4 -26 -32
-37 -46 -20 -49 -19 -40 8 16 54 66 75 72 29z m-1562 -8 c17 -66 -41 -196 -79
-181 -32 12 -17 145 21 190 23 26 51 21 58 -9z m760 0 c17 -66 -41 -196 -79
-181 -32 12 -17 145 21 190 23 26 51 21 58 -9z"/>
<path d="M3189 1208 c-16 -13 -49 -63 -49 -73 0 -3 10 0 23 6 31 17 87 63 87
72 0 12 -45 8 -61 -5z"/>
</g>
</svg>
