<?xml version="1.0" standalone="no"?>
<!DOCTYPE svg PUBLIC "-//W3C//DTD SVG 20010904//EN"
 "http://www.w3.org/TR/2001/REC-SVG-20010904/DTD/svg10.dtd">
<svg version="1.0" xmlns="http://www.w3.org/2000/svg"
 width="225.000000pt" height="250.000000pt" viewBox="0 0 225.000000 250.000000"
 preserveAspectRatio="xMidYMid meet">

<g transform="translate(0.000000,250.000000) scale(0.100000,-0.100000)"
fill="#000000" stroke="none">
<path d="M1420 2226 c0 -7 -2 -35 -5 -62 l-5 -49 14 40 c17 48 20 85 6 85 -5
0 -10 -6 -10 -14z"/>
<path d="M1500 2210 c0 -5 10 -9 22 -7 32 3 34 -25 3 -61 -34 -41 -32 -49 6
-18 17 14 35 26 40 26 13 0 11 44 -3 58 -14 14 -68 16 -68 2z"/>
<path d="M1085 2108 c-58 -32 -105 -103 -105 -159 0 -80 73 -162 155 -174 79
-12 181 69 192 152 13 95 -77 193 -176 193 -26 0 -55 -6 -66 -12z"/>
<path d="M1385 2070 c3 -5 10 -10 16 -10 5 0 9 5 9 10 0 6 -7 10 -16 10 -8 0
-12 -4 -9 -10z"/>
<path d="M1480 2050 c0 -5 5 -10 10 -10 6 0 10 5 10 10 0 6 -4 10 -10 10 -5 0
-10 -4 -10 -10z"/>
<path d="M582 1841 c-8 -5 -12 -21 -10 -41 3 -29 8 -35 45 -48 52 -17 94 -63
174 -194 68 -109 79 -121 111 -116 36 5 27 31 -19 52 -48 22 -63 46 -37 61 58
34 67 49 72 128 4 68 3 77 -12 77 -11 0 -24 -16 -34 -40 -9 -22 -20 -40 -24
-40 -4 0 -24 19 -45 42 -68 76 -103 105 -142 117 -45 13 -61 14 -79 2z"/>
<path d="M1594 1811 c-21 -17 -58 -53 -82 -80 -47 -56 -72 -65 -72 -27 0 36
-44 66 -96 66 -38 0 -44 -3 -58 -32 -9 -17 -16 -42 -16 -56 0 -28 -98 -192
-115 -192 -6 0 -26 25 -44 55 -18 30 -37 55 -41 55 -5 0 -22 -21 -39 -47 -26
-39 -31 -56 -31 -108 0 -42 -9 -85 -27 -136 -25 -68 -27 -86 -26 -209 1 -74 5
-168 8 -207 l7 -73 193 0 193 0 6 88 c4 48 8 141 8 207 1 106 -2 129 -26 194
-15 44 -26 96 -26 126 0 45 22 143 38 169 9 16 21 -26 21 -77 1 -60 15 -87 45
-87 24 0 35 14 111 135 59 94 111 151 159 174 45 21 61 45 50 75 -11 29 -93
21 -140 -13z"/>
<path d="M967 1823 c-2 -4 -8 -51 -12 -103 -7 -94 -33 -180 -54 -180 -6 0 -11
-4 -11 -10 0 -29 105 21 125 61 9 15 18 61 21 101 l6 73 -35 33 c-19 19 -37
30 -40 25z"/>
<path d="M1100 1733 c0 -4 12 -45 26 -91 29 -98 37 -97 65 4 27 96 27 94 -36
94 -30 0 -55 -3 -55 -7z"/>
<path d="M982 551 l3 -241 27 -26 c28 -28 54 -29 93 0 19 14 20 28 23 249 l3
234 -61 7 c-34 4 -68 10 -76 13 -13 5 -15 -26 -12 -236z"/>
<path d="M1193 773 l-23 -4 0 -219 0 -218 25 -31 c31 -36 57 -46 85 -31 42 23
50 66 50 279 0 110 -3 206 -6 215 -5 12 -19 16 -58 15 -28 -1 -61 -4 -73 -6z"/>
</g>
</svg>
