<?xml version="1.0" standalone="no"?>
<!DOCTYPE svg PUBLIC "-//W3C//DTD SVG 20010904//EN"
 "http://www.w3.org/TR/2001/REC-SVG-20010904/DTD/svg10.dtd">
<svg version="1.0" xmlns="http://www.w3.org/2000/svg"
 width="225.000000pt" height="250.000000pt" viewBox="0 0 225.000000 250.000000"
 preserveAspectRatio="xMidYMid meet">

<g transform="translate(0.000000,250.000000) scale(0.100000,-0.100000)"
fill="#000000" stroke="none">
<path d="M995 2173 c-446 -71 -791 -431 -837 -874 -32 -307 64 -589 275 -801
187 -188 420 -291 664 -292 87 -1 105 2 129 20 80 59 89 126 31 243 -53 107
-46 176 21 233 45 38 80 46 237 52 174 8 222 17 310 60 131 65 230 177 277
313 33 98 33 276 0 383 -79 251 -276 467 -530 582 -121 55 -240 80 -402 83
-80 2 -158 1 -175 -2z m-54 -226 c51 -26 89 -89 89 -147 0 -55 -38 -121 -85
-147 -101 -57 -232 9 -251 125 -5 34 -1 52 19 95 46 92 136 122 228 74z m560
0 c61 -41 100 -122 85 -180 -19 -79 -113 -144 -190 -133 -122 19 -181 136
-123 246 43 82 156 115 228 67z m-896 -443 c81 -38 115 -144 73 -224 -61 -116
-243 -119 -297 -6 -46 95 -12 192 84 238 45 21 84 19 140 -8z m1226 0 c88 -44
114 -157 56 -241 -69 -101 -224 -94 -284 12 -28 50 -29 96 -2 152 44 92 139
123 230 77z"/>
</g>
</svg>
