<?xml version="1.0" standalone="no"?>
<!DOCTYPE svg PUBLIC "-//W3C//DTD SVG 20010904//EN"
 "http://www.w3.org/TR/2001/REC-SVG-20010904/DTD/svg10.dtd">
<svg version="1.0" xmlns="http://www.w3.org/2000/svg"
 width="500.000000pt" height="200.000000pt" viewBox="0 0 500.000000 200.000000"
 preserveAspectRatio="xMidYMid meet">

<g transform="translate(0.000000,200.000000) scale(0.100000,-0.100000)"
fill="#000000" stroke="none">
<path d="M1110 1766 c0 -13 -3 -39 -6 -57 -4 -24 -2 -29 4 -19 16 24 25 100
13 100 -6 0 -11 -11 -11 -24z"/>
<path d="M1170 1760 c0 -7 8 -9 20 -5 35 11 37 -23 4 -50 -16 -13 -26 -26 -22
-30 3 -4 16 3 27 14 12 12 26 21 32 21 6 0 9 12 7 28 -2 22 -8 28 -35 30 -20
2 -33 -1 -33 -8z"/>
<path d="M1954 1701 c-28 -17 -72 -54 -97 -83 l-46 -53 -37 20 c-40 21 -84 78
-84 110 -1 20 -1 20 -15 1 -37 -49 1 -121 79 -151 l43 -17 -18 -49 c-26 -67
-33 -145 -20 -197 12 -44 58 -104 95 -124 123 -66 266 26 266 172 0 44 -5 56
-29 81 -54 53 -150 30 -166 -41 -7 -32 9 -70 29 -70 8 0 16 16 19 40 7 51 22
70 58 70 74 0 77 -121 5 -194 -63 -63 -142 -52 -185 25 -27 47 -30 146 -9 219
l14 45 78 7 c98 9 178 44 206 90 26 44 25 74 -5 103 -36 37 -113 35 -181 -4z
m154 -13 c31 -31 5 -86 -55 -117 -33 -17 -130 -33 -153 -26 -17 5 -18 10 -9
28 21 39 60 81 98 104 39 25 100 30 119 11z"/>
<path d="M850 1683 c-23 -9 -60 -45 -76 -75 -45 -87 27 -198 129 -198 68 0
137 71 137 140 0 91 -105 164 -190 133z"/>
<path d="M1080 1650 c0 -5 7 -10 16 -10 8 0 12 5 9 10 -3 6 -10 10 -16 10 -5
0 -9 -4 -9 -10z"/>
<path d="M1160 1630 c0 -5 5 -10 10 -10 6 0 10 5 10 10 0 6 -4 10 -10 10 -5 0
-10 -4 -10 -10z"/>
<path d="M2355 1555 c-15 -19 -25 -39 -23 -45 3 -11 107 59 108 73 0 4 -13 7
-29 7 -22 0 -37 -9 -56 -35z"/>
<path d="M437 1463 c-12 -11 -7 -63 6 -64 31 -2 50 -9 69 -26 28 -25 80 -98
115 -163 34 -60 52 -76 77 -67 25 10 19 34 -11 42 -16 4 -34 11 -40 17 -18 14
-16 38 2 38 8 0 24 9 35 20 16 16 20 33 20 87 0 65 0 66 -19 49 -11 -10 -21
-27 -23 -39 -5 -34 -21 -28 -61 24 -21 27 -52 59 -70 69 -31 19 -87 27 -100
13z"/>
<path d="M1264 1451 c-17 -10 -50 -42 -74 -70 -46 -54 -60 -62 -60 -33 0 38
-29 62 -76 62 -37 0 -44 -3 -44 -20 0 -11 -5 -20 -11 -20 -6 0 -8 -9 -4 -20 4
-14 -8 -43 -40 -95 -26 -41 -51 -75 -55 -75 -5 0 -21 22 -37 50 l-28 49 -30
-37 c-26 -31 -30 -43 -27 -87 2 -36 -4 -70 -24 -120 -26 -69 -26 -73 -20 -225
4 -85 9 -157 12 -160 7 -6 301 -7 307 0 3 3 8 75 12 160 7 151 6 157 -19 223
-14 37 -26 84 -26 103 0 45 28 144 41 144 5 0 9 -26 9 -59 0 -62 14 -86 47
-79 9 2 36 36 59 77 55 98 113 164 155 176 29 9 34 14 34 40 0 27 -3 30 -35
33 -21 1 -47 -5 -66 -17z"/>
<path d="M746 1438 c-3 -13 -6 -49 -6 -81 0 -65 -19 -120 -47 -136 -16 -10
-16 -10 5 -11 29 0 74 26 91 52 6 10 14 47 17 81 6 59 5 63 -24 90 l-29 28 -7
-23z"/>
<path d="M2264 1441 c-100 -61 -107 -232 -10 -264 46 -15 85 8 113 70 14 29
28 53 33 53 5 0 15 3 23 6 11 4 15 -7 19 -46 5 -49 29 -90 53 -90 6 0 16 26
23 58 7 32 24 83 40 113 29 57 59 73 55 29 -2 -14 -6 -53 -9 -87 -5 -49 -3
-68 10 -88 25 -38 43 -31 51 18 16 93 74 203 96 180 4 -4 1 -35 -7 -68 -18
-73 -11 -120 20 -140 30 -20 67 -7 97 34 24 33 39 40 39 18 0 -8 11 -24 25
-37 54 -50 132 -19 157 62 8 27 17 38 30 38 26 0 78 53 78 79 0 28 -14 27 -29
-3 -7 -13 -24 -29 -37 -35 -22 -10 -24 -8 -34 28 -11 41 -28 55 -50 41 -19
-12 -16 -66 4 -89 17 -19 17 -22 0 -57 -39 -78 -84 -68 -84 18 0 57 28 120 65
144 33 22 32 34 -5 34 -46 0 -106 -60 -125 -123 -27 -91 -82 -154 -98 -113 -3
7 3 51 13 97 19 83 18 117 -4 131 -25 17 -52 6 -92 -38 l-43 -45 1 31 c1 44
-24 67 -59 54 -25 -8 -84 -75 -96 -106 -2 -7 -7 -11 -10 -8 -4 3 0 27 8 53 12
41 12 49 0 53 -24 10 -56 -16 -75 -62 -24 -54 -55 -61 -65 -14 -8 35 -36 55
-53 38 -17 -17 -15 -55 4 -87 15 -26 15 -30 -1 -64 -20 -44 -53 -58 -72 -31
-30 41 -9 135 42 184 19 19 35 38 35 42 0 15 -45 8 -76 -11z"/>
<path d="M870 1325 c27 -101 35 -106 53 -39 8 33 18 68 22 79 5 18 1 20 -43
20 l-48 0 16 -60z"/>
<path d="M3945 1383 c-111 -4 -492 -33 -537 -40 -61 -9 -46 -27 17 -19 37 4
55 3 55 -5 0 -7 35 -9 113 -5 221 12 392 27 420 38 20 8 128 10 345 6 305 -4
311 -4 162 7 -181 14 -460 23 -575 18z m-15 -23 c-9 -5 -76 -11 -150 -15 -74
-3 -144 -9 -155 -12 -11 -3 -16 -2 -12 3 5 5 77 14 160 20 84 6 157 12 162 12
6 1 3 -3 -5 -8z"/>
<path d="M1922 959 c-23 -12 -67 -48 -97 -81 -53 -60 -55 -60 -85 -48 -41 17
-90 75 -90 107 0 21 -2 24 -15 13 -9 -7 -15 -29 -15 -51 0 -46 22 -72 87 -101
31 -13 43 -24 39 -34 -73 -190 -28 -336 116 -374 76 -21 158 22 197 103 25 51
27 107 6 147 -31 59 -107 69 -156 21 -30 -31 -36 -59 -19 -92 17 -31 40 -24
40 14 0 45 25 77 59 77 39 0 54 -22 53 -75 -2 -71 -46 -135 -109 -156 -44 -14
-99 12 -128 61 -24 42 -26 161 -4 225 l14 40 72 6 c92 9 136 24 180 62 44 38
55 67 42 105 -19 54 -109 69 -187 31z m151 -30 c17 -27 -1 -67 -41 -93 -43
-29 -168 -54 -184 -38 -14 14 43 95 90 127 43 30 118 32 135 4z"/>
<path d="M4080 881 c-23 -12 -40 -31 -49 -54 -12 -32 -12 -40 3 -62 10 -16 26
-25 41 -25 32 0 32 14 0 28 -29 14 -32 41 -7 70 43 52 122 24 122 -44 0 -28
-11 -46 -55 -94 -54 -59 -74 -98 -60 -121 5 -7 12 -1 20 18 7 17 41 52 75 78
63 49 95 98 84 132 -14 44 -29 63 -59 78 -43 20 -73 19 -115 -4z"/>
<path d="M3185 710 c-4 -13 0 -31 10 -47 16 -23 16 -28 1 -67 -18 -46 -71
-114 -81 -104 -4 3 -1 17 6 29 19 37 15 126 -8 157 -24 32 -74 40 -108 18 -30
-20 -35 -20 -35 -1 0 21 -34 19 -54 -4 -10 -10 -30 -53 -45 -94 -32 -84 -65
-137 -87 -137 -24 0 -26 24 -10 88 41 155 -3 210 -91 116 l-43 -47 0 35 c0 38
-15 58 -42 58 -24 0 -83 -54 -98 -90 -14 -35 -36 -41 -26 -7 17 58 19 87 5 87
-26 0 -57 -29 -69 -64 -6 -18 -21 -38 -35 -44 -23 -11 -25 -9 -35 27 -11 41
-28 55 -50 41 -19 -12 -16 -66 4 -89 17 -19 17 -22 0 -57 -39 -78 -84 -68 -84
18 0 57 28 120 65 144 33 22 32 34 -5 34 -67 0 -138 -107 -127 -191 16 -120
153 -125 189 -7 6 21 17 38 24 38 7 0 19 3 28 6 13 5 16 -2 16 -39 0 -30 7
-53 21 -71 31 -39 46 -33 53 23 8 59 65 176 86 176 9 0 14 -8 12 -20 -2 -11
-6 -53 -9 -93 -5 -61 -3 -76 12 -92 27 -30 42 -24 49 20 3 22 15 64 27 94 42
115 92 131 63 22 -19 -72 -12 -120 21 -142 21 -14 26 -14 53 0 17 9 39 28 51
43 l20 28 1 -83 c0 -86 10 -122 34 -122 14 0 17 12 32 123 6 47 16 58 31 33
31 -53 131 -38 198 29 23 23 50 63 60 91 23 61 22 59 39 45 13 -11 12 -18 -1
-57 -19 -57 -10 -109 22 -130 32 -21 61 -11 104 35 22 24 35 32 38 23 10 -26
49 -61 74 -67 21 -5 34 0 59 22 l32 29 28 -28 c16 -15 36 -28 46 -28 28 0 89
73 119 144 15 37 33 65 39 63 11 -4 12 -18 0 -104 -6 -47 -4 -54 20 -78 31
-31 55 -27 100 14 28 25 96 152 96 178 0 29 -18 9 -50 -56 -36 -75 -75 -124
-93 -118 -21 6 -19 46 3 91 30 59 24 77 -30 96 -36 13 -46 21 -54 48 -7 25
-14 32 -30 30 -27 -4 -33 -43 -10 -69 16 -18 15 -23 -24 -103 -39 -79 -62
-103 -83 -90 -13 8 -11 101 5 167 7 32 10 60 5 63 -5 3 -22 -1 -39 -9 -26 -14
-30 -13 -46 4 -9 10 -29 19 -43 19 -53 -1 -95 -41 -125 -120 -25 -65 -69 -125
-91 -125 -29 0 -29 29 0 92 29 65 26 74 -39 95 -32 10 -41 19 -48 46 -10 37
-43 45 -53 12z m-131 -110 c-1 -99 -47 -170 -80 -125 -18 25 -18 87 1 132 21
50 35 64 59 61 19 -3 21 -9 20 -68z m526 50 c23 -42 -28 -190 -65 -190 -39 0
-42 82 -5 168 21 47 51 57 70 22z"/>
<path d="M760 431 c0 -178 1 -192 20 -211 24 -24 48 -25 78 -4 21 15 22 20 22
205 l0 189 -29 0 c-16 0 -43 3 -60 6 l-31 7 0 -192z"/>
<path d="M958 613 l-48 -4 0 -180 c0 -178 0 -180 25 -204 30 -31 55 -32 83 -2
21 22 22 32 22 210 0 172 -1 187 -17 185 -10 -1 -39 -3 -65 -5z"/>
<path d="M4040 475 c-13 -16 -10 -47 6 -52 19 -6 58 32 51 50 -8 21 -40 22
-57 2z"/>
</g>
</svg>
