<?xml version="1.0" standalone="no"?>
<!DOCTYPE svg PUBLIC "-//W3C//DTD SVG 20010904//EN"
 "http://www.w3.org/TR/2001/REC-SVG-20010904/DTD/svg10.dtd">
<svg version="1.0" xmlns="http://www.w3.org/2000/svg"
 width="500.000000pt" height="200.000000pt" viewBox="0 0 500.000000 200.000000"
 preserveAspectRatio="xMidYMid meet">

<g transform="translate(0.000000,200.000000) scale(0.100000,-0.100000)"
fill="#000000" stroke="none">
<path d="M910 1789 c-299 -30 -567 -247 -664 -540 -49 -146 -50 -344 -2 -493
80 -254 301 -461 560 -526 86 -22 222 -28 252 -12 75 41 91 123 39 201 -55 82
-36 172 46 213 26 14 59 18 140 18 184 0 272 29 374 122 211 193 176 554 -79
795 -176 168 -414 247 -666 222z m-59 -187 c78 -45 81 -176 4 -226 -58 -38
-115 -33 -170 15 -40 36 -53 83 -36 138 26 88 120 122 202 73z m449 -1 c32
-22 60 -77 60 -117 0 -70 -81 -139 -153 -130 -74 9 -119 57 -119 130 0 58 26
101 77 126 45 23 94 20 135 -9z m-723 -351 c121 -74 75 -250 -66 -250 -84 0
-135 51 -134 132 0 27 8 59 17 73 24 37 75 65 116 65 19 0 49 -9 67 -20z m971
6 c90 -47 103 -158 27 -225 -93 -82 -243 2 -221 123 8 39 48 93 80 106 32 13
84 11 114 -4z"/>
<path d="M2268 1604 c-55 -13 -136 -50 -168 -76 -47 -39 -67 -121 -36 -147 11
-9 15 -4 20 29 13 80 112 157 226 175 l45 7 -21 -23 c-32 -35 -67 -110 -125
-266 -54 -147 -67 -172 -107 -215 -19 -21 -35 -28 -62 -28 -99 0 -112 151 -15
176 36 9 31 24 -9 24 -78 0 -117 -121 -61 -189 49 -57 117 -61 173 -8 33 31
53 72 107 227 26 74 56 153 67 175 25 49 68 108 75 101 3 -2 -6 -33 -20 -68
-67 -168 -76 -396 -17 -428 28 -15 44 14 90 168 22 72 51 159 65 194 25 61 92
164 101 155 2 -2 -9 -33 -26 -70 -38 -85 -69 -195 -76 -278 -8 -84 17 -149 65
-168 27 -12 34 -11 57 4 14 9 33 30 42 46 21 37 28 36 36 -1 4 -21 15 -35 39
-46 31 -15 36 -15 66 0 35 19 81 84 107 153 9 23 20 43 25 43 21 0 49 -55 49
-96 0 -65 -50 -102 -70 -51 -8 21 -9 21 -9 1 -2 -61 68 -77 137 -31 29 19 50
45 76 98 20 39 36 78 36 85 0 29 -17 12 -44 -46 -16 -33 -31 -60 -35 -60 -3 0
-14 18 -23 40 -12 28 -31 49 -66 71 -36 22 -51 39 -56 60 -4 21 -11 29 -26 29
-29 0 -36 -28 -16 -63 16 -29 16 -31 -17 -101 -54 -115 -88 -135 -107 -65 -11
40 -6 112 12 158 12 33 -2 45 -35 30 -28 -12 -44 -42 -71 -126 -19 -57 -50
-103 -71 -103 -53 0 -38 254 26 427 34 96 34 93 6 93 -15 0 -42 -13 -62 -31
-43 -38 -122 -193 -156 -306 -13 -46 -27 -83 -31 -83 -25 0 5 246 42 355 11
32 20 60 20 62 0 8 -121 0 -172 -13z"/>
<path d="M2751 1441 c-25 -46 0 -71 47 -48 19 8 27 20 27 37 0 21 -5 26 -32
28 -23 2 -34 -2 -42 -17z"/>
<path d="M3640 1255 c-267 -20 -389 -33 -408 -45 -12 -8 3 -10 56 -8 39 2 72
0 72 -4 0 -19 527 12 581 33 33 13 223 16 514 7 l220 -6 -150 13 c-242 21
-673 26 -885 10z m191 -14 c-7 -5 -75 -12 -150 -16 -75 -3 -145 -9 -156 -12
-11 -3 -16 -2 -12 3 5 5 77 14 160 20 84 6 157 12 162 12 6 1 4 -2 -4 -7z"/>
<path d="M2224 961 c-59 -36 -64 -125 -10 -170 22 -18 97 -21 103 -3 3 7 -5
12 -20 12 -70 0 -104 87 -49 130 38 31 131 23 228 -19 39 -16 89 -33 112 -37
48 -7 108 10 122 36 13 24 13 60 0 60 -5 0 -10 -4 -10 -9 0 -5 -16 -15 -36
-21 -42 -14 -102 -8 -216 21 -100 25 -183 25 -224 0z"/>
<path d="M3283 887 c-50 -28 -88 -103 -118 -232 -25 -111 -85 -208 -116 -189
-13 8 -11 101 5 167 7 32 10 60 5 63 -5 3 -22 -1 -39 -9 -26 -14 -30 -13 -46
4 -9 10 -29 19 -43 19 -53 -1 -95 -41 -125 -120 -25 -65 -69 -125 -91 -125
-29 0 -29 29 0 92 29 65 26 74 -39 95 -32 10 -41 19 -48 46 -9 35 -41 45 -52
16 -11 -27 2 -50 44 -78 l39 -26 -16 -45 c-19 -58 -11 -110 22 -131 32 -21 61
-11 104 35 22 24 35 32 38 23 10 -26 49 -61 74 -67 21 -5 34 0 61 24 33 29 34
29 46 10 7 -11 24 -25 37 -31 32 -14 66 8 105 68 l28 45 7 -30 c24 -111 138
-118 183 -13 25 57 62 78 62 35 0 -96 103 -144 154 -72 l15 23 21 -27 c41 -52
80 -45 130 25 l30 41 0 -51 0 -51 -57 -34 c-65 -37 -84 -70 -65 -112 10 -21
18 -25 55 -25 32 0 49 6 65 23 25 26 52 88 52 117 0 12 21 43 47 71 l47 50 18
-35 c12 -23 29 -38 53 -46 51 -17 84 3 115 67 14 29 32 52 40 53 25 0 60 30
71 59 l11 26 24 -28 c17 -20 24 -40 24 -68 0 -73 -33 -102 -64 -57 l-16 22 0
-21 c0 -51 53 -71 113 -45 47 21 91 74 121 146 35 84 12 90 -27 6 -28 -60 -47
-77 -47 -41 0 27 -35 68 -85 97 -32 18 -45 32 -47 52 -2 19 -10 28 -25 30 -32
5 -40 -33 -14 -68 l21 -29 -31 -25 c-34 -29 -49 -26 -49 9 0 13 -7 30 -15 39
-38 37 -71 -27 -38 -72 23 -32 16 -77 -17 -107 -31 -28 -54 -9 -58 46 -5 64
13 114 53 146 43 34 44 43 5 43 -42 0 -96 -52 -131 -125 -16 -34 -40 -72 -54
-85 l-25 -23 0 24 c0 27 14 119 25 162 6 24 4 27 -18 27 -25 0 -67 -40 -67
-64 0 -6 -13 -38 -29 -71 -30 -64 -63 -101 -80 -90 -15 9 -14 111 3 173 7 29
9 55 4 58 -4 3 -22 -2 -40 -10 -29 -15 -32 -15 -45 4 -17 24 -64 26 -98 4 -14
-9 -38 -38 -55 -65 -16 -27 -36 -49 -43 -49 -8 0 -19 18 -26 39 -13 45 -33 57
-56 34 -18 -18 -13 -57 11 -84 8 -8 14 -25 14 -36 0 -25 -36 -73 -55 -73 -21
0 -42 38 -49 88 -9 60 0 83 44 114 49 34 101 110 107 158 9 62 -40 97 -94 67z
m63 -42 c10 -24 -15 -82 -55 -126 -51 -58 -65 -49 -40 26 33 95 79 144 95 100z
m-376 -195 c23 -42 -28 -190 -65 -190 -39 0 -42 82 -5 168 21 47 51 57 70 22z
m605 -45 c-1 -96 -47 -168 -84 -130 -13 13 -13 25 -4 80 14 80 36 117 66 113
20 -3 22 -9 22 -63z m157 -294 c-22 -29 -40 -36 -62 -21 -20 12 -5 37 41 68
l34 24 3 -23 c2 -12 -5 -34 -16 -48z"/>
<path d="M2503 828 c-32 -36 -48 -73 -89 -212 -49 -169 -87 -214 -154 -186
-73 30 -58 148 21 165 35 8 29 25 -9 25 -39 0 -68 -24 -82 -66 -17 -49 -5 -98
32 -135 30 -29 35 -31 94 -27 107 7 139 52 178 256 15 80 33 147 46 167 21 34
21 35 3 35 -11 0 -29 -10 -40 -22z"/>
<path d="M3850 797 c-27 -14 -39 -55 -20 -67 18 -11 62 3 74 23 8 12 8 22 0
34 -14 23 -25 25 -54 10z"/>
</g>
</svg>
